<?xml version="1.0" encoding="UTF-8" standalone="no"?>
<svg width="106px" height="82px" viewBox="0 0 106 82" version="1.1" xmlns="http://www.w3.org/2000/svg" xmlns:xlink="http://www.w3.org/1999/xlink" xmlns:sketch="http://www.bohemiancoding.com/sketch/ns">
    <!-- Generator: Sketch 3.5.2 (25235) - http://www.bohemiancoding.com/sketch -->
    <title>lo_que_no_puedes_faltar</title>
    <desc>Created with Sketch.</desc>
    <defs></defs>
    <g id="Page-1" stroke="none" stroke-width="1" fill="none" fill-rule="evenodd" sketch:type="MSPage">
        <g id="lo_que_no_puedes_faltar" sketch:type="MSLayerGroup">
            <path d="M92.5103002,73.2856674 C91.0886414,73.7380139 87.2873213,74.3952199 81.0623797,74.3952199 C78.5267839,74.3952199 76.1131157,74.2789258 74.0420058,74.0628921 L81.7827477,18.5794764 C89.30825,18.6800438 96.326965,20.3267835 99.7351308,21.5042086 L92.5103002,73.2856674 Z M53.7900023,77.1138509 C45.5909953,77.1138509 40.3248855,76.1806019 38.6602009,75.5387086 L33.8776542,41.2597049 L29.3746285,8.981703 L29.3596986,8.87451386 C33.7150841,7.29233596 43.4638984,4.9312779 53.7900023,4.9312779 C64.1156916,4.9312779 73.8649206,7.29233596 78.2207208,8.87451386 L68.9198037,75.5382948 C67.2555339,76.1806019 61.9890093,77.1138509 53.7900023,77.1138509 L53.7900023,77.1138509 Z M13.8798738,73.2856674 L6.65504322,21.5042086 C10.1718657,20.2891225 17.5327243,18.574924 25.3277944,18.574924 C25.4828995,18.574924 25.6392488,18.5757517 25.797257,18.5774071 L29.9498446,48.3432929 L33.5189217,73.9242498 C31.231743,74.2247105 28.3345117,74.3952199 25.3277944,74.3952199 C19.1028528,74.3952199 15.3015327,73.7380139 13.8798738,73.2856674 L13.8798738,73.2856674 Z M97.1157617,15.6924052 C94.3031332,15.0041599 88.81266,13.8821918 82.4587407,13.7336169 L82.8295,11.0749951 C83.6954346,10.7186637 84.7931974,10.0420064 84.7931974,8.54466929 C84.7931974,6.57718989 82.8896343,5.5239221 80.8322103,4.67841086 C79.0725549,3.9554015 76.7152886,3.22411498 74.0154638,2.56318427 C70.2141437,1.63283221 62.5322921,0.072588764 53.7900023,0.072588764 C45.0477126,0.072588764 37.3654463,1.63283221 33.5645409,2.56318427 C30.8643014,3.22411498 28.5074498,3.9554015 26.7477944,4.67841086 C24.6903703,5.5239221 22.7868072,6.57718989 22.7868072,8.54466929 C22.7868072,10.0420064 23.8841554,10.7190775 24.7505047,11.0749951 L25.1191904,13.7183041 C18.266778,13.7427217 12.2608084,14.9619464 9.2748271,15.6924052 C1.07789369,17.6987873 0.39236215,19.3674614 0.39236215,20.9049427 C0.39236215,22.2119052 1.25083178,22.8869071 1.9823972,23.247791 L9.17031776,74.7652086 C9.36855374,77.579027 13.3029988,78.2337498 15.2185888,78.5524202 C17.9395643,79.0047667 21.5302068,79.253909 25.3277944,79.253909 C28.8068773,79.253909 32.0922862,79.0436693 34.6934077,78.6658172 C35.9101951,80.0278228 38.4126133,80.6498509 41.062257,81.0901955 C44.4832792,81.6592498 49.0037231,81.9725401 53.7900023,81.9725401 C58.5766963,81.9725401 63.0967255,81.6592498 66.5173329,81.0901955 C69.0753236,80.6647498 71.4956273,80.0700363 72.7551308,78.8040457 C75.1758493,79.0949876 78.0481974,79.253909 81.0623797,79.253909 C84.860382,79.253909 88.4506098,79.0047667 91.1715853,78.5524202 C93.08759,78.2337498 97.0216203,77.579027 97.2198563,74.7652086 L104.408192,23.247791 C105.139342,22.8869071 105.997812,22.2119052 105.997812,20.9049427 C105.997812,19.3674614 105.31228,17.6987873 97.1157617,15.6924052 L97.1157617,15.6924052 Z" id="border" fill="#FFFFFF" sketch:type="MSShapeGroup"></path>
            <g id="fills" transform="translate(9.000000, 7.000000)" fill="#CC3232" sketch:type="MSShapeGroup">
                <path d="M67.8089737,64.8470567 C69.1576419,64.9252758 70.5942307,64.9658339 72.0627529,64.9658339 C76.451316,64.9658339 79.53683,64.6293676 81.3288335,64.3044893 L88.0385824,16.2138133 C85.0086408,15.3654051 80.2016256,14.3609725 74.8919702,14.080377 L67.8089737,64.8470567 Z" id="fill"></path>
                <path d="M31.8527407,66.6354599 C34.1444813,67.1349861 38.644604,67.6845891 44.7899194,67.6845891 C50.9373084,67.6845891 55.4361869,67.1349861 57.7275129,66.6354599 L66.5295222,3.54616779 C62.0692126,2.1965779 53.7308598,0.360705243 44.7899194,0.360705243 C35.8493937,0.360705243 27.5110409,2.1965779 23.0507313,3.54616779 L31.8527407,66.6354599 Z" id="fill"></path>
                <path d="M7.06187967,64.3044479 C8.85346846,64.6293262 11.9393972,64.9657925 16.3279603,64.9657925 C18.2182523,64.9657925 20.0782699,64.8962644 21.7591285,64.7654854 L14.6815234,14.0302588 C8.91443224,14.2107007 3.62343925,15.2958356 0.351716121,16.2129442 L7.06187967,64.3044479 Z" id="fill"></path>
            </g>
        </g>
    </g>
</svg>