<?xml version="1.0" encoding="UTF-8" standalone="no"?>
<svg width="40px" height="103px" viewBox="0 0 40 103" version="1.1" xmlns="http://www.w3.org/2000/svg" xmlns:xlink="http://www.w3.org/1999/xlink" xmlns:sketch="http://www.bohemiancoding.com/sketch/ns">
    <!-- Generator: Sketch 3.5.2 (25235) - http://www.bohemiancoding.com/sketch -->
    <title>mezcladores</title>
    <desc>Created with Sketch.</desc>
    <defs></defs>
    <g id="Page-1" stroke="none" stroke-width="1" fill="none" fill-rule="evenodd" sketch:type="MSPage">
        <g id="mezcladores" sketch:type="MSLayerGroup">
            <path d="M23.1424924,0.330601498 L16.2398989,0.330601498 C14.5295952,0.330601498 12.904309,0.789155805 11.5386373,1.65618764 C9.07022605,3.22388052 7.81860222,5.694197 7.81860222,8.99885056 C7.81860222,9.35394045 7.84846203,9.78600787 7.91647605,10.7296034 C8.101441,13.2963487 8.48630082,18.637182 8.09107301,23.3373637 C8.00107886,24.4092551 6.47905783,26.71527 5.36760923,28.3992569 C3.26954264,31.57727 0.891955023,35.1799011 0.943794977,39.1790079 C0.988169977,42.5879536 0.944209696,55.7357981 0.943794977,55.8682326 L0.942965537,56.0875772 L0.964116238,56.3065079 C1.16484054,58.3820041 2.89090362,76.1476727 3.53620736,80.2134105 C3.41345035,80.8031577 2.93735222,82.0956352 2.58110806,83.0619929 C1.55218867,85.8555322 0.271119743,89.3319367 0.247895444,92.8948375 C0.24125993,93.8810603 0.221768107,96.8819423 2.51682652,99.1871296 C5.47958353,102.16318 10.1816746,102.295201 19.6911957,102.295201 C29.200302,102.295201 33.9028078,102.16318 36.8659796,99.1871296 C39.161038,96.8815285 39.1411314,93.8802326 39.1344959,92.8940097 C39.1108569,89.3315228 37.8302027,85.8555322 36.8008686,83.0619929 C36.4450391,82.0956352 35.968941,80.8035715 35.846184,80.2134105 C36.4914877,76.1476727 38.2175508,58.3815903 38.4182751,56.306094 L38.4394258,56.0875772 L38.4385964,55.8678187 C38.4381817,55.7353843 38.3942214,42.5879536 38.4381817,39.1794217 C38.4904363,35.1799011 36.112434,31.5776839 34.0147821,28.3992569 C32.9033335,26.71527 31.3813125,24.4092551 31.2913183,23.3373637 C30.8960905,18.637182 31.2809504,13.2963487 31.4659153,10.7296034 C31.5339293,9.78600787 31.5637891,9.35394045 31.5637891,8.99885056 C31.5637891,5.694197 30.3121653,3.22388052 27.8433394,1.65618764 C26.4780824,0.789155805 24.8523814,0.330601498 23.1424924,0.330601498 M23.1424924,4.73611648 C23.9623931,4.73611648 24.7814644,4.93352659 25.4732167,5.37262959 C26.9604013,6.31705281 27.1490987,7.73161835 27.1490987,8.99885056 C27.1490987,9.99831685 26.3544959,17.3091127 26.8919725,23.705697 C27.2826384,28.3529049 34.0894317,34.1150453 34.023906,39.1223094 C33.9787015,42.6065772 34.023906,55.8831315 34.023906,55.8831315 C34.023906,55.8831315 32.0145894,76.6542345 31.4422763,79.7838262 C31.0346069,82.0116221 34.6862132,87.8461876 34.7198055,92.9233936 C34.7509095,97.5888112 31.7267739,97.8896858 19.6911957,97.8896858 C7.65603213,97.8896858 4.63189661,97.5888112 4.66217114,92.9238075 C4.69576343,87.8466015 8.34778446,82.0116221 7.94011507,79.7842401 C7.36780199,76.6546483 5.35807068,55.8831315 5.35807068,55.8831315 C5.35807068,55.8831315 5.40368984,42.6065772 5.35807068,39.1218955 C5.2929597,34.1150453 12.0997529,28.352491 12.4904188,23.705697 C13.0278954,17.3091127 12.2332926,9.99831685 12.2332926,8.99885056 C12.2332926,7.73161835 12.4219901,6.31705281 13.9091746,5.37262959 C14.600927,4.93352659 15.4199982,4.73611648 16.2398989,4.73611648 L23.1424924,4.73611648" id="border" fill="#FFFFFF" sketch:type="MSShapeGroup"></path>
            <path d="M11.1666752,32.0381419 C11.1401332,32.0782861 11.1140058,32.1188442 11.0874638,32.1585745 C9.45554206,34.6313742 7.7680479,37.1881869 7.79293107,39.0902768 C7.83606192,42.4172787 7.79790771,54.3467262 7.79334579,55.7699828 C8.35902336,61.6115839 9.88394743,76.8804491 10.3351624,79.3474547 C10.6379077,81.0020577 9.91961332,82.9521551 9.00971846,85.42123 C8.12055958,87.8348479 7.11237617,90.570861 7.09661682,92.9397824 C7.09329907,93.4608292 7.13891822,94.1321064 7.37572313,94.3700745 C8.46104439,95.4601757 14.6880596,95.4601757 19.6912371,95.4601757 C24.6948294,95.4601757 30.9210152,95.4601757 32.0067512,94.3700745 C32.2435561,94.1321064 32.2887605,93.4608292 32.2854428,92.9393685 C32.2696834,90.5700333 31.2619147,87.8340202 30.3723411,85.4204022 C29.4632757,82.9517412 28.7445666,81.0020577 29.0468972,79.3482824 C29.4985269,76.8800352 31.0234509,61.61117 31.5895432,55.7699828 C31.5845666,54.3463124 31.5464124,42.4172787 31.5899579,39.0906906 C31.6144264,37.1886007 29.9269322,34.6313742 28.2945958,32.1589884 C28.2684685,32.1188442 28.2419264,32.0782861 28.2153843,32.0381419 C25.401097,31.9226757 22.5586086,31.8622524 19.6912371,31.8622524 C16.8234509,31.8622524 13.9813773,31.9226757 11.1666752,32.0381419" id="fill" fill="#4E70D1" sketch:type="MSShapeGroup"></path>
        </g>
    </g>
</svg>