<?xml version="1.0" encoding="UTF-8" standalone="no"?>
<svg width="190px" height="223px" viewBox="0 0 190 223" version="1.1" xmlns="http://www.w3.org/2000/svg" xmlns:xlink="http://www.w3.org/1999/xlink" xmlns:sketch="http://www.bohemiancoding.com/sketch/ns">
    <!-- Generator: Sketch 3.5.2 (25235) - http://www.bohemiancoding.com/sketch -->
    <title>icon_farmacia</title>
    <desc>Created with Sketch.</desc>
    <defs></defs>
    <g id="Page-1" stroke="none" stroke-width="1" fill="none" fill-rule="evenodd" sketch:type="MSPage">
        <g id="icon_farmacia" sketch:type="MSLayerGroup">
            <path d="M166.1088,117.8473 L84.6648,199.2923 C68.6748,215.2813 42.7518,215.2813 26.7618,199.2923 L26.7618,199.2923 C10.7728,183.3033 10.7728,157.3793 26.7618,141.3893 L108.2068,59.9453 C124.1958,43.9553 150.1198,43.9563 166.1088,59.9453 L166.1088,59.9453 C182.0978,75.9343 182.0978,101.8583 166.1088,117.8473 M15.1728,84.1813 C5.5118,58.6323 16.8698,30.2993 40.6558,18.1793 L66.0958,85.4513 L39.5138,112.0333 C28.7068,106.1793 19.8628,96.5813 15.1728,84.1813 M64.7858,12.3503 C84.7098,12.3483 103.5388,23.6633 112.5378,42.3163 C107.9918,44.7163 103.7248,47.8233 99.9048,51.6433 L75.2048,76.3433 L51.6398,14.0303 C56.0118,12.9053 60.4248,12.3503 64.7858,12.3503 M174.4118,51.6433 C160.6408,37.8733 141.0868,33.3493 123.4998,38.0403 C118.5708,27.4343 110.9518,18.4303 101.2208,11.8253 C90.4108,4.4883 77.8148,0.6103 64.7958,0.6093 L64.7948,0.6093 L64.7948,0.6093 L64.7898,0.6093 L64.7898,0.6183 C64.7888,0.6183 64.7888,0.6193 64.7888,0.6193 L64.7888,0.6093 C56.9578,0.6093 49.2508,2.0243 41.8768,4.8123 C8.4598,17.4493 -8.4452,54.9173 4.1918,88.3343 C8.9388,100.8873 17.2998,111.4933 28.3718,119.0073 C29.2068,119.5733 30.0578,120.1103 30.9148,120.6333 L18.4598,133.0883 C-2.0812,153.6293 -2.0812,187.0523 18.4598,207.5933 C39.0018,228.1353 72.4248,228.1353 92.9658,207.5943 L174.4118,126.1493 C194.9528,105.6073 194.9528,72.1843 174.4118,51.6433" id="border" fill="#FFFFFF" sketch:type="MSShapeGroup"></path>
            <g id="fills" transform="translate(17.000000, 18.000000)" sketch:type="MSShapeGroup">
                <path d="M97.6906,56.731 C95.3976,54.438 95.3976,50.722 97.6906,48.429 C110.0796,36.041 130.2366,36.041 142.6246,48.429 C144.9176,50.722 144.9176,54.438 142.6246,56.731 C140.3326,59.024 136.6156,59.024 134.3236,56.731 C126.5126,48.92 113.8026,48.92 105.9926,56.731 C103.6996,59.024 99.9836,59.024 97.6906,56.731" id="fill" fill="#F9F6E4"></path>
                <path d="M105.9454,134.7097 L144.9584,95.6967 C156.5744,84.0807 158.3164,66.2787 150.1984,52.7987 C150.1434,55.7317 149.0084,58.6487 146.7754,60.8817 C142.1984,65.4587 134.7504,65.4587 130.1724,60.8817 C124.6504,55.3597 115.6654,55.3597 110.1424,60.8817 C105.5654,65.4587 98.1174,65.4587 93.5394,60.8817 C90.9164,58.2587 89.8044,54.6937 90.1874,51.2657 L56.3444,85.1087 L105.9454,134.7097 Z" id="fill" fill="#E44B39"></path>
                <path d="M52.1936,89.2595 L13.9126,127.5405 C0.2386,141.2145 0.2386,163.4665 13.9126,177.1415 C27.5876,190.8155 49.8396,190.8155 63.5136,177.1415 L101.7946,138.8605 L52.1936,89.2595 Z" id="fill" fill="#F9F6E4"></path>
                <path d="M20.6469,8.8165 C3.2269,21.0045 -4.0661,43.6635 3.6649,64.1045 C7.1529,73.3305 13.4469,81.2005 21.6059,86.6395 L42.2639,65.9815 L20.6469,8.8165 Z" id="fill" fill="#F9F6E4"></path>
                <path d="M42.6107,0.5138 L60.4797,47.7658 L78.7537,29.4928 C81.4837,26.7618 84.4627,24.3188 87.6507,22.1898 C79.0957,8.6918 63.9747,0.2188 47.7857,0.2198 C46.0647,0.2198 44.3367,0.3188 42.6107,0.5138" id="fill" fill="#F9F6E4"></path>
            </g>
        </g>
    </g>
</svg>