<?xml version="1.0" encoding="UTF-8" standalone="no"?>
<svg width="64px" height="126px" viewBox="0 0 64 126" version="1.1" xmlns="http://www.w3.org/2000/svg" xmlns:xlink="http://www.w3.org/1999/xlink" xmlns:sketch="http://www.bohemiancoding.com/sketch/ns">
    <!-- Generator: Sketch 3.5.2 (25235) - http://www.bohemiancoding.com/sketch -->
    <title>cervezas</title>
    <desc>Created with Sketch.</desc>
    <defs></defs>
    <g id="Page-1" stroke="none" stroke-width="1" fill="none" fill-rule="evenodd" sketch:type="MSPage">
        <g id="cervezas" sketch:type="MSLayerGroup">
            <path d="M50.8931908,72.1828673 C48.8152774,79.372226 47.1744122,85.050753 47.1744122,90.9121625 C47.1744122,102.97469 47.71057,114.19422 47.9179746,118.076251 C45.4818168,118.904772 38.854056,119.889153 32.0657863,119.889153 C25.2775165,119.889153 18.6492723,118.904772 16.2131145,118.076251 C16.4200356,114.19422 16.9566768,102.97469 16.9566768,90.9121625 C16.9566768,85.050753 15.3153282,79.372226 13.2374148,72.1828673 C10.0833181,61.2697498 6.18614249,47.7846959 5.90380153,26.4400356 C10.6813588,25.8412038 21.692173,24.6213435 32.0657863,24.6213435 C42.4292468,24.6213435 53.4468295,25.8416863 58.2268041,26.4400356 C57.9444631,47.7846959 54.0472875,61.2697498 50.8931908,72.1828673 M9.35184224,19.9585625 C9.2493486,19.3698641 9.19713486,18.7700673 9.19713486,18.177026 C9.19713486,11.6637054 15.2882545,6.36493714 22.7746412,6.36493714 C27.7088397,6.36493714 32.2640051,8.70911492 34.6629364,12.4830578 C35.1381781,13.2305117 35.9363715,13.7130514 36.8201374,13.7878451 C46.6208499,14.6163657 52.6181781,17.7070324 54.3823257,20.2852419 C48.6591196,19.6700038 40.2570585,18.9558451 32.0657863,18.9558451 C23.7028855,18.9558451 15.115659,19.7004038 9.3890687,20.3238451 C9.3842341,20.2017625 9.3731145,20.07968 9.35184224,19.9585625 M63.9190687,23.9597816 C63.9190687,22.5526959 62.8844631,21.3588927 61.4891959,21.1567086 C61.4089415,21.1451276 61.0884071,21.0988038 60.5677201,21.0288356 C59.9348702,14.6322895 51.3374911,9.6244927 38.6360153,8.27048635 C35.065659,3.56861968 29.1200611,0.69943873 22.7746412,0.69943873 C12.1583308,0.69943873 3.52130789,8.53974349 3.52130789,18.177026 C3.52130789,18.8935975 3.5701374,19.6159594 3.66682952,20.3310832 C3.62090076,20.5646324 3.58754198,20.7972165 3.56336896,21.0288356 C3.04219847,21.0988038 2.72166412,21.1451276 2.64140967,21.1567086 C1.24662595,21.3588927 0.211536896,22.5526959 0.211536896,23.9597816 C0.211536896,47.5530768 4.58830534,62.6961371 7.78349618,73.7530514 C9.73716031,80.5129498 11.2803664,85.8517689 11.2803664,90.9121625 C11.2803664,105.606943 10.4749211,119.03554 10.4671858,119.169204 C10.4633181,119.226143 10.4618677,119.283566 10.4618677,119.340988 C10.4618677,122.790182 14.9126056,123.825229 19.0848702,124.524912 C22.9283817,125.169585 27.7813588,125.554169 32.0657863,125.554169 C36.3497303,125.554169 41.2022239,125.169585 45.0462188,124.524912 C49.218,123.825229 53.6687379,122.790182 53.6687379,119.340988 C53.6687379,119.283566 53.6672875,119.226143 53.6634198,119.169204 C53.6556845,119.03554 52.8502392,105.615629 52.8502392,90.9121625 C52.8502392,85.8517689 54.3934453,80.5129498 56.3471094,73.7530514 C59.5427837,62.6961371 63.9190687,47.5530768 63.9190687,23.9597816" id="border" fill="#FFFFFF" sketch:type="MSShapeGroup"></path>
            <g id="fills" transform="translate(8.000000, 9.000000)" sketch:type="MSShapeGroup">
                <path d="M14.7745929,0.197300317 C9.24863868,0.197300317 4.68477099,3.70488127 4.09881679,8.19684317 C9.68036896,7.65302095 16.9467812,7.12367492 24.0657379,7.12367492 C24.9678753,7.12367492 25.8714631,7.1318781 26.774084,7.1478019 C25.755916,6.69855746 24.8736005,5.95496381 24.2668575,5.0014654 C22.3828117,2.03770667 18.7462214,0.197300317 14.7745929,0.197300317" id="fill" fill="#F9F6E4"></path>
                <path d="M45.9476463,36.9722286 C38.8572137,36.0973841 31.5443893,35.6336635 24.0657379,35.6336635 C16.5870865,35.6336635 9.27377863,36.0973841 2.18334606,36.9722286 C3.64581425,47.4481651 5.96304071,55.4728 7.96456743,62.397727 C10.1043639,69.8022984 11.794542,75.6501968 11.794542,81.9125968 C11.794542,92.1337524 11.4164758,101.685625 11.1645929,106.901879 C14.0929135,107.48334 19.0116412,108.056597 24.0657379,108.056597 C29.1193511,108.056597 34.0380789,107.48334 36.965916,106.901879 C36.7145165,101.685625 36.3364504,92.1337524 36.3364504,81.9125968 C36.3364504,75.6501968 38.0266285,69.8022984 40.1664249,62.397727 C42.1679517,55.4728 44.4851781,47.4481651 45.9476463,36.9722286" id="fill" fill="#FCA903"></path>
                <path d="M24.0656412,32.4503975 C31.6269644,32.4503975 39.0795089,32.9121879 46.3541399,33.8044038 C46.8463028,29.5918324 47.1972952,25.0004673 47.3370153,19.9477943 C42.0436056,19.3436546 32.7664809,18.4538514 24.0656412,18.4538514 C15.3536819,18.4538514 6.0833257,19.3431721 0.793783715,19.9473117 C0.933987277,25.0004673 1.28449618,29.5913498 1.77665903,33.8044038 C9.05177354,32.9121879 16.5043181,32.4503975 24.0656412,32.4503975" id="fill" fill="#F9F6E4"></path>
            </g>
        </g>
    </g>
</svg>