<?xml version="1.0" encoding="UTF-8" standalone="no"?>
<svg width="112px" height="68px" viewBox="0 0 112 68" version="1.1" xmlns="http://www.w3.org/2000/svg" xmlns:xlink="http://www.w3.org/1999/xlink" xmlns:sketch="http://www.bohemiancoding.com/sketch/ns">
    <!-- Generator: Sketch 3.5.2 (25235) - http://www.bohemiancoding.com/sketch -->
    <title>extras_y_botanas</title>
    <desc>Created with Sketch.</desc>
    <defs></defs>
    <g id="Page-1" stroke="none" stroke-width="1" fill="none" fill-rule="evenodd" sketch:type="MSPage">
        <g id="extras_y_botanas" sketch:type="MSLayerGroup">
            <path d="M82.5889381,62.8255185 L55.8515491,62.8255185 L29.1137453,62.8255185 C29.1137453,62.8255185 17.2793061,62.8255185 6.21956308,36.6320522 L55.8515491,36.6320522 L105.48312,36.6320522 C94.4233773,62.8255185 82.5889381,62.8255185 82.5889381,62.8255185 L82.5889381,62.8255185 Z M38.6481495,21.601983 L36.2664147,31.2965991 L19.0319112,31.2965991 L17.3170456,17.2875167 L38.6481495,21.601983 Z M63.061035,27.5987807 L59.8954801,31.2965991 L41.2795456,31.2965991 L47.1722967,7.2796103 L63.061035,27.5987807 Z M89.6553458,31.2965991 L66.3667652,31.2965991 L81.2008715,13.8947114 L89.6553458,31.2965991 Z M105.48312,32.2265373 L95.5186519,32.2265373 L84.5401939,9.63032191 C83.9819813,8.48186685 82.8394287,7.76837622 81.5591893,7.76837622 C80.5875012,7.76837622 79.6688972,8.19258034 79.0389381,8.93173015 L66.2892126,23.8281234 L49.0256787,1.75129944 C48.3932313,0.942621536 47.4435234,0.479100936 46.4191659,0.479100936 C44.882215,0.479100936 43.556771,1.51912528 43.1967944,3.00818521 L39.808535,16.8790391 L16.167028,12.0969137 C15.0190841,11.8647395 13.8043703,12.2711478 13.0284299,13.1452152 C12.4009591,13.8529118 12.1069229,14.7969212 12.2213855,15.7355504 L14.2402407,32.2265373 L6.21956308,32.2265373 L1.89113435,32.2265373 C0.78839486,32.2265373 0.0423142523,33.3480916 0.470304907,34.3620429 L2.15116355,38.342526 C7.04319626,49.9292994 12.7634241,58.2474249 19.1521799,63.0659699 C24.4083364,67.0303125 28.3726414,67.2310335 29.1137453,67.2310335 L55.8515491,67.2310335 L82.5889381,67.2310335 C84.1001764,67.2310335 97.6963446,66.4202863 109.55152,38.342526 L111.232379,34.3620429 C111.660369,33.3480916 110.914289,32.2265373 109.811549,32.2265373 L105.48312,32.2265373 Z" id="border" fill="#FFFFFF" sketch:type="MSShapeGroup"></path>
            <g id="fills" transform="translate(9.000000, 12.000000)" sketch:type="MSShapeGroup">
                <path d="M20.1563785,48.3960912 L73.546139,48.3960912 C73.9363902,48.3654657 83.2721437,47.3837953 92.7439252,27.061314 L0.959007009,27.061314 C10.4307886,47.3837953 19.7665421,48.3654657 20.1563785,48.3960912" id="fill" fill="#F9F6E4"></path>
                <path d="M62.6339533,16.8671303 L76.7696717,16.8671303 L71.6379311,6.30465468 L62.6339533,16.8671303 Z" id="fill" fill="#FCA903"></path>
                <path d="M35.3819387,16.8671303 L49.7731244,16.8671303 L50.9189947,15.5291285 L39.3425111,0.725439326 L35.3819387,16.8671303 Z" id="fill" fill="#FCA903"></path>
                <path d="M12.1872091,16.8671303 L25.3570456,16.8671303 L26.6800012,11.4803588 L11.1429451,8.33793745 L12.1872091,16.8671303 Z" id="fill" fill="#FCA903"></path>
            </g>
        </g>
    </g>
</svg>