<?xml version="1.0" encoding="UTF-8" standalone="no"?>
<svg width="82px" height="159px" viewBox="0 0 82 159" version="1.1" xmlns="http://www.w3.org/2000/svg" xmlns:xlink="http://www.w3.org/1999/xlink" xmlns:sketch="http://www.bohemiancoding.com/sketch/ns">
    <!-- Generator: Sketch 3.5.2 (25235) - http://www.bohemiancoding.com/sketch -->
    <title>icon_vinos_y_licores</title>
    <desc>Created with Sketch.</desc>
    <defs></defs>
    <g id="Page-1" stroke="none" stroke-width="1" fill="none" fill-rule="evenodd" sketch:type="MSPage">
        <g id="icon_vinos_y_licores" sketch:type="MSLayerGroup">
            <path d="M53.0802982,147.271975 L58.0240734,115.781223 C58.1458604,115.107783 58.147316,114.403709 58.0133988,113.698663 C57.643671,111.754682 56.0502509,109.373085 52.7746178,109.060434 C52.6309964,109.046333 52.4194462,109.028342 52.147245,109.007434 C51.6790201,108.971452 51.0021562,108.924287 50.1671148,108.869342 C48.3131385,108.747783 46.0501325,108.613581 43.7953751,108.491535 C40.1315763,108.29315 33.3478959,107.958617 29.0746769,107.94792 L28.779671,107.947434 C27.8150793,99.6585257 24.6947124,72.3445624 24.6951976,65.9529569 C24.6956828,60.5479294 27.3618959,55.5455073 31.7258485,52.3693972 C37.1684166,48.4084982 40.9433278,47.6018284 40.9433278,47.6018284 L40.9428426,22.4205073 L39.4872213,18.8359569 L39.9724284,7.84891101 C39.9724284,6.92457156 46.9424284,6.17576422 50.3005467,6.17576422 C53.6586651,6.17576422 60.6286651,6.92457156 60.6286651,7.84891101 L61.1138722,18.8359569 L59.6582509,22.4205073 L59.6577657,47.6018284 C59.6577657,47.6018284 63.437529,48.3997459 68.8791266,52.3621037 C73.2411385,55.5382138 75.9054107,60.5396633 75.9058959,65.9427459 C75.9068663,73.5022963 71.5409728,110.343131 71.5409728,110.343131 L75.9083219,144.5257 C75.9083219,145.91537 62.4472213,147.066783 53.0802982,147.271975 M29.0601207,153.291122 C20.6771976,153.291122 11.4553515,152.447498 11.4553515,151.406948 L5.7032213,114.768388 C5.41258225,114.652177 14.795032,113.655388 28.3410438,113.655388 C28.5792805,113.655388 28.819458,113.655874 29.0601207,113.656361 C36.4444876,113.67581 52.5732568,114.705663 52.4165349,114.768388 L46.6644047,151.406948 C46.6644047,152.447498 37.4425586,153.291122 29.0601207,153.291122 M81.5585586,143.800718 L77.2804876,110.315902 C78.0015053,104.201939 81.6036828,73.2684156 81.6027124,65.9422596 C81.601742,58.8203239 78.0970911,52.0168743 72.2275408,47.7433239 C69.5855882,45.8197642 67.2308781,44.5181037 65.354097,43.6477367 L65.3545822,23.5378835 L66.3904994,20.9875624 C66.7000615,20.2256266 66.8412568,19.4053422 66.8048663,18.5831128 L66.3211148,7.6203789 C66.2619195,6.11158073 65.567103,2.98847064 61.0381799,1.70431468 C60.1187124,1.44369083 58.9328663,1.21078257 57.5121799,1.01191101 C55.1477657,0.680782569 52.3170675,0.466837615 50.3005467,0.466837615 C48.284026,0.466837615 45.4533278,0.680782569 43.0889136,1.01191101 C41.6682272,1.21078257 40.4823811,1.44369083 39.5629136,1.70431468 C35.0325349,2.98895688 34.339174,6.11352569 34.2799787,7.62183761 L33.7962272,18.5840853 C33.7603219,19.4058284 33.9015172,20.2261128 34.2110793,20.9880486 L35.2465112,23.5378835 L35.2469964,43.6540578 C33.3726414,44.524911 31.0198722,45.827544 28.3784047,47.7501312 C22.5059432,52.0241679 18.9993515,58.8285899 18.9983811,65.9519844 C18.9974107,72.5949752 21.9591148,98.6388835 23.0488899,107.996544 C18.243884,108.086984 14.3423337,108.284883 11.6659314,108.458471 C9.32238107,108.610177 7.72459408,108.755076 6.79687811,108.849406 C6.2020142,108.910186 5.71049941,108.967562 5.33543432,109.020562 C1.19613254,109.605994 0.283457988,112.739801 0.101990533,113.686507 C-0.0401751479,114.431911 -0.0304710059,115.177315 0.112179882,115.88625 L5.7988071,152.107131 C6.04238107,154.224214 7.38931598,156.014544 9.50530414,156.981186 C10.139955,157.271471 10.8600024,157.502434 11.7717065,157.708599 C12.9706533,157.980406 14.5747479,158.21915 16.5388663,158.418994 C20.1706414,158.788049 24.7340142,159.000049 29.0601207,159.000049 C33.385742,159.000049 37.9491148,158.788049 41.5808899,158.418994 C43.5454935,158.21915 45.149103,157.980406 46.3480497,157.708599 C47.2597538,157.502434 47.9798012,157.271471 48.6144521,156.981186 C50.425245,156.154094 51.6664047,154.72115 52.1414225,152.998893 C56.7504047,152.930819 62.4084047,152.622058 67.0921089,152.17326 C70.0829254,151.887351 72.5084757,151.562544 74.301316,151.208076 C75.5240379,150.966416 76.4580615,150.713085 77.239245,150.410159 C81.2902391,148.840581 81.6051385,145.509361 81.6051385,144.5257 C81.6051385,144.283067 81.5896118,144.04092 81.5585586,143.800718" id="border" fill="#FFFFFF" sketch:type="MSShapeGroup"></path>
            <g id="fills" transform="translate(9.000000, 30.000000)" sketch:type="MSShapeGroup">
                <path d="M39.2650544,92.8455881 C33.1339775,92.1692303 26.6981905,91.8074688 20.059587,91.8074688 C13.4214686,91.8074688 6.98568166,92.1692303 0.854604734,92.8455881 L5.03078225,119.443808 C7.45875858,119.913515 13.3603325,120.436707 20.059587,120.436707 C26.7593266,120.436707 32.6609006,119.913515 35.0888769,119.443808 L39.2650544,92.8455881 Z" id="fill" fill="#FCA903"></path>
                <path d="M41.3004497,0.493914679 C39.1194438,0.493914679 36.9520237,0.514336697 34.7913964,0.545455963 L34.7918817,19.9118505 L32.5376095,20.3932266 C32.5264497,20.396144 29.1896805,21.1921165 24.399716,24.6784468 C20.7330059,27.3474101 18.5442367,31.5621257 18.5437515,35.9533459 C18.5432663,40.6703459 20.4433373,58.8264927 22.3201183,75.1213183 C26.5205562,75.208355 31.847645,75.473355 34.949574,75.6415936 C37.2014201,75.7631532 39.4755858,75.8978413 41.3528521,76.0213459 C42.2014793,76.0762908 42.889503,76.1249147 43.3654911,76.1613826 C43.6595266,76.1842358 43.8890296,76.2041716 44.0447811,76.2187587 C48.580497,76.6519972 51.213716,80.0196853 51.8114911,83.1646761 C52.0060592,84.189667 52.0138225,85.2287587 51.8338107,86.2532633 L47.4286154,114.310685 C54.4175385,114.024777 60.9033018,113.3703 63.8140592,112.784869 L59.6708757,80.3561624 L59.7126036,80.0060706 C59.755787,79.6394468 64.0586036,43.2483826 64.0576331,35.9431349 C64.0571479,31.5533734 61.8693491,27.339144 58.2050651,24.6711532 C53.4189822,21.1862817 50.0817278,20.3976028 50.0482485,20.3898229 L47.8323077,19.8841349 L47.809503,17.6017312 L47.8099882,0.545455963 C45.6493609,0.514336697 43.4814556,0.493914679 41.3004497,0.493914679" id="fill" fill="#E16E2C"></path>
            </g>
        </g>
    </g>
</svg>