<?xml version="1.0" encoding="UTF-8" standalone="no"?>
<svg width="85px" height="84px" viewBox="0 0 85 84" version="1.1" xmlns="http://www.w3.org/2000/svg" xmlns:xlink="http://www.w3.org/1999/xlink" xmlns:sketch="http://www.bohemiancoding.com/sketch/ns">
    <!-- Generator: Sketch 3.5.2 (25235) - http://www.bohemiancoding.com/sketch -->
    <title>promociones</title>
    <desc>Created with Sketch.</desc>
    <defs></defs>
    <g id="Page-1" stroke="none" stroke-width="1" fill="none" fill-rule="evenodd" sketch:type="MSPage">
        <g id="promociones" sketch:type="MSLayerGroup">
            <path d="M42.0293458,0 C39.0101869,0 36.1672839,1.4687809 34.4242173,3.92833708 L29.2700818,11.2022996 L20.4718049,9.69585768 C19.9459404,9.6056367 19.4109521,9.56011236 18.8817699,9.56011236 C16.1400584,9.56011236 13.5484755,10.7665075 11.7718166,12.8693184 C10.0001343,14.9667491 9.25073598,17.7217996 9.7160514,20.4288427 L11.2256308,29.2092472 L3.93693341,34.3522566 C1.47183995,36.0917004 0,38.9291086 0,41.9419925 C0,44.9548764 1.47183995,47.7918708 3.93693341,49.5313146 L11.2256308,54.6747378 L9.7160514,63.4547285 C9.25073598,66.1617715 10.0001343,68.9168221 11.7718166,71.013839 C13.5484755,73.1170637 16.1400584,74.3234588 18.8817699,74.3234588 C19.4109521,74.3234588 19.9459404,74.2779345 20.4718049,74.1877135 L29.2700818,72.6812715 L34.4238026,79.9552341 C36.1672839,82.4152041 39.0101869,83.8835712 42.0293458,83.8835712 C45.0485047,83.8835712 47.8914077,82.4152041 49.6344743,79.9552341 L54.7886098,72.6812715 L63.5868867,74.1877135 C64.1127512,74.2779345 64.6477395,74.3234588 65.1769217,74.3234588 C67.9186332,74.3234588 70.5102161,73.1170637 72.2872897,71.0142528 C74.0585572,68.9168221 74.8079556,66.1617715 74.3426402,63.4547285 L72.8330607,54.6747378 L80.1217582,49.5313146 C82.5868516,47.7918708 84.0586916,44.9548764 84.0586916,41.9419925 C84.0586916,38.9291086 82.5868516,36.0917004 80.1217582,34.3522566 L72.8330607,29.2092472 L74.3426402,20.4288427 C74.8079556,17.7222135 74.0585572,14.9667491 72.286875,12.8697322 C70.5102161,10.7665075 67.9186332,9.56011236 65.1769217,9.56011236 C64.6473248,9.56011236 64.1127512,9.60605056 63.5868867,9.69585768 L54.7886098,11.2022996 L49.6344743,3.92875094 C47.8914077,1.4687809 45.0485047,0 42.0293458,0 M42.0293458,4.859103 C43.4012383,4.859103 44.7731308,5.48402809 45.658972,6.73387828 L52.5856192,16.5091966 L64.4105199,14.4850187 C64.6697196,14.4403221 64.9251869,14.4192154 65.1769217,14.4192154 C67.8614019,14.4192154 70.0179439,16.8481461 69.5435047,19.6073352 L67.5146963,31.4072453 L77.3107886,38.3194963 C79.8156951,40.0874963 79.8156951,43.7964888 77.3107886,45.5640749 L67.5146963,52.4763258 L69.5435047,64.276236 C70.0179439,67.035839 67.8614019,69.4643558 65.1769217,69.4643558 C64.9256016,69.4643558 64.6693049,69.4432491 64.4105199,69.3989663 L52.5856192,67.3743745 L45.658972,77.1496929 C44.7731308,78.3999569 43.4012383,79.024882 42.0293458,79.024882 C40.6574533,79.024882 39.285146,78.3999569 38.3997196,77.1496929 L31.4726577,67.3743745 L19.6481717,69.3989663 C19.388972,69.4432491 19.1335047,69.4643558 18.8817699,69.4643558 C16.1972897,69.4643558 14.0407477,67.0354251 14.5151869,64.276236 L16.5439953,52.4763258 L6.74790304,45.5640749 C4.2429965,43.7964888 4.2429965,40.0874963 6.74790304,38.3194963 L16.5439953,31.4072453 L14.5151869,19.6073352 C14.0407477,16.8481461 16.1972897,14.4192154 18.8817699,14.4192154 C19.13309,14.4192154 19.3893867,14.4403221 19.6481717,14.4850187 L31.4730724,16.5091966 L38.3997196,6.73387828 C39.285146,5.48402809 40.6574533,4.859103 42.0293458,4.859103" id="border" fill="#FFFFFF" sketch:type="MSShapeGroup"></path>
            <path d="M32.2709404,64.4322715 L40.0838435,75.4586816 C40.4658002,75.9975243 41.0642407,76.306676 41.7257185,76.306676 C42.3871963,76.306676 42.9856367,75.9975243 43.3675935,75.4586816 L51.1804965,64.4322715 L64.5187091,66.7159382 C65.2311974,66.8376124 65.9366355,66.5760543 66.3994626,66.0276929 C66.6234112,65.762824 66.9779965,65.1991498 66.8403096,64.3983352 L64.5518867,51.0886723 L75.600847,43.2920075 C76.1412266,42.9108446 76.4510222,42.3136479 76.4510222,41.6531311 C76.4510222,40.9930281 76.1412266,40.3958315 75.6012617,40.0150824 L64.5518867,32.2180037 L66.8403096,18.907927 C66.9779965,18.1079401 66.6234112,17.5438521 66.3994626,17.2789831 C65.9370502,16.7310356 65.2399065,16.468236 64.517465,16.5907378 L51.1804965,18.8744045 L43.3675935,7.84799438 C42.9856367,7.30915169 42.3871963,7 41.7257185,7 C41.0642407,7 40.4658002,7.30915169 40.0838435,7.84799438 L32.2709404,18.8744045 L18.9327278,16.5907378 C18.2189953,16.4686498 17.5152161,16.7306217 17.0519743,17.2789831 C16.8284404,17.5438521 16.4734404,18.1075262 16.6111273,18.907927 L18.8995502,32.2180037 L7.85017523,40.0146685 C7.30979556,40.3958315 7,40.9930281 7,41.6531311 C7,42.3136479 7.30979556,42.9108446 7.84976051,43.2920075 L18.8995502,51.0886723 L16.6111273,64.3987491 C16.4734404,65.1991498 16.8284404,65.762824 17.0519743,66.0276929 C17.5143867,66.5756404 18.2115304,66.8380262 18.933972,66.7159382 L32.2709404,64.4322715 Z" id="fill" fill="#B1CA00" sketch:type="MSShapeGroup"></path>
        </g>
    </g>
</svg>