<?xml version="1.0" encoding="UTF-8" standalone="no"?>
<svg width="100px" height="21px" viewBox="0 0 100 21" version="1.1" xmlns="http://www.w3.org/2000/svg" xmlns:xlink="http://www.w3.org/1999/xlink" xmlns:sketch="http://www.bohemiancoding.com/sketch/ns">
    <!-- Generator: Sketch 3.4.4 (17249) - http://www.bohemiancoding.com/sketch -->
    <title>Artboard 3</title>
    <desc>Created with Sketch.</desc>
    <defs>
        <path id="path-1" d="M0,0.0515229358 L98.8581,0.0515229358 L98.8581,18 L0,18 L0,0.0515229358 Z"></path>
        <path id="path-3" d="M0,0.0515229358 L98.8581,0.0515229358 L98.8581,18 L0,18 L0,0.0515229358 Z"></path>
    </defs>
    <g id="Page-1" stroke="none" stroke-width="1" fill="none" fill-rule="evenodd" sketch:type="MSPage">
        <g id="Artboard-3" sketch:type="MSArtboardGroup">
            <g id="Page-1" sketch:type="MSLayerGroup" transform="translate(1.000000, 2.000000)">
                <g id="Group-3">
                    <mask id="mask-2" sketch:name="Clip 2" fill="white">
                        <use xlink:href="#path-1"></use>
                    </mask>
                    <g id="Clip-2"></g>
                    <path d="M6.5321685,0.051440367 L6.7405635,0.051440367 C8.5850985,0.051440367 10.2090285,1.35206422 11.6098785,3.95397248 C12.3299385,5.5543211 12.6909585,7.13617431 12.6909585,8.69755046 L12.6909585,9.29617431 C12.6909585,11.9682661 11.8182735,14.3099174 10.0686135,16.3191468 C9.0637635,17.4424128 7.6772685,18.0000826 5.9091285,18.0000826 L0.0824835,18.0000826 L-1.65000001e-05,17.8821743 L-1.65000001e-05,16.2611835 L0.0824835,16.1414587 L6.1173585,16.1414587 C8.6760135,16.1394771 10.3679235,14.4400459 11.1930885,11.0388716 C11.3311935,10.4567615 11.4013185,9.83716514 11.4013185,9.1762844 L11.4013185,8.81727523 C11.4013185,6.6549633 10.7205285,4.79254128 9.3629085,3.2336422 C8.4737235,2.35362385 7.5719985,1.91386239 6.6580635,1.91386239 L6.5321685,1.91386239 L6.4496685,1.79215596 L6.4496685,0.171330275 L6.5321685,0.051440367 Z" id="Fill-1" fill="#F50E35" sketch:type="MSShapeGroup" mask="url(#mask-2)"></path>
                </g>
                <path d="M25.0497885,9.63071009 L15.9365085,9.63071009 C15.2720535,9.63071009 14.9379285,9.92184771 14.9379285,10.5041229 C15.0204285,11.0038294 15.2720535,11.2536826 15.6868635,11.2536826 L25.8399735,11.2536826 L25.8399735,9.46342569 C25.5985785,9.57505872 25.3345785,9.63071009 25.0497885,9.63071009 L25.0497885,9.63071009 Z M13.8154335,5.67417798 L24.8826435,5.67417798 C25.8894735,5.67417798 26.5684485,6.1326 26.9210535,7.04729725 L27.0056985,7.54915046 L27.0056985,12.3379761 L26.9210535,12.420545 L15.6456135,12.420545 C14.7499935,12.420545 14.1269535,11.8795541 13.7720385,10.7954257 L13.7307885,10.4630037 C13.7307885,9.50471009 14.2734735,8.85225138 15.3547185,8.50513211 L15.9777585,8.46417798 L25.0497885,8.46417798 C25.5759735,8.38144404 25.8399735,8.11689358 25.8399735,7.67316881 C25.8399735,7.11748073 25.5078285,6.84071009 24.8413935,6.84071009 L13.8154335,6.84071009 L13.7307885,6.75615963 L13.7307885,5.75691193 L13.8154335,5.67417798 Z" id="Fill-4" fill="#F50E35" sketch:type="MSShapeGroup"></path>
                <path d="M43.5239805,6.84079266 L43.5239805,8.63121468 C43.8788955,8.51974679 44.2110405,8.46409541 44.5247055,8.46409541 L53.5533405,8.46409541 C54.1641705,8.46409541 54.4694205,8.15842569 54.4694205,7.54906789 C54.4694205,7.18774679 54.1909005,6.95044404 53.6361705,6.84079266 L43.5239805,6.84079266 Z M42.4429005,5.67426055 L53.5124205,5.67426055 C54.5251905,5.67426055 55.2040005,6.14506789 55.5506655,7.09081101 L55.6353105,7.59035229 L55.6353105,7.67325138 C55.6353105,8.62493945 55.1071455,9.26303119 54.0526305,9.58934312 L53.6792355,9.63079266 L44.5659555,9.63079266 C43.8995205,9.63079266 43.5673755,9.88048073 43.5673755,10.3803523 L43.5673755,10.5042055 C43.5673755,10.9624624 43.8437505,11.2124807 44.3988105,11.2537651 L55.5506655,11.2537651 L55.6353105,11.3383156 L55.6353105,12.3378936 L55.5506655,12.4204624 L44.2750605,12.4204624 C43.4477505,12.4204624 42.8534205,11.9620404 42.4861305,11.0473431 C42.4016505,10.9007009 42.3604005,10.5662972 42.3604005,10.0456183 L42.3604005,5.75682936 L42.4429005,5.67426055 Z" id="Fill-6" fill="#F50E35" sketch:type="MSShapeGroup"></path>
                <path d="M56.7577395,5.6741945 L67.8269295,5.6741945 C68.8524045,5.6741945 69.5457345,6.17373578 69.9067545,7.1734789 L69.9476745,7.63173578 L69.9067545,7.67318532 L68.8669245,7.67318532 C68.7822795,7.65237798 68.7408645,7.54091009 68.7408645,7.34059817 C68.5346145,7.00586422 68.2704495,6.84072661 67.9508445,6.84072661 L57.8388195,6.84072661 L57.8388195,12.3378275 L57.7563195,12.4203963 L56.7577395,12.4203963 L56.6749095,12.3378275 L56.6749095,5.75692844 L56.7577395,5.6741945 Z" id="Fill-8" fill="#F50E35" sketch:type="MSShapeGroup"></path>
                <path d="M85.667868,5.6741945 L96.695808,5.6741945 C97.694553,5.6741945 98.373363,6.1180844 98.734383,7.00586422 C98.816553,7.24366239 98.857968,7.59045138 98.857968,8.04672661 L98.857968,12.3378275 L98.775468,12.4203963 L97.776888,12.4203963 L97.694553,12.3378275 L97.694553,7.92303853 C97.694553,7.20023119 97.374618,6.84072661 96.737223,6.84072661 L86.748948,6.84072661 L86.748948,12.3378275 L86.666283,12.4203963 L85.667868,12.4203963 L85.585203,12.3378275 L85.585203,5.75692844 L85.667868,5.6741945 Z" id="Fill-10" fill="#00BAFF" sketch:type="MSShapeGroup"></path>
                <g id="Group-14">
                    <mask id="mask-4" sketch:name="Clip 13" fill="white">
                        <use xlink:href="#path-3"></use>
                    </mask>
                    <g id="Clip-13"></g>
                    <path d="M81.669192,2.88039633 C81.605172,2.18037798 82.120962,1.56078165 82.820727,1.49670826 C83.519997,1.43494679 84.138912,1.95116697 84.203097,2.64920367 C84.264972,3.34905688 83.750997,3.96848807 83.051727,4.03256147 C82.352292,4.09646972 81.733212,3.58024954 81.669192,2.88039633 L81.669192,2.88039633 Z M77.606727,2.88039633 C77.544687,2.18235963 78.060642,1.56078165 78.757767,1.49902018 C79.457697,1.43494679 80.076447,1.95116697 80.140302,2.65102018 C80.204157,3.34905688 79.688367,3.97063486 78.989097,4.03256147 C78.289827,4.09646972 77.670747,3.58024954 77.606727,2.88039633 L77.606727,2.88039633 Z M73.125327,2.88039633 C73.061472,2.18235963 73.577262,1.56078165 74.276532,1.49902018 C74.976132,1.43494679 75.595047,1.95116697 75.658902,2.65102018 C75.720942,3.34905688 75.207132,3.97063486 74.507862,4.03256147 C73.808262,4.09646972 73.189347,3.58024954 73.125327,2.88039633 L73.125327,2.88039633 Z M77.619102,9.94250642 C78.126642,9.17428624 78.396912,8.34826789 78.431892,7.61935046 L78.431892,7.32623119 C78.403182,6.65725872 78.155517,6.09760734 77.689227,5.78153394 C76.668042,5.08977248 74.980257,5.83124037 73.919472,7.43555229 C72.859017,9.04035963 72.828162,10.9047633 73.849512,11.594378 C74.870862,12.2863046 76.558482,11.5468183 77.619102,9.94250642 L77.619102,9.94250642 Z M28.582092,18.0000661 L28.582092,16.8477358 L78.431892,16.8477358 L78.431892,10.8015523 C78.401037,10.8387083 78.370017,10.878011 78.338997,10.9150018 C76.851522,12.6745431 74.466447,13.0938275 73.016097,11.8485248 C71.565582,10.6052037 71.596437,8.16463486 73.084242,6.40525872 C74.571552,4.64390092 76.956957,4.22478165 78.405162,5.46991927 C78.415227,5.47801101 78.423642,5.48428624 78.431892,5.49237798 L78.431892,5.45109358 L79.533762,5.45109358 L79.533762,16.8477358 L79.535907,16.8477358 L79.535907,18.0000661 L28.582092,18.0000661 Z" id="Fill-12" fill="#00BAFF" sketch:type="MSShapeGroup" mask="url(#mask-4)"></path>
                </g>
                <path d="M34.004256,3.16099817 L35.962311,3.16099817 C37.200141,3.16099817 38.438136,3.65475963 39.675966,4.64376881 C40.635441,5.62666789 41.182251,6.42378716 41.314251,7.03710826 L41.275146,7.07624587 L40.076256,7.07624587 C40.028901,7.07624587 39.855651,6.81004404 39.556341,6.27929174 C38.997321,5.42833761 38.025471,4.80907156 36.641121,4.41472294 C36.168561,4.34024587 35.595021,4.30308991 34.922316,4.30308991 C32.500116,4.30308991 30.874206,5.17666789 30.049041,6.92365872 C29.731416,7.45622752 29.570376,8.10274128 29.570376,8.86253945 C29.570376,10.6983743 30.568956,12.089989 32.566116,13.0421725 C33.172656,13.2443009 33.890736,13.3455303 34.724316,13.3455303 L35.242251,13.3455303 C37.012536,13.3455303 38.372136,12.7880257 39.317091,11.6730165 L35.522751,11.6730165 L35.522751,12.2429064 L35.442231,12.3193651 L34.482921,12.3193651 L34.404546,12.2429064 L34.404546,10.6858239 L34.482921,10.6095303 L41.233896,10.6095303 L41.275146,10.6465211 L41.314251,10.6465211 C40.736586,12.0797505 39.804006,13.1308514 38.518491,13.8018055 C37.699431,14.2831817 36.554496,14.5227963 35.083356,14.5227963 L34.843941,14.5227963 C32.161701,14.5227963 30.243081,13.5354385 29.091711,11.5592367 C28.586151,10.7107596 28.332381,9.7978789 28.332381,8.82307156 C28.332381,6.86569541 29.264961,5.27162202 31.128141,4.03672294 C32.141076,3.45230092 33.098571,3.16099817 34.004256,3.16099817" id="Fill-15" fill="#F50E35" sketch:type="MSShapeGroup"></path>
                <path d="M82.473897,5.75691193 L83.472642,5.75691193 L83.554977,5.83948073 L83.554977,12.420545 L83.472642,12.5031138 L82.473897,12.5031138 L82.391397,12.420545 L82.391397,5.83948073 L82.473897,5.75691193 Z" id="Fill-17" fill="#00BAFF" sketch:type="MSShapeGroup"></path>
            </g>
        </g>
    </g>
</svg>