<?xml version="1.0" encoding="UTF-8" standalone="no"?>
<svg width="448px" height="448px" viewBox="0 0 448 448" version="1.1" xmlns="http://www.w3.org/2000/svg" xmlns:xlink="http://www.w3.org/1999/xlink" xmlns:sketch="http://www.bohemiancoding.com/sketch/ns">
    <!-- Generator: Sketch 3.4.4 (17249) - http://www.bohemiancoding.com/sketch -->
    <title>Artboard 2</title>
    <desc>Created with Sketch.</desc>
    <defs>
        <path id="path-1" d="M0,1.11927907 L402.274884,1.11927907 L402.274884,305 L0,305 L0,1.11927907 Z"></path>
        <path id="path-3" d="M0,1.11927907 L402.274884,1.11927907 L402.274884,305 L0,305 L0,1.11927907 Z"></path>
        <path id="path-5" d="M1.05432746,7.41362791 C1.05432746,11.0495116 19.2588592,14.0285814 41.5629225,14.0285814 L41.5629225,14.0285814 C63.8854331,14.0285814 82.0729366,11.0495116 82.0729366,7.41362791 L82.0729366,7.41362791 C82.0729366,3.75646512 63.8854331,0.794418605 41.5629225,0.794418605 L41.5629225,0.794418605 C19.2588592,0.794418605 1.05432746,3.75646512 1.05432746,7.41362791"></path>
        <path id="path-7" d="M1.10825,4.5125814 C3.21974296,5.87869767 5.3298169,7.26183721 7.40583451,8.64639535 L7.40583451,8.64639535 C10.5645599,8.6634186 13.7417324,8.68186047 16.9004577,8.73434884 L16.9004577,8.73434884 C12.5525986,6.07304651 8.22318662,3.39472093 3.89377465,0.75327907 L3.89377465,0.75327907 C3.4964507,0.663906977 3.13744014,0.619930233 2.81816197,0.619930233 L2.81816197,0.619930233 C1.10257394,0.619930233 0.525035211,1.90944186 1.10825,4.5125814"></path>
        <path id="path-9" d="M6.0747993,2.94786047 C7.52928873,4.58067442 9.00222535,6.19362791 10.4396866,7.808 L10.4396866,7.808 C9.81815845,11.285 6.94465493,13.3973023 1.90573592,14.2300233 L1.90573592,14.2300233 C0.414352113,16.5707209 -0.0468274648,18.4517907 0.539225352,19.8888372 L0.539225352,19.8888372 C0.806,17.8134186 1.53253521,16.0557674 2.75572535,14.6016977 L2.75572535,14.6016977 C8.20473944,13.3774419 11.2385915,11.1615814 11.8601197,7.91439535 L11.8601197,7.91439535 C10.1927782,5.34246512 9.46482394,2.77195349 9.67767606,0.181581395 L9.67767606,0.181581395 C7.05108099,0.943372093 5.86194718,1.86546512 6.0747993,2.94786047"></path>
        <path id="path-11" d="M4.64159507,7.02776744 C4.28684155,10.2366512 3.93350704,13.4483721 3.57733451,16.6771163 L3.57733451,16.6771163 C6.34583099,16.3749535 9.11432746,16.0727907 11.8828239,15.7536047 L11.8828239,15.7536047 C11.6330775,12.7915581 11.4031972,9.81248837 11.1718979,6.832 L11.1718979,6.832 C7.90816549,4.81048837 4.64159507,2.78755814 1.37786268,0.764627907 L1.37786268,0.764627907 C2.45915141,2.85706977 3.54185915,4.93532558 4.64159507,7.02776744"></path>
        <path id="path-13" d="M1.90573592,1.4625814 C0.414352113,3.80327907 -0.0468274648,5.68434884 0.539225352,7.12139535 L0.539225352,7.12139535 C0.806,5.04597674 1.53253521,3.28832558 2.75572535,1.83425581 L2.75572535,1.83425581 C3.71497887,1.63990698 4.58483451,1.39165116 5.38232042,1.10793023 L5.38232042,1.10793023 L5.34684507,0.557511628 C4.35495423,0.949046512 3.19987676,1.23134884 1.90573592,1.4625814"></path>
        <path id="path-15" d="M1.19197183,0.397209302 C1.91992606,8.80669767 2.66632746,17.216186 3.40989085,25.6043953 L3.40989085,25.6043953 C3.40989085,28.5153721 23.0887782,30.8716744 47.3638521,30.8716744 L47.3638521,30.8716744 C71.6545352,30.8716744 91.3504507,28.5153721 91.3504507,25.6043953 L91.3504507,25.6043953 C92.0784049,17.216186 92.8049401,8.80669767 93.5499225,0.397209302 L93.5499225,0.397209302 C71.6914296,5.08002326 33.9669401,6.00353488 1.19197183,0.397209302"></path>
        <path id="path-17" d="M3.87532746,27.5918605 C18.8870775,29.721186 35.4058204,30.2162791 50.577919,29.1182791 L50.577919,29.1182791 L54.003419,2.49248837 C37.4477817,3.3252093 18.533743,2.74074419 0.488140845,0.378767442 L0.488140845,0.378767442 L3.87532746,27.5918605 Z"></path>
        <path id="path-19" d="M4.27123239,0.397209302 L0.686802817,29.8814884 C11.7593697,28.9225116 18.9807324,27.3790698 18.9807324,25.6214186 L18.9807324,25.6214186 C19.7086866,17.2332093 20.4352218,8.80669767 21.1802042,0.397209302 L21.1802042,0.397209302 L4.27123239,0.397209302 Z"></path>
        <path id="path-21" d="M2.45489437,0.397209302 L0.520778169,30.819186 C13.3146092,30.7142093 23.8380176,29.5608837 30.0646514,28.2486744 L30.0646514,28.2486744 L31.838419,0.397209302 L2.45489437,0.397209302 Z"></path>
        <path id="path-23" d="M1.21183803,2.24565116 L3.6071338,41.5367442 L33.9144366,41.5367442 L34.4806232,0.773139535 C19.7540951,0.967488372 7.58179225,1.51790698 1.21183803,2.24565116"></path>
        <path id="path-25" d="M0.676869718,1.99881395 C0.676869718,2.01583721 0.676869718,2.03427907 0.693897887,2.05130233 L0.693897887,2.05130233 L4.03,40.1181395 L6.71051761,40.1181395 L18.0129648,40.1181395 L15.7425423,0.0468139535 C6.46219014,0.543325581 0.676869718,1.23560465 0.676869718,1.99881395"></path>
        <path id="path-27" d="M0.522197183,41.5367442 L36.7893592,41.5367442 L40.1254613,3.4174186 C40.1254613,2.13925581 24.3871761,1.09374419 3.05939437,0.791581395 L3.05939437,0.791581395 L0.522197183,41.5367442 Z"></path>
        <path id="path-29" d="M0.830123239,40.1181395 L14.0851338,40.1181395 L17.4212359,1.99881395 C17.4212359,1.27106977 12.189331,0.612837209 3.63551408,0.117744186 L3.63551408,0.117744186 L0.830123239,40.1181395 Z"></path>
        <path id="path-31" d="M4.63733803,1.23134884 C2.33144014,1.81581395 1.05290845,2.43574419 1.05290845,3.12944186 L1.05290845,3.12944186 L1.05290845,3.14788372 C9.44495775,4.31823256 24.5645528,5.8247907 41.3145951,5.8247907 L41.3145951,5.8247907 C48.2535739,5.8247907 54.7455634,5.54248837 60.5323028,5.16797674 L60.5323028,5.16797674 C63.2284296,4.56648837 64.7723169,3.87562791 64.7723169,3.12944186 L64.7723169,3.12944186 C64.7723169,2.33076744 63.0510528,1.60302326 60.1051796,1.00011628 L60.1051796,1.00011628 C54.0899789,0.930604651 47.3652711,0.912162791 40.2687817,0.912162791 L40.2687817,0.912162791 C25.9296444,0.912162791 13.101757,1.0355814 4.63733803,1.23134884"></path>
        <path id="path-33" d="M0.676869718,3.38195349 C0.676869718,4.85304651 22.9270106,6.07730233 50.2018803,6.07730233 L50.2018803,6.07730233 C77.4923592,6.07730233 99.7240528,4.85304651 99.7240528,3.38195349 L99.7240528,3.38195349 C99.7240528,1.87397674 77.4923592,0.685186047 50.2018803,0.685186047 L50.2018803,0.685186047 C22.9270106,0.685186047 0.676869718,1.87397674 0.676869718,3.38195349"></path>
        <path id="path-35" d="M9.19379225,2.61874419 C2.96573944,2.70669767 0.0908169014,2.95637209 0.569024648,3.38053488 L0.569024648,3.38053488 L10.9335035,3.38053488 C10.7206514,3.15072093 10.5049613,2.92090698 10.3105563,2.68967442 L10.3105563,2.68967442 C13.3273803,2.49390698 17.4084648,2.7435814 22.5211725,3.43444186 L22.5211725,3.43444186 C26.0701268,3.32946512 29.0486373,2.79465116 31.4609613,1.82148837 L31.4609613,1.82148837 C28.4810317,2.1052093 25.4996831,2.40595349 22.5211725,2.68967442 L22.5211725,2.68967442 C17.7986937,1.99881395 13.1145282,1.27106977 8.41333451,0.578790698 L8.41333451,0.578790698 C8.66024296,1.27106977 8.92843662,1.94348837 9.19379225,2.61874419"></path>
        <path id="path-37" d="M0.81309507,3.89548837 C10.1629789,3.4174186 16.0022218,2.72513953 16.0022218,1.96334884 L16.0022218,1.96334884 C16.0022218,1.19872093 10.1629789,0.507860465 0.81309507,0.00993023256 L0.81309507,0.00993023256 L0.81309507,3.89548837 Z"></path>
        <path id="path-39" d="M0.407257042,5.65597674 C5.89174648,9.98413953 12.4561056,11.4921163 20.1386479,10.179907 L20.1386479,10.179907 C18.4713063,7.97965116 16.8039648,5.78081395 15.1352042,3.58055814 L15.1352042,3.58055814 C12.1283134,1.78460465 9.50313732,0.886627907 7.26677113,0.886627907 L7.26677113,0.886627907 C4.28826056,0.885209302 1.99939085,2.47546512 0.407257042,5.65597674"></path>
        <path id="path-41" d="M7.27954225,1.40583721 C5.13257394,1.90234884 2.89762676,2.64853488 0.553415493,3.6585814 L0.553415493,3.6585814 C0.607338028,4.11962791 0.662679577,4.52818605 0.766267606,4.93532558 L0.766267606,4.93532558 C5.93005986,5.50418605 11.3606268,5.71555814 17.0749965,5.57369767 L17.0749965,5.57369767 C18.2811585,4.9722093 19.5767183,4.29695349 20.9262007,3.55218605 L20.9262007,3.55218605 C15.3892077,2.23997674 11.184669,1.44130233 8.30832746,1.21006977 L8.30832746,1.21006977 C7.95357394,1.26397674 7.61726761,1.35334884 7.27954225,1.40583721"></path>
        <path id="path-43" d="M0.892559859,2.31090698 C1.0883838,2.77195349 1.31826408,3.19895349 1.54814437,3.60609302 L1.54814437,3.60609302 C6.72896479,4.13806977 12.1566937,4.31539535 17.837007,4.12104651 L17.837007,4.12104651 C18.7778134,3.60609302 19.7370669,2.98474419 20.7289577,2.31090698 L20.7289577,2.31090698 C17.2069648,1.48527907 13.7913979,1.07388372 10.4850951,1.07388372 L10.4850951,1.07388372 C7.17737324,1.07388372 3.97891549,1.48527907 0.892559859,2.31090698"></path>
        <path id="path-45" d="M4.23291901,3.08404651 C5.19075352,5.08853488 0.275288732,9.77276744 6.29048944,12.4326512 L6.29048944,12.4326512 C9.23494366,14.2612326 18.4996866,13.6398837 17.2381831,15.2712791 L17.2381831,15.2712791 C15.2331162,17.453093 9.8735,19.032 1.14514437,20.0434651 L1.14514437,20.0434651 C13.9219472,21.586907 21.052493,19.4405581 22.5084014,13.6044186 L22.5084014,13.6044186 C16.6890246,4.94525581 11.9608697,0.621348837 8.33812676,0.621348837 L8.33812676,0.621348837 C6.75876408,0.621348837 5.39083451,1.44272093 4.23291901,3.08404651"></path>
        <path id="path-47" d="M15.316838,0.726325581 C14.1120951,2.90813953 15.0869577,5.79925581 22.468669,8.92160465 L22.468669,8.92160465 C27.2777077,11.2452791 30.8422711,13.3746047 28.8925458,15.8046744 L28.8925458,15.8046744 C25.3620387,19.0149767 16.0277641,20.2037674 0.892559859,19.3341628 L0.892559859,19.3341628 C2.06324648,20.5399767 8.78937324,21.0208837 21.1007394,20.7173023 L21.1007394,20.7173023 C31.4822465,19.8122326 35.0127535,16.2302558 31.6241479,9.98697674 L31.6241479,9.98697674 C29.2912887,3.68553488 24.8738979,0.516372093 18.3606232,0.516372093 L18.3606232,0.516372093 C17.3928556,0.516372093 16.3782606,0.585883721 15.316838,0.726325581"></path>
        <path d="M6.40259155,1.73211628 C3.50922183,4.57074419 1.59355282,7.81651163 0.688221831,11.4878605 L0.688221831,11.4878605 C0.706669014,12.8908605 2.32008803,14.5406977 5.53273592,16.401907 L5.53273592,16.401907 C7.71517958,15.9593023 7.82160563,14.7889535 5.85201408,12.8908605 L5.85201408,12.8908605 C4.00729577,10.4068837 4.5039507,9.28902326 7.34197887,9.57274419 L7.34197887,9.57274419 C7.23555282,13.5987442 9.65071479,15.020186 14.5463134,13.7590465 L14.5463134,13.7590465 C24.0395176,12.0226744 28.0496514,10.3714186 26.596581,8.79251163 L26.596581,8.79251163 C23.2576408,7.71011628 25.9197113,6.5567907 34.5274507,5.33253488 L34.5274507,5.33253488 C35.8925423,5.26302326 36.6573908,5.51127907 36.8319296,6.09716279 L36.8319296,6.09716279 C37.4534577,8.1725814 33.3383169,9.53869767 37.6478627,11.2764884 L37.6478627,11.2764884 C40.2404014,12.3234186 45.2608732,12.3588837 52.696507,11.3474186 L52.696507,11.3474186 C55.4820317,8.33146512 56.6356901,5.61767442 56.2099859,3.25853488 L56.2099859,3.25853488 C55.6594085,2.49674419 55.0747746,1.75055814 54.4716937,1.0057907 L54.4716937,1.0057907 C40.5582606,1.71651163 24.5375915,1.96334884 6.40259155,1.73211628 M14.2994049,20.1101395 C11.4060352,20.4477674 13.1088521,25.3249302 7.89255634,22.523186 L7.89255634,22.523186 C8.0699331,23.0906279 8.24730986,23.6580698 8.42468662,24.2425349 L8.42468662,24.2425349 C9.86214789,25.1121395 11.3180563,25.200093 12.7711268,24.4567442 L12.7711268,24.4567442 C13.4465775,24.1191163 14.2625106,23.0551628 14.9535704,23.072186 L14.9535704,23.072186 C15.3821127,23.072186 15.9667465,23.2310698 16.7472042,23.499186 L16.7472042,23.499186 C17.9519472,23.6765116 18.6628732,23.499186 18.9112007,22.9842326 L18.9112007,22.9842326 C17.1019577,23.2509302 17.2083838,21.1216047 15.9667465,20.4293256 L15.9667465,20.4293256 C15.5779366,20.2122791 15.1068239,20.1044651 14.5420563,20.1044651 L14.5420563,20.1044651 C14.4625915,20.1044651 14.3817077,20.1058837 14.2994049,20.1101395 M21.059588,22.257907 C20.5444859,22.8962791 27.3756197,21.5656279 29.220338,21.3343953 L29.220338,21.3343953 C27.4820458,21.0492558 26.098507,20.7853953 25.0683028,20.5726047 L25.0683028,20.5726047 C23.4903592,20.7485116 22.1408768,21.3173721 21.059588,22.257907" id="path-49"></path>
        <path d="M12.2248063,4.23453488 C11.3379225,6.59509302 7.47110915,8.33288372 0.691059859,9.46918605 L0.691059859,9.46918605 C1.88019366,10.1061395 3.67240845,10.1061395 6.03222887,9.50323256 L6.03222887,9.50323256 C15.5254331,7.76686047 19.5355669,6.11560465 18.0824965,4.53669767 L18.0824965,4.53669767 C14.7435563,3.45430233 17.4056268,2.30097674 26.0133662,1.07672093 L26.0133662,1.07672093 C26.195,1.07672093 26.3482535,1.06253488 26.498669,1.07530233 L26.498669,1.07530233 C24.1615528,0.861093023 22.1096585,0.75327907 20.3458239,0.75327907 L20.3458239,0.75327907 C14.5392183,0.75327907 11.8303204,1.91086047 12.2248063,4.23453488 M26.5256303,1.07672093 C26.5171162,1.07672093 26.5071831,1.07530233 26.498669,1.07530233 L26.498669,1.07530233 C26.5071831,1.07530233 26.5171162,1.07672093 26.5256303,1.07672093" id="path-51"></path>
        <path id="path-53" d="M8.13804577,0.388697674 C5.31562676,0.459627907 3.08209859,0.903651163 1.41191901,1.75481395 L1.41191901,1.75481395 C-2.5088169,3.58197674 5.03182394,5.99502326 6.80559155,6.63339535 L6.80559155,6.63339535 C9.48610915,7.60797674 11.5266514,8.08746512 10.977493,4.22034884 L10.977493,4.22034884 C10.7632218,2.8357907 11.8459296,3.01311628 14.1702746,4.77076744 L14.1702746,4.77076744 C16.2292641,5.99502326 17.0806725,5.07293023 15.9624894,3.2627907 L15.9624894,3.2627907 C14.5136761,0.886627907 11.587669,0.377348837 8.866,0.377348837 L8.866,0.377348837 C8.62192958,0.377348837 8.37785915,0.381604651 8.13804577,0.388697674"></path>
        <path id="path-55" d="M7.90674648,0.388697674 C5.15669718,0.442604651 2.9927007,0.885209302 1.37644366,1.71934884 L1.37644366,1.71934884 C-2.42083803,3.51104651 4.88992254,5.83330233 6.61118662,6.45606977 L6.61118662,6.45606977 C9.20230634,7.39660465 11.2073732,7.87467442 10.6582148,4.11395349 L10.6582148,4.11395349 C10.4623908,2.76627907 11.5096232,2.92516279 13.7445704,4.64451163 L13.7445704,4.64451163 C15.7496373,5.83330233 16.6024648,4.92965116 15.5013099,3.1734186 L15.5013099,3.1734186 C14.0893908,0.869604651 11.2669718,0.377348837 8.63753873,0.375930233 L8.63753873,0.375930233 C8.3920493,0.375930233 8.14797887,0.380186047 7.90674648,0.388697674"></path>
        <path id="path-57" d="M7.90674648,0.53055814 C5.29859859,0.583046512 3.22258099,1.01004651 1.67869366,1.80872093 L1.67869366,1.80872093 C-1.95965845,3.52806977 5.03182394,5.74534884 6.68355634,6.33123256 L6.68355634,6.33123256 C9.14980282,7.23488372 11.0668908,7.69734884 10.5333415,4.09551163 L10.5333415,4.09551163 C10.3545458,2.80032558 11.3492746,2.96062791 13.496243,4.59344186 L13.496243,4.59344186 C15.413331,5.74534884 16.2093979,4.89418605 15.1820317,3.19186047 L15.1820317,3.19186047 C13.8197782,0.976 11.0754049,0.522046512 8.52117958,0.522046512 L8.52117958,0.522046512 C8.31542254,0.522046512 8.10966549,0.524883721 7.90674648,0.53055814"></path>
        <path id="path-59" d="M3.22258099,1.68246512 C3.02675704,2.14493023 2.49604577,2.4102093 1.66166549,2.57051163 L1.66166549,2.57051163 C0.418609155,3.15497674 1.36083451,3.52806977 4.44577113,3.68695349 L4.44577113,3.68695349 C5.47597535,3.70681395 6.80559155,4.23737209 8.47577113,5.28430233 L8.47577113,5.28430233 C8.75815493,5.67583721 9.14980282,5.65739535 9.60956338,5.23039535 L9.60956338,5.23039535 C9.98276408,4.46860465 9.76991197,3.77632558 8.91992254,3.12093023 L8.91992254,3.12093023 C8.47577113,2.92516279 8.13804577,2.60597674 7.94364085,2.16337209 L7.94364085,2.16337209 C7.85140493,1.79027907 8.58077817,1.84276744 10.072162,2.32083721 L10.072162,2.32083721 C11.2612958,2.65846512 11.7565317,2.6244186 11.685581,2.30523256 L11.685581,2.30523256 C10.675243,1.59451163 9.43218662,1.13204651 7.92519366,0.903651163 L7.92519366,0.903651163 C4.96087324,0.974581395 3.39995775,1.22283721 3.22258099,1.68246512"></path>
        <path id="path-61" d="M1.16359155,1.60018605 C0.896816901,4.26006977 1.83620423,7.31148837 4.00161972,10.682093 L4.00161972,10.682093 C4.21589085,16.8019535 5.06588028,20.2959767 6.57429225,21.1840233 L6.57429225,21.1840233 C7.90532746,19.817907 8.77660211,18.6291163 9.20088732,17.6715581 L9.20088732,17.6715581 C8.89863732,17.2800233 7.76342606,14.4073488 5.77680634,9.06772093 L5.77680634,9.06772093 C4.07257042,7.48881395 2.88343662,4.65018605 2.19237676,1.15616279 L2.19237676,1.15616279 C2.16967254,1.15616279 2.14696831,1.15474419 2.1256831,1.15474419 L2.1256831,1.15474419 C1.77518662,1.15474419 1.4303662,1.29802326 1.16359155,1.60018605"></path>
        <path id="path-63" d="M0,1.11927907 L402.274884,1.11927907 L402.274884,305 L0,305 L0,1.11927907 Z"></path>
    </defs>
    <g id="Page-1" stroke="none" stroke-width="1" fill="none" fill-rule="evenodd" sketch:type="MSPage">
        <g id="Artboard-2" sketch:type="MSArtboardGroup">
            <g id="Page-1" sketch:type="MSLayerGroup" transform="translate(23.000000, 72.000000)">
                <g id="Group-29">
                    <path d="M29.8269665,83.4634628 C29.9504208,83.3570674 30.1277975,83.3925326 30.2356426,83.5173698 C49.7896567,108.829533 83.2897412,155.305858 107.652794,191.793788 L107.688269,191.847695 C107.990519,192.308742 108.149449,192.85916 108.149449,193.426602 C108.007548,204.514416 107.848618,215.600812 107.581843,226.705649 C106.216752,278.609556 101.05154,290.45916 68.5107095,301.722881 C114.804625,302.291742 94.5936074,302.042067 150.96678,302.805277 C151.12429,302.805277 151.250583,302.928695 151.250583,303.087579 C151.267611,303.2493 151.12429,303.372719 150.96678,303.372719 C94.3637271,304.152951 117.198502,303.850788 59.5127412,304.560091 C58.891213,304.578533 58.3065792,304.188416 58.0937271,303.567067 C57.8269525,302.786835 58.2540757,301.954114 59.0345335,301.687416 L59.0700088,301.687416 C96.9349806,289.093044 102.365548,281.801416 102.613875,226.6333 C102.667798,215.901556 102.490421,205.134347 102.3471,194.367137 C77.1681144,158.570067 46.1881989,111.011347 29.7560158,83.8535791 C29.6850651,83.7117186 29.7035123,83.5514163 29.8269665,83.4634628 M175.168065,86.4255093 C146.08679,128.129649 124.899491,161.92223 114.644276,179.715788 C128.18309,162.952137 153.503977,128.98223 182.816551,85.2721837 L185.814928,80.8021605 L180.492206,80.8560674 C158.046241,81.1227651 126.762657,81.9739279 105.239051,83.6762535 C125.291139,85.2721837 154.372414,86.143207 175.168065,86.4255093" id="Fill-1" fill="#FFFFFF" sketch:type="MSShapeGroup"></path>
                    <path d="M48.7245447,97.9383372 C55.503175,93.5208023 62.8848863,89.1401512 76.0859743,89.1401512 C104.033457,89.1401512 104.033457,106.718081 131.997967,106.718081 C146.548538,106.718081 153.166819,102.33743 160.352707,97.9383372 C134.624562,135.579593 120.09102,158.978058 110.207587,175.758733 C109.552002,176.841128 108.415372,177.514965 107.156707,177.567453 C105.91365,177.602919 104.724517,176.982988 104.01501,175.9545 C85.5976257,148.849221 64.9069813,119.703988 48.7245447,97.9383372" id="Fill-3" fill="#00BAFF" sketch:type="MSShapeGroup"></path>
                    <path d="M106.925549,169.816198 C114.891894,160.893174 126.673968,142.356267 131.30563,130.844291 C122.344556,139.997128 111.219486,157.682872 106.925549,169.816198" id="Fill-5" fill="#FFFFFF" sketch:type="MSShapeGroup"></path>
                    <path d="M98.2479944,145.869584 L98.6041669,146.366095 L98.106093,146.720747 L93.2800261,150.020421 L92.87135,150.304142 L92.6045754,149.895584 C91.0635261,147.624398 87.1229239,141.788258 84.9575085,138.382188 C87.1229239,141.061933 90.9017585,146.046909 93.1040683,148.938026 L96.9183782,146.099398 C83.1837408,127.437653 72.2005718,111.295351 67.3205824,103.649072 C72.9640014,110.692444 84.7446563,126.392142 98.2479944,145.869584" id="Fill-7" fill="#FFFFFF" sketch:type="MSShapeGroup"></path>
                    <g id="Group-11">
                        <mask id="mask-2" sketch:name="Clip 10" fill="white">
                            <use xlink:href="#path-1"></use>
                        </mask>
                        <g id="Clip-10"></g>
                        <path d="M31.4594004,58.5215558 C32.7734074,57.5824395 34.5996785,57.8831837 35.5404849,59.1968116 L56.9761116,89.1747651 C55.1129461,89.9734395 53.3562067,90.8600674 51.670418,91.8190442 L32.4896046,64.9790442 L3.4054919,85.7686953 L-0.000141901408,80.9965093 L31.4594004,58.5215558 Z" id="Fill-9" fill="#FFFFFF" sketch:type="MSShapeGroup" mask="url(#mask-2)"></path>
                    </g>
                    <path d="M311.424352,52.9884302 C343.827538,50.7527093 386.5725,50.3455698 399.471338,50.1668256 L402.258281,50.1313605 L402.27389,52.9884302 C402.434239,77.4678721 382.027398,96.4842674 357.1535,105.760523 C354.382165,125.433733 344.714422,147.376709 327.093105,155.872733 C343.170535,145.034593 351.065929,123.216453 352.537447,103.756035 L352.645292,102.301965 L354.081334,101.716081 C374.506623,93.4498721 394.645271,77.697686 396.508436,55.7547093 C386.731429,55.6298721 343.647324,55.2057093 311.424352,52.9884302 M265.503637,105.725058 C268.344503,135.207919 285.093126,161.088942 308.549429,162.968593 C308.691331,175.599849 308.853098,188.229686 308.888574,200.841081 C309.101426,284.958663 304.183123,285.384244 266.905623,300.410105 L266.871567,300.427128 C266.197535,300.693826 265.875419,301.475477 266.143612,302.149314 C266.356464,302.662849 266.853119,302.983453 267.38525,302.983453 L355.430817,301.935105 C355.608193,301.935105 355.733067,301.811686 355.733067,301.652802 C355.733067,301.4925 355.608193,301.369081 355.430817,301.369081 L274.463292,300.410105 C309.064531,287.231267 312.278598,278.733826 313.767144,200.894988 L314.316302,160.166849 C314.336169,158.587942 313.076084,157.292756 311.495302,157.274314 L311.424352,157.274314 C294.444429,157.150895 274.747095,138.843802 270.382207,103.739012 L270.382207,103.614174 C270.260172,102.675058 269.620197,101.928872 268.767369,101.628128 C246.287348,93.6101744 224.850302,76.8295 223.662588,52.9884302 C223.64556,52.809686 223.520686,52.6862674 223.360338,52.7032907 C223.201408,52.7032907 223.076535,52.8281279 223.076535,52.9884302 C221.817869,77.2366395 242.648996,96.1296163 265.503637,105.725058" id="Fill-12" fill="#FFFFFF" sketch:type="MSShapeGroup"></path>
                    <path d="M234.043811,67.3739326 C243.146786,62.9209326 253.472952,58.5402814 271.165219,58.5402814 C309.864571,58.5402814 309.864571,76.2090023 348.563924,76.2090023 C368.702571,76.2090023 377.77149,71.8084907 387.778378,67.3739326 C379.579314,84.0482116 358.908536,93.4507233 351.901445,96.2879326 C348.829279,97.5306302 347.67704,97.6724907 347.214441,98.381793 C346.77029,99.038607 346.933476,100.208956 346.699339,103.312863 C344.200455,136.501119 329.23979,151.8107 313.678881,151.722747 C297.22967,151.651816 280.089399,134.427119 276.204138,103.012119 L276.18711,102.904305 C275.794043,99.7833744 273.718026,97.1745605 270.738096,96.110607 C255.567417,90.7000488 241.567424,81.918886 234.043811,67.3739326" id="Fill-14" fill="#FF0030" sketch:type="MSShapeGroup"></path>
                    <path d="M313.697045,145.869584 C329.773055,148.7607 342.920221,126.071537 340.864069,102.870258 C337.136319,118.124514 332.025031,143.066421 313.697045,145.869584" id="Fill-16" fill="#FFFFFF" sketch:type="MSShapeGroup"></path>
                    <path d="M225.472824,45.1652512 C225.472824,53.2371116 232.020155,59.7995767 240.112792,59.7995767 C248.185563,59.7995767 254.751342,53.2371116 254.751342,45.1652512 C254.751342,37.0749488 248.185563,30.5309256 240.112792,30.5309256 C232.020155,30.5309256 225.472824,37.0749488 225.472824,45.1652512" id="Fill-18" fill="#FF0030" sketch:type="MSShapeGroup"></path>
                    <path d="M240.11336,56.1276605 C250.775832,59.9422884 258.03267,42.2381023 247.866853,37.4134279 C251.664135,45.4313814 248.557913,53.1301488 240.11336,56.1276605" id="Fill-20" fill="#FFFFFF" sketch:type="MSShapeGroup"></path>
                    <g id="Group-24">
                        <mask id="mask-4" sketch:name="Clip 23" fill="white">
                            <use xlink:href="#path-3"></use>
                        </mask>
                        <g id="Clip-23"></g>
                        <path d="M220.611707,11.1242721 L263.410591,1.11885349 C259.702707,3.90357442 255.780552,7.48696977 254.023813,12.2761791 C248.594665,13.6422953 245.417493,16.6766907 243.643725,20.9339233 C238.550883,21.8560163 234.256947,24.5882488 231.027271,29.1646674 C225.456221,29.6611791 220.930986,32.0203186 217.594883,35.9753884 C213.035591,35.3554581 208.812605,36.6151791 204.89045,40.6241558 C199.887007,39.7361093 194.811193,41.3519 190.552732,43.1776442 L220.611707,11.1242721 Z" id="Fill-22" fill="#FFBC00" sketch:type="MSShapeGroup" mask="url(#mask-4)"></path>
                    </g>
                    <path d="M218.641123,14.8134953 C216.352253,21.2170767 210.799651,31.5587047 206.859049,36.9337977 C209.132309,30.6195884 214.630989,20.2765419 218.641123,14.8134953 M220.238932,14.2276116 C220.593686,19.3189837 219.528006,28.0292163 217.965672,32.8538907 C217.610918,27.8348674 218.660989,19.106193 220.238932,14.2276116 M221.924721,13.3764488 C224.850728,16.5002163 228.490499,22.8144256 229.730718,26.9113558 C226.804711,23.789007 223.147911,17.4747977 221.924721,13.3764488 M223.485637,12.3479605 C228.525975,13.4289372 236.598746,16.888914 240.769228,19.7091 C235.818288,18.6451465 227.725651,15.2220535 223.485637,12.3479605 M249.855175,12.1181465 C243.235475,10.9279372 231.524351,10.5207977 224.799644,11.2655651 C231.504485,12.4727977 243.217027,12.8614953 249.855175,12.1181465" id="Fill-25" fill="#FFFFFF" sketch:type="MSShapeGroup"></path>
                    <path d="M208.42039,288.845214 C227.212393,288.845214 242.472471,291.576028 242.472471,294.929609 C242.472471,298.280353 227.212393,301.012586 208.42039,301.012586 C189.59433,301.012586 174.3527,298.280353 174.3527,294.929609 C174.3527,291.576028 189.59433,288.845214 208.42039,288.845214" id="Fill-27" fill="#4A4A49" sketch:type="MSShapeGroup"></path>
                </g>
                <g id="Group-32" transform="translate(166.024648, 285.139535)">
                    <mask id="mask-6" sketch:name="Clip 31" fill="white">
                        <use xlink:href="#path-5"></use>
                    </mask>
                    <g id="Clip-31"></g>
                    <path d="M1.05432746,7.41362791 C1.05432746,11.0495116 19.2588592,14.0285814 41.5629225,14.0285814 L41.5629225,14.0285814 C63.8854331,14.0285814 82.0729366,11.0495116 82.0729366,7.41362791 L82.0729366,7.41362791 C82.0729366,3.75646512 63.8854331,0.794418605 41.5629225,0.794418605 L41.5629225,0.794418605 C19.2588592,0.794418605 1.05432746,3.75646512 1.05432746,7.41362791" id="Fill-30" sketch:type="MSShapeGroup" mask="url(#mask-6)"></path>
                </g>
                <path d="M208.012423,296.402405 C230.317906,296.402405 248.523856,293.687195 248.523856,290.369079 C248.523856,287.03394 230.317906,284.321567 208.012423,284.321567 C185.691332,284.321567 167.502409,287.03394 167.502409,290.369079 C167.502409,293.687195 185.691332,296.402405 208.012423,296.402405" id="Fill-33" fill="#000000" sketch:type="MSShapeGroup"></path>
                <g id="Group-37" transform="translate(221.366197, 214.209302)">
                    <mask id="mask-8" sketch:name="Clip 36" fill="white">
                        <use xlink:href="#path-7"></use>
                    </mask>
                    <g id="Clip-36"></g>
                    <path d="M1.10825,4.5125814 C3.21974296,5.87869767 5.3298169,7.26183721 7.40583451,8.64639535 L7.40583451,8.64639535 C10.5645599,8.6634186 13.7417324,8.68186047 16.9004577,8.73434884 L16.9004577,8.73434884 C12.5525986,6.07304651 8.22318662,3.39472093 3.89377465,0.75327907 L3.89377465,0.75327907 C3.4964507,0.663906977 3.13744014,0.619930233 2.81816197,0.619930233 L2.81816197,0.619930233 C1.10257394,0.619930233 0.525035211,1.90944186 1.10825,4.5125814" id="Fill-35" sketch:type="MSShapeGroup" mask="url(#mask-8)"></path>
                </g>
                <g id="Group-40" transform="translate(167.443662, 202.860465)">
                    <mask id="mask-10" sketch:name="Clip 39" fill="white">
                        <use xlink:href="#path-9"></use>
                    </mask>
                    <g id="Clip-39"></g>
                    <path d="M6.0747993,2.94786047 C7.52928873,4.58067442 9.00222535,6.19362791 10.4396866,7.808 L10.4396866,7.808 C9.81815845,11.285 6.94465493,13.3973023 1.90573592,14.2300233 L1.90573592,14.2300233 C0.414352113,16.5707209 -0.0468274648,18.4517907 0.539225352,19.8888372 L0.539225352,19.8888372 C0.806,17.8134186 1.53253521,16.0557674 2.75572535,14.6016977 L2.75572535,14.6016977 C8.20473944,13.3774419 11.2385915,11.1615814 11.8601197,7.91439535 L11.8601197,7.91439535 C10.1927782,5.34246512 9.46482394,2.77195349 9.67767606,0.181581395 L9.67767606,0.181581395 C7.05108099,0.943372093 5.86194718,1.86546512 6.0747993,2.94786047" id="Fill-38" sketch:type="MSShapeGroup" mask="url(#mask-10)"></path>
                </g>
                <g id="Group-43" transform="translate(180.214789, 200.023256)">
                    <mask id="mask-12" sketch:name="Clip 42" fill="white">
                        <use xlink:href="#path-11"></use>
                    </mask>
                    <g id="Clip-42"></g>
                    <path d="M4.64159507,7.02776744 C4.28684155,10.2366512 3.93350704,13.4483721 3.57733451,16.6771163 L3.57733451,16.6771163 C6.34583099,16.3749535 9.11432746,16.0727907 11.8828239,15.7536047 L11.8828239,15.7536047 C11.6330775,12.7915581 11.4031972,9.81248837 11.1718979,6.832 L11.1718979,6.832 C7.90816549,4.81048837 4.64159507,2.78755814 1.37786268,0.764627907 L1.37786268,0.764627907 C2.45915141,2.85706977 3.54185915,4.93532558 4.64159507,7.02776744" id="Fill-41" sketch:type="MSShapeGroup" mask="url(#mask-12)"></path>
                </g>
                <g id="Group-46" transform="translate(167.443662, 215.627907)">
                    <mask id="mask-14" sketch:name="Clip 45" fill="white">
                        <use xlink:href="#path-13"></use>
                    </mask>
                    <g id="Clip-45"></g>
                    <path d="M1.90573592,1.4625814 C0.414352113,3.80327907 -0.0468274648,5.68434884 0.539225352,7.12139535 L0.539225352,7.12139535 C0.806,5.04597674 1.53253521,3.28832558 2.75572535,1.83425581 L2.75572535,1.83425581 C3.71497887,1.63990698 4.58483451,1.39165116 5.38232042,1.10793023 L5.38232042,1.10793023 L5.34684507,0.557511628 C4.35495423,0.949046512 3.19987676,1.23134884 1.90573592,1.4625814" id="Fill-44" sketch:type="MSShapeGroup" mask="url(#mask-14)"></path>
                </g>
                <path d="M207.711592,194.544037 C236.811314,194.544037 260.518782,191.990549 260.518782,188.903665 C260.518782,185.79834 236.811314,183.263293 207.711592,183.263293 C178.628899,183.263293 154.922849,185.79834 154.922849,188.903665 C154.922849,191.990549 178.628899,194.544037 207.711592,194.544037 L207.711592,194.544037 Z" id="Stroke-47" stroke="#4A4A49" stroke-width="0.03" sketch:type="MSShapeGroup"></path>
                <g id="Group-51" transform="translate(160.348592, 263.860465)">
                    <mask id="mask-16" sketch:name="Clip 50" fill="white">
                        <use xlink:href="#path-15"></use>
                    </mask>
                    <g id="Clip-50"></g>
                    <path d="M1.19197183,0.397209302 C1.91992606,8.80669767 2.66632746,17.216186 3.40989085,25.6043953 L3.40989085,25.6043953 C3.40989085,28.5153721 23.0887782,30.8716744 47.3638521,30.8716744 L47.3638521,30.8716744 C71.6545352,30.8716744 91.3504507,28.5153721 91.3504507,25.6043953 L91.3504507,25.6043953 C92.0784049,17.216186 92.8049401,8.80669767 93.5499225,0.397209302 L93.5499225,0.397209302 C71.6914296,5.08002326 33.9669401,6.00353488 1.19197183,0.397209302" id="Fill-49" sketch:type="MSShapeGroup" mask="url(#mask-16)"></path>
                </g>
                <g id="Group-54" transform="translate(170.281690, 265.279070)">
                    <mask id="mask-18" sketch:name="Clip 53" fill="white">
                        <use xlink:href="#path-17"></use>
                    </mask>
                    <g id="Clip-53"></g>
                    <path d="M3.87532746,27.5918605 C18.8870775,29.721186 35.4058204,30.2162791 50.577919,29.1182791 L50.577919,29.1182791 L54.003419,2.49248837 C37.4477817,3.3252093 18.533743,2.74074419 0.488140845,0.378767442 L0.488140845,0.378767442 L3.87532746,27.5918605 Z" id="Fill-52" sketch:type="MSShapeGroup" mask="url(#mask-18)"></path>
                </g>
                <g id="Group-57" transform="translate(232.718310, 263.860465)">
                    <mask id="mask-20" sketch:name="Clip 56" fill="white">
                        <use xlink:href="#path-19"></use>
                    </mask>
                    <g id="Clip-56"></g>
                    <path d="M4.27123239,0.397209302 L0.686802817,29.8814884 C11.7593697,28.9225116 18.9807324,27.3790698 18.9807324,25.6214186 L18.9807324,25.6214186 C19.7086866,17.2332093 20.4352218,8.80669767 21.1802042,0.397209302 L21.1802042,0.397209302 L4.27123239,0.397209302 Z" id="Fill-55" sketch:type="MSShapeGroup" mask="url(#mask-20)"></path>
                </g>
                <g id="Group-60" transform="translate(215.690141, 263.860465)">
                    <mask id="mask-22" sketch:name="Clip 59" fill="white">
                        <use xlink:href="#path-21"></use>
                    </mask>
                    <g id="Clip-59"></g>
                    <path d="M2.45489437,0.397209302 L0.520778169,30.819186 C13.3146092,30.7142093 23.8380176,29.5608837 30.0646514,28.2486744 L30.0646514,28.2486744 L31.838419,0.397209302 L2.45489437,0.397209302 Z" id="Fill-58" sketch:type="MSShapeGroup" mask="url(#mask-22)"></path>
                </g>
                <path d="M207.711592,223.423281 C235.073022,223.423281 257.235184,224.647537 257.235184,226.137072 L253.899082,264.257816 L164.221649,264.257816 L161.541131,264.257816 L158.205029,226.190979 C158.188001,226.173956 158.188001,226.155514 158.188001,226.137072 C158.188001,224.647537 180.36861,223.423281 207.711592,223.423281" id="Fill-61" fill="#F9B200" sketch:type="MSShapeGroup"></path>
                <g id="Group-65" transform="translate(161.767606, 222.720930)">
                    <mask id="mask-24" sketch:name="Clip 64" fill="white">
                        <use xlink:href="#path-23"></use>
                    </mask>
                    <g id="Clip-64"></g>
                    <path d="M1.21183803,2.24565116 L3.6071338,41.5367442 L33.9144366,41.5367442 L34.4806232,0.773139535 C19.7540951,0.967488372 7.58179225,1.51790698 1.21183803,2.24565116" id="Fill-63" sketch:type="MSShapeGroup" mask="url(#mask-24)"></path>
                </g>
                <g id="Group-68" transform="translate(157.510563, 224.139535)">
                    <mask id="mask-26" sketch:name="Clip 67" fill="white">
                        <use xlink:href="#path-25"></use>
                    </mask>
                    <g id="Clip-67"></g>
                    <path d="M0.676869718,1.99881395 C0.676869718,2.01583721 0.676869718,2.03427907 0.693897887,2.05130233 L0.693897887,2.05130233 L4.03,40.1181395 L6.71051761,40.1181395 L18.0129648,40.1181395 L15.7425423,0.0468139535 C6.46219014,0.543325581 0.676869718,1.23560465 0.676869718,1.99881395" id="Fill-66" sketch:type="MSShapeGroup" mask="url(#mask-26)"></path>
                </g>
                <g id="Group-71" transform="translate(217.109155, 222.720930)">
                    <mask id="mask-28" sketch:name="Clip 70" fill="white">
                        <use xlink:href="#path-27"></use>
                    </mask>
                    <g id="Clip-70"></g>
                    <path d="M0.522197183,41.5367442 L36.7893592,41.5367442 L40.1254613,3.4174186 C40.1254613,2.13925581 24.3871761,1.09374419 3.05939437,0.791581395 L3.05939437,0.791581395 L0.522197183,41.5367442 Z" id="Fill-69" sketch:type="MSShapeGroup" mask="url(#mask-28)"></path>
                </g>
                <g id="Group-74" transform="translate(239.813380, 224.139535)">
                    <mask id="mask-30" sketch:name="Clip 73" fill="white">
                        <use xlink:href="#path-29"></use>
                    </mask>
                    <g id="Clip-73"></g>
                    <path d="M0.830123239,40.1181395 L14.0851338,40.1181395 L17.4212359,1.99881395 C17.4212359,1.27106977 12.189331,0.612837209 3.63551408,0.117744186 L3.63551408,0.117744186 L0.830123239,40.1181395 Z" id="Fill-72" sketch:type="MSShapeGroup" mask="url(#mask-30)"></path>
                </g>
                <path d="M207.711592,263.353314 C233.209856,263.353314 253.899082,263.761872 253.899082,264.258384 C253.899082,264.754895 234.257089,268.26736 208.757406,268.26736 C183.260561,268.26736 161.541131,264.754895 161.541131,264.258384 C161.541131,263.761872 182.213328,263.353314 207.711592,263.353314" id="Fill-75" fill="#4A4A49" sketch:type="MSShapeGroup"></path>
                <g id="Group-79" transform="translate(167.443662, 262.441860)">
                    <mask id="mask-32" sketch:name="Clip 78" fill="white">
                        <use xlink:href="#path-31"></use>
                    </mask>
                    <g id="Clip-78"></g>
                    <path d="M4.63733803,1.23134884 C2.33144014,1.81581395 1.05290845,2.43574419 1.05290845,3.12944186 L1.05290845,3.12944186 L1.05290845,3.14788372 C9.44495775,4.31823256 24.5645528,5.8247907 41.3145951,5.8247907 L41.3145951,5.8247907 C48.2535739,5.8247907 54.7455634,5.54248837 60.5323028,5.16797674 L60.5323028,5.16797674 C63.2284296,4.56648837 64.7723169,3.87562791 64.7723169,3.12944186 L64.7723169,3.12944186 C64.7723169,2.33076744 63.0510528,1.60302326 60.1051796,1.00011628 L60.1051796,1.00011628 C54.0899789,0.930604651 47.3652711,0.912162791 40.2687817,0.912162791 L40.2687817,0.912162791 C25.9296444,0.912162791 13.101757,1.0355814 4.63733803,1.23134884" id="Fill-77" sketch:type="MSShapeGroup" mask="url(#mask-32)"></path>
                </g>
                <g id="Group-82" transform="translate(157.510563, 222.720930)">
                    <mask id="mask-34" sketch:name="Clip 81" fill="white">
                        <use xlink:href="#path-33"></use>
                    </mask>
                    <g id="Clip-81"></g>
                    <path d="M0.676869718,3.38195349 C0.676869718,4.85304651 22.9270106,6.07730233 50.2018803,6.07730233 L50.2018803,6.07730233 C77.4923592,6.07730233 99.7240528,4.85304651 99.7240528,3.38195349 L99.7240528,3.38195349 C99.7240528,1.87397674 77.4923592,0.685186047 50.2018803,0.685186047 L50.2018803,0.685186047 C22.9270106,0.685186047 0.676869718,1.87397674 0.676869718,3.38195349" id="Fill-80" sketch:type="MSShapeGroup" mask="url(#mask-34)"></path>
                </g>
                <g id="Group-85" transform="translate(204.338028, 224.139535)">
                    <mask id="mask-36" sketch:name="Clip 84" fill="white">
                        <use xlink:href="#path-35"></use>
                    </mask>
                    <g id="Clip-84"></g>
                    <path d="M9.19379225,2.61874419 C2.96573944,2.70669767 0.0908169014,2.95637209 0.569024648,3.38053488 L0.569024648,3.38053488 L10.9335035,3.38053488 C10.7206514,3.15072093 10.5049613,2.92090698 10.3105563,2.68967442 L10.3105563,2.68967442 C13.3273803,2.49390698 17.4084648,2.7435814 22.5211725,3.43444186 L22.5211725,3.43444186 C26.0701268,3.32946512 29.0486373,2.79465116 31.4609613,1.82148837 L31.4609613,1.82148837 C28.4810317,2.1052093 25.4996831,2.40595349 22.5211725,2.68967442 L22.5211725,2.68967442 C17.7986937,1.99881395 13.1145282,1.27106977 8.41333451,0.578790698 L8.41333451,0.578790698 C8.66024296,1.27106977 8.92843662,1.94348837 9.19379225,2.61874419" id="Fill-83" sketch:type="MSShapeGroup" mask="url(#mask-36)"></path>
                </g>
                <g id="Group-88" transform="translate(241.232394, 224.139535)">
                    <mask id="mask-38" sketch:name="Clip 87" fill="white">
                        <use xlink:href="#path-37"></use>
                    </mask>
                    <g id="Clip-87"></g>
                    <path d="M0.81309507,3.89548837 C10.1629789,3.4174186 16.0022218,2.72513953 16.0022218,1.96334884 L16.0022218,1.96334884 C16.0022218,1.19872093 10.1629789,0.507860465 0.81309507,0.00993023256 L0.81309507,0.00993023256 L0.81309507,3.89548837 Z" id="Fill-86" sketch:type="MSShapeGroup" mask="url(#mask-38)"></path>
                </g>
                <g id="Group-95" transform="translate(188.728873, 226.976744)" sketch:type="MSShapeGroup">
                    <path d="M27.517663,37.281214 C41.1813496,36.9450047 52.2709447,37.3351209 52.2879729,38.1508186 C52.3050011,38.9679349 41.2523004,39.9084698 27.5886137,40.2446791 C13.9249271,40.5808884 2.83533204,40.1907721 2.81830387,39.3935163 C2.78282852,38.5764 13.8553954,37.6174233 27.517663,37.281214" id="Fill-89" fill="#F9F4EF"></path>
                    <path d="M6.40287535,1.73225814 C3.50950563,4.57088605 1.59383662,7.81665349 0.688505634,11.4894209 C0.706952817,12.8895837 2.32037183,14.5408395 5.53301972,16.4020488 C5.9941993,17.4319558 6.84560775,19.630793 8.0702169,22.9829558 C8.53139648,26.4613744 13.321988,29.8674442 22.4249634,33.1827233 C31.5449669,34.3005837 41.4454282,34.2665372 52.2001359,33.0763279 C57.1851324,30.061793 60.5396817,24.5632814 62.2950021,16.5978163 C61.4975162,11.5433279 58.8879493,6.34414186 54.4719775,1.00593256 C40.5585444,1.71523488 24.5364563,1.9634907 6.40287535,1.73225814" id="Fill-91" fill="#FFD600"></path>
                    <path d="M6.40287535,1.73225814 C3.50950563,4.57088605 1.59383662,7.81665349 0.688505634,11.4894209 C0.706952817,12.8895837 2.32037183,14.5408395 5.53301972,16.4020488 C5.9941993,17.4319558 6.84560775,19.630793 8.0702169,22.9829558 C8.53139648,26.4613744 13.321988,29.8674442 22.4249634,33.1827233 C31.5449669,34.3005837 41.4454282,34.2665372 52.2001359,33.0763279 C57.1851324,30.061793 60.5396817,24.5632814 62.2950021,16.5978163 C61.4975162,11.5433279 58.8879493,6.34414186 54.4719775,1.00593256 C40.5585444,1.71523488 24.5364563,1.9634907 6.40287535,1.73225814 L6.40287535,1.73225814 Z" id="Stroke-93" stroke="#FFCC00" stroke-width="0.03"></path>
                </g>
                <g id="Group-98" transform="translate(198.661972, 235.488372)">
                    <mask id="mask-40" sketch:name="Clip 97" fill="white">
                        <use xlink:href="#path-39"></use>
                    </mask>
                    <g id="Clip-97"></g>
                    <path d="M0.407257042,5.65597674 C5.89174648,9.98413953 12.4561056,11.4921163 20.1386479,10.179907 L20.1386479,10.179907 C18.4713063,7.97965116 16.8039648,5.78081395 15.1352042,3.58055814 L15.1352042,3.58055814 C12.1283134,1.78460465 9.50313732,0.886627907 7.26677113,0.886627907 L7.26677113,0.886627907 C4.28826056,0.885209302 1.99939085,2.47546512 0.407257042,5.65597674" id="Fill-96" sketch:type="MSShapeGroup" mask="url(#mask-40)"></path>
                </g>
                <g id="Group-101" transform="translate(211.433099, 255.348837)">
                    <mask id="mask-42" sketch:name="Clip 100" fill="white">
                        <use xlink:href="#path-41"></use>
                    </mask>
                    <g id="Clip-100"></g>
                    <path d="M7.27954225,1.40583721 C5.13257394,1.90234884 2.89762676,2.64853488 0.553415493,3.6585814 L0.553415493,3.6585814 C0.607338028,4.11962791 0.662679577,4.52818605 0.766267606,4.93532558 L0.766267606,4.93532558 C5.93005986,5.50418605 11.3606268,5.71555814 17.0749965,5.57369767 L17.0749965,5.57369767 C18.2811585,4.9722093 19.5767183,4.29695349 20.9262007,3.55218605 L20.9262007,3.55218605 C15.3892077,2.23997674 11.184669,1.44130233 8.30832746,1.21006977 L8.30832746,1.21006977 C7.95357394,1.26397674 7.61726761,1.35334884 7.27954225,1.40583721" id="Fill-99" sketch:type="MSShapeGroup" mask="url(#mask-42)"></path>
                </g>
                <path d="M212.200076,260.28473 C217.363868,260.852172 222.794435,261.064963 228.507386,260.923102 C229.714967,260.320195 231.010526,259.646358 232.35859,258.900172 C226.823016,257.589381 222.617058,256.789288 219.740717,256.559474 C219.385963,256.613381 219.049657,256.701335 218.711931,256.753823 C216.564963,257.251753 214.330016,257.996521 211.987224,259.007986 C212.041146,259.469033 212.095069,259.877591 212.200076,260.28473 L212.200076,260.28473 Z" id="Stroke-102" stroke="#FFCC00" stroke-width="0.03" sketch:type="MSShapeGroup"></path>
                <g id="Group-106" transform="translate(211.433099, 256.767442)">
                    <mask id="mask-44" sketch:name="Clip 105" fill="white">
                        <use xlink:href="#path-43"></use>
                    </mask>
                    <g id="Clip-105"></g>
                    <path d="M0.892559859,2.31090698 C1.0883838,2.77195349 1.31826408,3.19895349 1.54814437,3.60609302 L1.54814437,3.60609302 C6.72896479,4.13806977 12.1566937,4.31539535 17.837007,4.12104651 L17.837007,4.12104651 C18.7778134,3.60609302 19.7370669,2.98474419 20.7289577,2.31090698 L20.7289577,2.31090698 C17.2069648,1.48527907 13.7913979,1.07388372 10.4850951,1.07388372 L10.4850951,1.07388372 C7.17737324,1.07388372 3.97891549,1.48527907 0.892559859,2.31090698" id="Fill-104" sketch:type="MSShapeGroup" mask="url(#mask-44)"></path>
                </g>
                <path d="M212.981669,260.373393 C218.162489,260.90537 223.591637,261.082695 229.270531,260.888347 C230.211338,260.373393 231.169172,259.753463 232.162482,259.078207 C225.118496,257.42837 218.500214,257.42837 212.326084,259.078207 C212.521908,259.539253 212.751788,259.966253 212.981669,260.373393 L212.981669,260.373393 Z" id="Stroke-107" stroke="#FFCC00" stroke-width="0.03" sketch:type="MSShapeGroup"></path>
                <g id="Group-111" transform="translate(222.785211, 239.744186)">
                    <mask id="mask-46" sketch:name="Clip 110" fill="white">
                        <use xlink:href="#path-45"></use>
                    </mask>
                    <g id="Clip-110"></g>
                    <path d="M4.23291901,3.08404651 C5.19075352,5.08853488 0.275288732,9.77276744 6.29048944,12.4326512 L6.29048944,12.4326512 C9.23494366,14.2612326 18.4996866,13.6398837 17.2381831,15.2712791 L17.2381831,15.2712791 C15.2331162,17.453093 9.8735,19.032 1.14514437,20.0434651 L1.14514437,20.0434651 C13.9219472,21.586907 21.052493,19.4405581 22.5084014,13.6044186 L22.5084014,13.6044186 C16.6890246,4.94525581 11.9608697,0.621348837 8.33812676,0.621348837 L8.33812676,0.621348837 C6.75876408,0.621348837 5.39083451,1.44272093 4.23291901,3.08404651" id="Fill-109" sketch:type="MSShapeGroup" mask="url(#mask-46)"></path>
                </g>
                <g id="Group-114" transform="translate(211.433099, 239.744186)">
                    <mask id="mask-48" sketch:name="Clip 113" fill="white">
                        <use xlink:href="#path-47"></use>
                    </mask>
                    <g id="Clip-113"></g>
                    <path d="M15.316838,0.726325581 C14.1120951,2.90813953 15.0869577,5.79925581 22.468669,8.92160465 L22.468669,8.92160465 C27.2777077,11.2452791 30.8422711,13.3746047 28.8925458,15.8046744 L28.8925458,15.8046744 C25.3620387,19.0149767 16.0277641,20.2037674 0.892559859,19.3341628 L0.892559859,19.3341628 C2.06324648,20.5399767 8.78937324,21.0208837 21.1007394,20.7173023 L21.1007394,20.7173023 C31.4822465,19.8122326 35.0127535,16.2302558 31.6241479,9.98697674 L31.6241479,9.98697674 C29.2912887,3.68553488 24.8738979,0.516372093 18.3606232,0.516372093 L18.3606232,0.516372093 C17.3928556,0.516372093 16.3782606,0.585883721 15.316838,0.726325581" id="Fill-112" sketch:type="MSShapeGroup" mask="url(#mask-48)"></path>
                </g>
                <path d="M226.750504,240.470653 C225.544342,242.652467 226.520624,245.543584 233.902335,248.665933 C238.711374,250.989607 242.275937,253.118933 240.324793,255.549002 C236.794286,258.759305 227.46143,259.948095 212.326226,259.078491 C213.495494,260.284305 220.22162,260.763793 232.534406,260.46163 C242.915913,259.557979 246.44642,255.974584 243.057814,249.729886 C240.378715,242.492165 234.948149,239.388258 226.750504,240.470653 L226.750504,240.470653 Z" id="Stroke-115" stroke="#FFCC00" stroke-width="0.03" sketch:type="MSShapeGroup"></path>
                <g id="Group-119" transform="translate(188.728873, 226.976744)">
                    <mask id="mask-50" sketch:name="Clip 118" fill="white">
                        <use xlink:href="#path-49"></use>
                    </mask>
                    <g id="Clip-118"></g>
                    <path d="M6.40259155,1.73211628 C3.50922183,4.57074419 1.59355282,7.81651163 0.688221831,11.4878605 L0.688221831,11.4878605 C0.706669014,12.8908605 2.32008803,14.5406977 5.53273592,16.401907 L5.53273592,16.401907 C7.71517958,15.9593023 7.82160563,14.7889535 5.85201408,12.8908605 L5.85201408,12.8908605 C4.00729577,10.4068837 4.5039507,9.28902326 7.34197887,9.57274419 L7.34197887,9.57274419 C7.23555282,13.5987442 9.65071479,15.020186 14.5463134,13.7590465 L14.5463134,13.7590465 C24.0395176,12.0226744 28.0496514,10.3714186 26.596581,8.79251163 L26.596581,8.79251163 C23.2576408,7.71011628 25.9197113,6.5567907 34.5274507,5.33253488 L34.5274507,5.33253488 C35.8925423,5.26302326 36.6573908,5.51127907 36.8319296,6.09716279 L36.8319296,6.09716279 C37.4534577,8.1725814 33.3383169,9.53869767 37.6478627,11.2764884 L37.6478627,11.2764884 C40.2404014,12.3234186 45.2608732,12.3588837 52.696507,11.3474186 L52.696507,11.3474186 C55.4820317,8.33146512 56.6356901,5.61767442 56.2099859,3.25853488 L56.2099859,3.25853488 C55.6594085,2.49674419 55.0747746,1.75055814 54.4716937,1.0057907 L54.4716937,1.0057907 C40.5582606,1.71651163 24.5375915,1.96334884 6.40259155,1.73211628 M14.2994049,20.1101395 C11.4060352,20.4477674 13.1088521,25.3249302 7.89255634,22.523186 L7.89255634,22.523186 C8.0699331,23.0906279 8.24730986,23.6580698 8.42468662,24.2425349 L8.42468662,24.2425349 C9.86214789,25.1121395 11.3180563,25.200093 12.7711268,24.4567442 L12.7711268,24.4567442 C13.4465775,24.1191163 14.2625106,23.0551628 14.9535704,23.072186 L14.9535704,23.072186 C15.3821127,23.072186 15.9667465,23.2310698 16.7472042,23.499186 L16.7472042,23.499186 C17.9519472,23.6765116 18.6628732,23.499186 18.9112007,22.9842326 L18.9112007,22.9842326 C17.1019577,23.2509302 17.2083838,21.1216047 15.9667465,20.4293256 L15.9667465,20.4293256 C15.5779366,20.2122791 15.1068239,20.1044651 14.5420563,20.1044651 L14.5420563,20.1044651 C14.4625915,20.1044651 14.3817077,20.1058837 14.2994049,20.1101395 M21.059588,22.257907 C20.5444859,22.8962791 27.3756197,21.5656279 29.220338,21.3343953 L29.220338,21.3343953 C27.4820458,21.0492558 26.098507,20.7853953 25.0683028,20.5726047 L25.0683028,20.5726047 C23.4903592,20.7485116 22.1408768,21.3173721 21.059588,22.257907" id="Fill-117" sketch:type="MSShapeGroup" mask="url(#mask-50)"></path>
                </g>
                <g id="Group-122" transform="translate(197.242958, 231.232558)">
                    <mask id="mask-52" sketch:name="Clip 121" fill="white">
                        <use xlink:href="#path-51"></use>
                    </mask>
                    <g id="Clip-121"></g>
                    <path d="M12.2248063,4.23453488 C11.3379225,6.59509302 7.47110915,8.33288372 0.691059859,9.46918605 L0.691059859,9.46918605 C1.88019366,10.1061395 3.67240845,10.1061395 6.03222887,9.50323256 L6.03222887,9.50323256 C15.5254331,7.76686047 19.5355669,6.11560465 18.0824965,4.53669767 L18.0824965,4.53669767 C14.7435563,3.45430233 17.4056268,2.30097674 26.0133662,1.07672093 L26.0133662,1.07672093 C26.195,1.07672093 26.3482535,1.06253488 26.498669,1.07530233 L26.498669,1.07530233 C24.1615528,0.861093023 22.1096585,0.75327907 20.3458239,0.75327907 L20.3458239,0.75327907 C14.5392183,0.75327907 11.8303204,1.91086047 12.2248063,4.23453488 M26.5256303,1.07672093 C26.5171162,1.07672093 26.5071831,1.07530233 26.498669,1.07530233 L26.498669,1.07530233 C26.5071831,1.07530233 26.5171162,1.07672093 26.5256303,1.07672093" id="Fill-120" sketch:type="MSShapeGroup" mask="url(#mask-52)"></path>
                </g>
                <path d="M244.938575,230.234995 L244.938575,230.234995 C244.636325,229.792391 244.2986,229.348367 243.963713,228.922786 L243.945265,228.887321 C243.695519,228.585158 243.448611,228.284414 243.200283,227.982251 C229.377667,228.692972 213.442139,228.939809 195.433431,228.708577 C192.132804,232.186995 190.393093,235.378856 190.215716,238.305437 C190.41154,237.383344 190.87272,237.508181 191.582227,238.67853 C192.681963,240.789414 193.303491,241.427786 193.426945,240.612088 C192.149832,237.791902 191.705681,236.142065 192.061854,235.62853 C192.291734,234.421298 193.800146,233.872298 196.533167,233.941809 C197.491001,234.314902 197.899677,235.042647 197.774804,236.088158 C198.34241,236.000205 198.448836,235.078112 198.075635,233.321879 C197.313625,231.192553 200.32903,230.1286 207.072185,230.111577 C208.208815,230.27046 209.362473,231.423786 210.604111,233.587158 C211.241248,234.475205 211.935146,234.563158 212.6631,233.835414 C210.709118,231.477693 210.232329,230.147042 211.241248,229.880344 C213.690466,228.993716 218.960685,229.169623 227.068931,230.483251 C228.06366,230.643553 228.170086,231.51174 227.425104,233.019716 C226.30692,234.741902 227.425104,236.071135 230.779653,236.974786 C219.191984,243.042158 235.338945,245.401298 240.413339,250.723902 C244.37097,254.820833 239.987635,257.162949 236.350702,258.103484 C232.446994,259.096507 226.644646,259.734879 218.960685,260.0186 C212.911427,259.610042 206.806829,257.978647 200.719258,255.105972 C203.097526,256.808298 206.57553,258.492181 211.153269,260.16046 C220.273273,261.278321 230.637751,261.491112 241.389621,260.320763 C246.357589,257.304809 249.622741,251.504135 251.37948,243.521647 C250.669973,239.193484 248.310153,234.792972 244.938575,230.234995" id="Fill-123" fill="#000000" sketch:type="MSShapeGroup"></path>
                <g id="Group-127" transform="translate(228.461268, 238.325581)">
                    <mask id="mask-54" sketch:name="Clip 126" fill="white">
                        <use xlink:href="#path-53"></use>
                    </mask>
                    <g id="Clip-126"></g>
                    <path d="M8.13804577,0.388697674 C5.31562676,0.459627907 3.08209859,0.903651163 1.41191901,1.75481395 L1.41191901,1.75481395 C-2.5088169,3.58197674 5.03182394,5.99502326 6.80559155,6.63339535 L6.80559155,6.63339535 C9.48610915,7.60797674 11.5266514,8.08746512 10.977493,4.22034884 L10.977493,4.22034884 C10.7632218,2.8357907 11.8459296,3.01311628 14.1702746,4.77076744 L14.1702746,4.77076744 C16.2292641,5.99502326 17.0806725,5.07293023 15.9624894,3.2627907 L15.9624894,3.2627907 C14.5136761,0.886627907 11.587669,0.377348837 8.866,0.377348837 L8.866,0.377348837 C8.62192958,0.377348837 8.37785915,0.381604651 8.13804577,0.388697674" id="Fill-125" sketch:type="MSShapeGroup" mask="url(#mask-54)"></path>
                </g>
                <g id="Group-130" transform="translate(228.461268, 238.325581)">
                    <mask id="mask-56" sketch:name="Clip 129" fill="white">
                        <use xlink:href="#path-55"></use>
                    </mask>
                    <g id="Clip-129"></g>
                    <path d="M7.90674648,0.388697674 C5.15669718,0.442604651 2.9927007,0.885209302 1.37644366,1.71934884 L1.37644366,1.71934884 C-2.42083803,3.51104651 4.88992254,5.83330233 6.61118662,6.45606977 L6.61118662,6.45606977 C9.20230634,7.39660465 11.2073732,7.87467442 10.6582148,4.11395349 L10.6582148,4.11395349 C10.4623908,2.76627907 11.5096232,2.92516279 13.7445704,4.64451163 L13.7445704,4.64451163 C15.7496373,5.83330233 16.6024648,4.92965116 15.5013099,3.1734186 L15.5013099,3.1734186 C14.0893908,0.869604651 11.2669718,0.377348837 8.63753873,0.375930233 L8.63753873,0.375930233 C8.3920493,0.375930233 8.14797887,0.380186047 7.90674648,0.388697674" id="Fill-128" sketch:type="MSShapeGroup" mask="url(#mask-56)"></path>
                </g>
                <g id="Group-133" transform="translate(228.461268, 238.325581)">
                    <mask id="mask-58" sketch:name="Clip 132" fill="white">
                        <use xlink:href="#path-57"></use>
                    </mask>
                    <g id="Clip-132"></g>
                    <path d="M7.90674648,0.53055814 C5.29859859,0.583046512 3.22258099,1.01004651 1.67869366,1.80872093 L1.67869366,1.80872093 C-1.95965845,3.52806977 5.03182394,5.74534884 6.68355634,6.33123256 L6.68355634,6.33123256 C9.14980282,7.23488372 11.0668908,7.69734884 10.5333415,4.09551163 L10.5333415,4.09551163 C10.3545458,2.80032558 11.3492746,2.96062791 13.496243,4.59344186 L13.496243,4.59344186 C15.413331,5.74534884 16.2093979,4.89418605 15.1820317,3.19186047 L15.1820317,3.19186047 C13.8197782,0.976 11.0754049,0.522046512 8.52117958,0.522046512 L8.52117958,0.522046512 C8.31542254,0.522046512 8.10966549,0.524883721 7.90674648,0.53055814" id="Fill-131" sketch:type="MSShapeGroup" mask="url(#mask-58)"></path>
                </g>
                <g id="Group-136" transform="translate(228.461268, 238.325581)">
                    <mask id="mask-60" sketch:name="Clip 135" fill="white">
                        <use xlink:href="#path-59"></use>
                    </mask>
                    <g id="Clip-135"></g>
                    <path d="M3.22258099,1.68246512 C3.02675704,2.14493023 2.49604577,2.4102093 1.66166549,2.57051163 L1.66166549,2.57051163 C0.418609155,3.15497674 1.36083451,3.52806977 4.44577113,3.68695349 L4.44577113,3.68695349 C5.47597535,3.70681395 6.80559155,4.23737209 8.47577113,5.28430233 L8.47577113,5.28430233 C8.75815493,5.67583721 9.14980282,5.65739535 9.60956338,5.23039535 L9.60956338,5.23039535 C9.98276408,4.46860465 9.76991197,3.77632558 8.91992254,3.12093023 L8.91992254,3.12093023 C8.47577113,2.92516279 8.13804577,2.60597674 7.94364085,2.16337209 L7.94364085,2.16337209 C7.85140493,1.79027907 8.58077817,1.84276744 10.072162,2.32083721 L10.072162,2.32083721 C11.2612958,2.65846512 11.7565317,2.6244186 11.685581,2.30523256 L11.685581,2.30523256 C10.675243,1.59451163 9.43218662,1.13204651 7.92519366,0.903651163 L7.92519366,0.903651163 C4.96087324,0.974581395 3.39995775,1.22283721 3.22258099,1.68246512" id="Fill-134" sketch:type="MSShapeGroup" mask="url(#mask-60)"></path>
                </g>
                <g id="Group-153" transform="translate(160.348592, 200.023256)" sketch:type="MSShapeGroup">
                    <path d="M35.8474176,27.213093 C38.3306923,24.4283721 40.0349282,22.1586047 40.9927627,20.4562791 C42.9453261,20.5272093 44.151488,19.7285349 44.6126676,18.0957209 C46.3154845,16.7480465 48.0722239,15.5422326 49.8828859,14.4413953 C52.2952099,14.6371628 54.7430092,14.8329302 57.2631782,15.0272791 C59.3931183,14.6371628 60.972481,14.2654884 62.0736359,13.8753721 C62.9250444,13.8569302 63.8644317,14.2300233 64.9102451,14.9393256 C62.9775479,14.1931395 61.7884141,13.9987907 61.3981852,14.3179767 C60.2800021,14.9563488 59.1447908,15.3464651 57.9741042,15.4713023 C57.24615,15.6131628 58.0280268,16.1806047 60.367981,17.1906512 C61.0249845,17.6176512 61.6294845,18.1141628 62.1261394,18.6986279 C60.9370056,17.7765349 60.1196535,17.3325116 59.7308437,17.3509535 C59.055393,17.4573488 59.8202415,18.6106744 62.0367415,20.8095116 C60.367981,20.0292791 59.3931183,18.841907 59.163238,17.2445581 C57.8307838,16.5522791 57.1226958,15.9663953 57.0332979,15.4713023 C52.4740056,14.8329302 50.3440655,15.0102558 50.6278683,16.0387442 C50.7158472,16.9253721 50.9286993,17.9538605 51.2848718,19.1426512 C51.5331993,20.8804419 51.0706007,19.6746279 49.9169423,15.4528605 C47.0604669,16.4813488 45.4286007,17.4573488 45.056819,18.3978837 C44.3643401,19.4987209 43.2986606,20.3654884 41.8441711,20.9343488 C40.8324141,21.3244651 40.2293331,22.0337674 40.016481,23.0466512 C38.6499704,24.7844419 37.2664317,26.1675814 35.8474176,27.213093" id="Fill-137" fill="#F9F9F9"></path>
                    <path d="M58.4533053,45.6445977 C58.0105729,44.7565512 57.4585764,43.8529 56.8015729,42.9478302 C54.9568546,41.1561326 54.2118722,39.6481558 54.5666257,38.4068767 C54.8334004,37.3968302 55.5954109,36.7400163 56.8739426,36.4562953 C58.0801046,36.2080395 59.1088898,35.7115279 59.9787454,34.9653419 C61.4176257,34.0432488 62.1966644,33.4048767 62.3045095,33.0502256 C61.3807313,33.6176674 60.4583722,34.1851093 59.5175658,34.770993 C58.826506,35.5342023 57.8672525,35.8533884 56.6596715,35.7810395 C55.4889849,35.5342023 54.9227982,35.5342023 54.9767208,35.7455744 C55.7202842,36.6151791 54.9568546,37.4663419 52.686432,38.3175047 C46.0142278,40.3418535 41.2420835,41.2284814 38.4196644,40.978807 C40.8149602,42.0796442 45.3033018,41.4937605 51.8520518,39.2580395 C52.4735799,39.0991558 53.3065412,39.6311326 54.3197173,40.8369465 C54.6560236,41.5462488 55.3825588,42.3449233 56.4666856,43.2145279 C57.2826187,44.3323884 57.9396222,45.1296442 58.4533053,45.6445977" id="Fill-139" fill="#F9F9F9"></path>
                    <path d="M2.82554085,11.3376302 C4.31550563,9.56437442 5.78702324,7.75423488 7.27982606,5.96253721 C9.1784669,5.25323488 11.1111641,4.50846744 13.0282521,3.79916512 C15.4419951,2.84018837 17.8727662,1.88263023 20.2865092,0.925072093 C22.3086042,0.374653488 21.1379176,1.06693256 16.7730303,3.01893256 C14.8914176,5.80365349 13.4709845,6.54842093 12.51315,5.23621163 C9.71059718,5.5014907 7.9893331,6.03346744 7.38625211,6.79667674 C2.73756197,12.4030023 1.21070282,13.9095605 2.82554085,11.3376302" id="Fill-141" fill="#F9F9F9"></path>
                    <path d="M25.9275158,2.5566093 C28.0744842,3.97663256 30.1859771,5.41367907 32.3159173,6.84930698 C34.3564595,6.92023721 36.3970018,6.99116744 38.4559912,7.06209767 C41.3649701,9.33328372 44.2923961,11.621493 47.204213,13.8912605 C44.4172694,11.9761442 41.6303257,10.0610279 38.8632482,8.14449302 C36.4679525,8.87223721 34.7296602,9.04956279 33.6285053,8.69491163 C33.699456,9.19142326 34.2684806,10.2553767 35.3497694,11.8342837 C37.3363891,15.3467488 35.9003468,13.6784698 31.0388046,6.83228372 C29.3175405,5.39523721 27.6487799,3.97663256 25.9275158,2.5566093" id="Fill-143" fill="#F9F9F9"></path>
                    <path d="M25.9275158,2.5566093 C28.0744842,3.97663256 30.1859771,5.41367907 32.3159173,6.84930698 C34.3564595,6.92023721 36.3970018,6.99116744 38.4559912,7.06209767 C41.3649701,9.33328372 44.2923961,11.621493 47.204213,13.8912605 C44.4172694,11.9761442 41.6303257,10.0610279 38.8632482,8.14449302 C36.4679525,8.87223721 34.7296602,9.04956279 33.6285053,8.69491163 C33.699456,9.19142326 34.2684806,10.2553767 35.3497694,11.8342837 C37.3363891,15.3467488 35.9003468,13.6784698 31.0388046,6.83228372 C29.3175405,5.39523721 27.6487799,3.97663256 25.9275158,2.5566093 L25.9275158,2.5566093 Z" id="Stroke-145" stroke="#000000" stroke-width="0.03"></path>
                    <path d="M0.642955282,29.1117535 C2.07899754,31.5602651 4.60058556,34.9124279 8.16656796,39.1696605 C12.4775327,41.8139395 16.7899165,44.4553814 21.1008813,47.0996605 C25.8744447,47.1166837 30.6480081,47.1351256 35.4385996,47.1691721 C35.1916912,46.5151953 34.9419447,45.873986 34.6936173,45.2370326 C30.3642053,45.608707 26.0347933,45.9818 21.7053813,46.3364512 C15.0331771,36.7750558 10.9520926,34.0612651 9.47915599,38.1950791 C2.66505035,29.3245442 -0.297851056,26.3085907 0.642955282,29.1117535" id="Fill-147" fill="#000000"></path>
                    <path d="M21.8644528,26.628486 C24.8983049,26.5930209 27.9151289,26.5575558 30.9333718,26.5036488 C31.5165866,25.7588814 32.1026394,25.014114 32.7071394,24.2509047 C26.7430232,25.0311372 23.1245373,25.8482535 21.8644528,26.628486" id="Fill-149" fill="#000000"></path>
                    <path d="M21.7050975,46.336593 C18.3689954,41.7601744 14.4652877,37.165314 9.97694613,32.5179651 C11.8926151,33.5464535 14.7136151,36.1538488 18.4569743,40.304686 C19.4162278,39.5783605 20.3740623,38.8321744 21.3318968,38.1058488 C20.6578651,39.0818488 20.0193088,40.039407 19.3637243,41.0139884 C20.2321609,42.4680581 21.1190447,43.9065233 22.0243757,45.3251279 C26.0699849,45.3251279 30.117013,45.2896628 34.1612032,45.2896628 C30.0261961,45.6272907 25.8571327,46.0003837 21.7050975,46.336593" id="Fill-151" fill="#F9F9F9"></path>
                </g>
                <g id="Group-156" transform="translate(175.957746, 201.441860)">
                    <mask id="mask-62" sketch:name="Clip 155" fill="white">
                        <use xlink:href="#path-61"></use>
                    </mask>
                    <g id="Clip-155"></g>
                    <path d="M1.16359155,1.60018605 C0.896816901,4.26006977 1.83620423,7.31148837 4.00161972,10.682093 L4.00161972,10.682093 C4.21589085,16.8019535 5.06588028,20.2959767 6.57429225,21.1840233 L6.57429225,21.1840233 C7.90532746,19.817907 8.77660211,18.6291163 9.20088732,17.6715581 L9.20088732,17.6715581 C8.89863732,17.2800233 7.76342606,14.4073488 5.77680634,9.06772093 L5.77680634,9.06772093 C4.07257042,7.48881395 2.88343662,4.65018605 2.19237676,1.15616279 L2.19237676,1.15616279 C2.16967254,1.15616279 2.14696831,1.15474419 2.1256831,1.15474419 L2.1256831,1.15474419 C1.77518662,1.15474419 1.4303662,1.29802326 1.16359155,1.60018605" id="Fill-154" sketch:type="MSShapeGroup" mask="url(#mask-62)"></path>
                </g>
                <g id="Group-162">
                    <path d="M216.139826,180.263795 L260.518073,188.903098 L254.732752,254.785935 L265.254742,185.231749 C250.881548,181.558981 233.832094,180.5844 216.139826,180.263795" id="Fill-157" fill="#FFFFFF" sketch:type="MSShapeGroup"></path>
                    <g id="Group-161">
                        <mask id="mask-64" sketch:name="Clip 160" fill="white">
                            <use xlink:href="#path-63"></use>
                        </mask>
                        <g id="Clip-160"></g>
                        <path d="M153.769758,200.219874 L163.759618,293.457665 C178.823871,302.16506 202.352544,300.516642 232.109269,297.821293 C222.580589,303.392153 204.340582,309.563084 159.624611,300.074037 L153.769758,200.219874 Z" id="Fill-159" fill="#FFFFFF" sketch:type="MSShapeGroup" mask="url(#mask-64)"></path>
                    </g>
                </g>
            </g>
        </g>
    </g>
</svg>