<?xml version="1.0" encoding="UTF-8" standalone="no"?>
<svg width="600px" height="312px" viewBox="0 0 600 312" version="1.1" xmlns="http://www.w3.org/2000/svg" xmlns:xlink="http://www.w3.org/1999/xlink" xmlns:sketch="http://www.bohemiancoding.com/sketch/ns">
    <!-- Generator: Sketch 3.5.2 (25235) - http://www.bohemiancoding.com/sketch -->
    <title>Page 1</title>
    <desc>Created with Sketch.</desc>
    <defs>
        <path id="path-1" d="M0,0.963 L599.14,0.963 L599.14,313 L0,313 L0,0.963 Z"></path>
        <path id="path-3" d="M0,0.963 L599.14,0.963 L599.14,313 L0,313 L0,0.963 Z"></path>
        <path id="path-5" d="M0.059,5.399 C0.059,7.963 12.889,10.062 28.607,10.062 L28.607,10.062 C44.338,10.062 57.155,7.963 57.155,5.399 L57.155,5.399 C57.155,2.822 44.338,0.735 28.607,0.735 L28.607,0.735 C12.889,0.735 0.059,2.822 0.059,5.399"></path>
        <path id="path-7" d="M1.098,3.355 C2.586,4.318 4.073,5.293 5.536,6.269 L5.536,6.269 C7.762,6.281 10.001,6.294 12.227,6.331 L12.227,6.331 C9.163,4.456 6.111,2.568 3.061,0.705 L3.061,0.705 C2.781,0.642 2.528,0.611 2.303,0.611 L2.303,0.611 C1.094,0.611 0.687,1.521 1.098,3.355"></path>
        <path id="path-9" d="M4.598,2.252 C5.623,3.403 6.661,4.54 7.674,5.678 L7.674,5.678 C7.236,8.13 5.211,9.617 1.659,10.205 L1.659,10.205 C0.608,11.855 0.284,13.18 0.697,14.194 L0.697,14.194 C0.885,12.731 1.397,11.492 2.259,10.467 L2.259,10.467 C6.098,9.605 8.237,8.041 8.675,5.754 L8.675,5.754 C7.5,3.94 6.986,2.128 7.137,0.301 L7.137,0.301 C5.286,0.839 4.448,1.489 4.598,2.252"></path>
        <path id="path-11" d="M2.588,5.127 C2.338,7.391 2.088,9.654 1.838,11.93 L1.838,11.93 C3.789,11.717 5.739,11.505 7.69,11.279 L7.69,11.279 C7.515,9.192 7.353,7.091 7.19,4.99 L7.19,4.99 C4.889,3.564 2.588,2.139 0.288,0.714 L0.288,0.714 C1.05,2.189 1.813,3.652 2.588,5.127"></path>
        <path id="path-13" d="M1.659,1.205 C0.608,2.855 0.284,4.18 0.697,5.194 L0.697,5.194 C0.885,3.731 1.397,2.492 2.259,1.467 L2.259,1.467 C2.935,1.33 3.548,1.155 4.109,0.955 L4.109,0.955 L4.085,0.567 C3.386,0.842 2.571,1.042 1.659,1.205"></path>
        <path id="path-15" d="M0.157,0.454 C0.67,6.382 1.196,12.309 1.72,18.222 L1.72,18.222 C1.72,20.274 15.588,21.937 32.694,21.937 L32.694,21.937 C49.813,21.937 63.693,20.274 63.693,18.222 L63.693,18.222 C64.205,12.309 64.718,6.382 65.243,0.454 L65.243,0.454 C49.839,3.755 23.254,4.406 0.157,0.454"></path>
        <path id="path-17" d="M3.048,19.624 C13.627,21.125 25.268,21.475 35.96,20.7 L35.96,20.7 L38.374,1.93 C26.707,2.517 13.377,2.105 0.66,0.441 L0.66,0.441 L3.048,19.624 Z"></path>
        <path id="path-19" d="M3.327,0.454 L0.801,21.237 C8.603,20.561 13.693,19.473 13.693,18.235 L13.693,18.235 C14.205,12.321 14.718,6.382 15.243,0.454 L15.243,0.454 L3.327,0.454 Z"></path>
        <path id="path-21" d="M2.047,0.454 L0.684,21.9 C9.701,21.824 17.116,21.011 21.504,20.087 L21.504,20.087 L22.754,0.454 L2.047,0.454 Z"></path>
        <path id="path-23" d="M0.171,1.757 L1.858,29.454 L23.216,29.454 L23.616,0.719 C13.238,0.856 4.659,1.244 0.171,1.757"></path>
        <path id="path-25" d="M0.794,1.582 C0.794,1.595 0.794,1.608 0.806,1.619 L0.806,1.619 L3.157,28.454 L5.046,28.454 L13.01,28.454 L11.411,0.207 C4.871,0.556 0.794,1.044 0.794,1.582"></path>
        <path id="path-27" d="M0.684,29.454 L26.243,29.454 L28.594,2.582 C28.594,1.682 17.503,0.944 2.473,0.732 L2.473,0.732 L0.684,29.454 Z"></path>
        <path id="path-29" d="M0.902,28.454 L10.243,28.454 L12.594,1.582 C12.594,1.069 8.906,0.607 2.879,0.257 L2.879,0.257 L0.902,28.454 Z"></path>
        <path id="path-31" d="M2.585,1.042 C0.96,1.454 0.059,1.892 0.059,2.38 L0.059,2.38 L0.059,2.392 C5.973,3.218 16.628,4.281 28.432,4.281 L28.432,4.281 C33.322,4.281 37.897,4.081 41.974,3.817 L41.974,3.817 C43.875,3.392 44.963,2.905 44.963,2.38 L44.963,2.38 C44.963,1.816 43.75,1.303 41.674,0.879 L41.674,0.879 C37.435,0.829 32.696,0.816 27.694,0.816 L27.694,0.816 C17.59,0.816 8.55,0.905 2.585,1.042"></path>
        <path id="path-33" d="M0.794,2.557 C0.794,3.595 16.474,4.458 35.694,4.458 L35.694,4.458 C54.927,4.458 70.594,3.595 70.594,2.557 L70.594,2.557 C70.594,1.494 54.927,0.656 35.694,0.656 L35.694,0.656 C16.474,0.656 0.794,1.494 0.794,2.557"></path>
        <path id="path-35" d="M6.796,2.02 C2.407,2.083 0.38,2.257 0.718,2.558 L0.718,2.558 L8.022,2.558 C7.871,2.395 7.72,2.232 7.583,2.069 L7.583,2.069 C9.709,1.933 12.585,2.107 16.188,2.595 L16.188,2.595 C18.689,2.52 20.788,2.145 22.488,1.457 L22.488,1.457 C20.388,1.657 18.287,1.87 16.188,2.069 L16.188,2.069 C12.86,1.582 9.558,1.069 6.246,0.582 L6.246,0.582 C6.42,1.069 6.608,1.545 6.796,2.02"></path>
        <path id="path-37" d="M0.89,2.921 C7.479,2.582 11.594,2.094 11.594,1.557 L11.594,1.557 C11.594,1.02 7.479,0.532 0.89,0.182 L0.89,0.182 L0.89,2.921 Z"></path>
        <path id="path-39" d="M0.604,4.161 C4.469,7.212 9.095,8.276 14.509,7.35 L14.509,7.35 C13.334,5.799 12.158,4.248 10.983,2.699 L10.983,2.699 C8.864,1.432 7.014,0.799 5.437,0.799 L5.437,0.799 C3.339,0.799 1.726,1.919 0.604,4.161"></path>
        <path id="path-41" d="M5.447,0.164 C3.934,0.515 2.359,1.04 0.707,1.753 L0.707,1.753 C0.745,2.078 0.784,2.366 0.857,2.653 L0.857,2.653 C4.496,3.053 8.323,3.203 12.349,3.104 L12.349,3.104 C13.2,2.679 14.113,2.203 15.064,1.677 L15.064,1.677 C11.162,0.753 8.198,0.19 6.172,0.028 L6.172,0.028 C5.922,0.065 5.685,0.128 5.447,0.164"></path>
        <path id="path-43" d="M0.946,1.802 C1.084,2.128 1.246,2.429 1.408,2.716 L1.408,2.716 C5.059,3.091 8.884,3.215 12.887,3.079 L12.887,3.079 C13.55,2.716 14.226,2.279 14.924,1.802 L14.924,1.802 C12.443,1.221 10.036,0.931 7.706,0.931 L7.706,0.931 C5.375,0.931 3.121,1.221 0.946,1.802"></path>
        <path id="path-45" d="M2.3,2.349 C2.974,3.762 -0.489,7.063 3.75,8.939 L3.75,8.939 C5.825,10.227 12.353,9.789 11.465,10.939 L11.465,10.939 C10.052,12.477 6.275,13.59 0.124,14.303 L0.124,14.303 C9.127,15.392 14.153,13.878 15.179,9.764 L15.179,9.764 C11.078,3.661 7.746,0.612 5.193,0.612 L5.193,0.612 C4.08,0.612 3.116,1.191 2.3,2.349"></path>
        <path id="path-47" d="M11.111,0.686 C10.262,2.224 10.949,4.262 16.151,6.463 L16.151,6.463 C19.54,8.101 22.052,9.601 20.678,11.315 L20.678,11.315 C18.19,13.578 11.612,14.416 0.946,13.802 L0.946,13.802 C1.771,14.653 6.51,14.991 15.187,14.778 L15.187,14.778 C22.503,14.141 24.991,11.615 22.603,7.214 L22.603,7.214 C20.959,2.771 17.846,0.538 13.256,0.538 L13.256,0.538 C12.574,0.538 11.859,0.587 11.111,0.686"></path>
        <path d="M4.829,1.395 C2.79,3.396 1.439,5.684 0.801,8.273 L0.801,8.273 C0.815,9.26 1.952,10.424 4.216,11.736 L4.216,11.736 C5.754,11.424 5.829,10.599 4.441,9.26 L4.441,9.26 C3.141,7.51 3.491,6.722 5.491,6.923 L5.491,6.923 C5.416,9.76 7.118,10.761 10.568,9.874 L10.568,9.874 C17.258,8.648 20.084,7.485 19.06,6.372 L19.06,6.372 C16.707,5.609 18.583,4.796 24.649,3.934 L24.649,3.934 C25.611,3.883 26.149,4.059 26.273,4.471 L26.273,4.471 C26.711,5.935 23.811,6.898 26.848,8.123 L26.848,8.123 C28.674,8.861 32.213,8.886 37.453,8.173 L37.453,8.173 C39.416,6.047 40.229,4.134 39.929,2.471 L39.929,2.471 C39.541,1.933 39.129,1.409 38.704,0.883 L38.704,0.883 C28.899,1.383 17.608,1.558 4.829,1.395 M10.393,14.351 C8.355,14.587 9.555,18.026 5.879,16.051 L5.879,16.051 C6.004,16.451 6.128,16.851 6.254,17.263 L6.254,17.263 C7.267,17.876 8.292,17.939 9.317,17.413 L9.317,17.413 C9.793,17.176 10.368,16.426 10.855,16.438 L10.855,16.438 C11.156,16.438 11.569,16.551 12.119,16.738 L12.119,16.738 C12.969,16.864 13.469,16.738 13.644,16.376 L13.644,16.376 C12.369,16.564 12.444,15.063 11.569,14.576 L11.569,14.576 C11.296,14.422 10.965,14.346 10.569,14.346 L10.569,14.346 C10.511,14.346 10.453,14.347 10.393,14.351 M15.157,15.863 C14.795,16.313 19.609,15.376 20.909,15.213 L20.909,15.213 C19.684,15.013 18.709,14.826 17.983,14.675 L17.983,14.675 C16.871,14.801 15.92,15.2 15.157,15.863" id="path-49"></path>
        <path d="M8.932,3.16 C8.307,4.823 5.581,6.048 0.804,6.849 L0.804,6.849 C1.642,7.299 2.905,7.299 4.568,6.874 L4.568,6.874 C11.258,5.648 14.084,4.485 13.06,3.372 L13.06,3.372 C10.707,2.609 12.583,1.796 18.649,0.934 L18.649,0.934 C18.773,0.934 18.877,0.924 18.979,0.931 L18.979,0.931 C17.336,0.781 15.894,0.706 14.653,0.706 L14.653,0.706 C10.563,0.706 8.654,1.521 8.932,3.16 M19.01,0.934 C19,0.933 18.99,0.932 18.979,0.931 L18.979,0.931 C18.989,0.932 19,0.933 19.01,0.934" id="path-51"></path>
        <path id="path-53" d="M6.052,0.447 C4.063,0.498 2.488,0.811 1.312,1.41 L1.312,1.41 C-1.451,2.698 3.863,4.4 5.113,4.849 L5.113,4.849 C7.002,5.537 8.44,5.874 8.053,3.149 L8.053,3.149 C7.902,2.174 8.665,2.299 10.303,3.537 L10.303,3.537 C11.754,4.4 12.354,3.75 11.566,2.473 L11.566,2.473 C10.544,0.798 8.479,0.44 6.561,0.44 L6.561,0.44 C6.389,0.44 6.22,0.442 6.052,0.447"></path>
        <path id="path-55" d="M5.889,0.447 C3.951,0.485 2.426,0.798 1.287,1.386 L1.287,1.386 C-1.389,2.65 3.762,4.287 4.976,4.724 L4.976,4.724 C6.802,5.387 8.215,5.725 7.827,3.075 L7.827,3.075 C7.69,2.123 8.428,2.237 10.003,3.449 L10.003,3.449 C11.416,4.287 12.016,3.65 11.241,2.41 L11.241,2.41 C10.245,0.786 8.253,0.439 6.399,0.439 L6.399,0.439 C6.227,0.439 6.057,0.442 5.889,0.447"></path>
        <path id="path-57" d="M5.889,0.548 C4.051,0.585 2.588,0.886 1.5,1.448 L1.5,1.448 C-1.064,2.661 3.863,4.224 5.027,4.637 L5.027,4.637 C6.765,5.274 8.116,5.6 7.74,3.061 L7.74,3.061 C7.614,2.148 8.315,2.261 9.828,3.412 L9.828,3.412 C11.178,4.224 11.74,3.624 11.016,2.424 L11.016,2.424 C10.057,0.864 8.126,0.542 6.328,0.542 L6.328,0.542 C6.181,0.542 6.034,0.544 5.889,0.548"></path>
        <path id="path-59" d="M1.588,1.36 C1.45,1.686 1.075,1.874 0.488,1.986 L0.488,1.986 C-0.388,2.399 0.276,2.661 2.45,2.773 L2.45,2.773 C3.175,2.786 4.113,3.161 5.289,3.899 L5.289,3.899 C5.489,4.174 5.765,4.162 6.089,3.861 L6.089,3.861 C6.352,3.324 6.202,2.836 5.603,2.373 L5.603,2.373 C5.289,2.237 5.052,2.011 4.915,1.698 L4.915,1.698 C4.85,1.436 5.364,1.473 6.414,1.811 L6.414,1.811 C7.253,2.048 7.602,2.024 7.552,1.798 L7.552,1.798 C6.84,1.298 5.964,0.973 4.902,0.811 L4.902,0.811 C2.813,0.861 1.713,1.036 1.588,1.36"></path>
        <path id="path-61" d="M0.137,1.301 C-0.051,3.177 0.611,5.328 2.137,7.704 L2.137,7.704 C2.287,12.018 2.887,14.482 3.95,15.107 L3.95,15.107 C4.888,14.144 5.501,13.307 5.801,12.631 L5.801,12.631 C5.588,12.355 4.788,10.329 3.388,6.566 L3.388,6.566 C2.187,5.453 1.349,3.452 0.862,0.989 L0.862,0.989 C0.847,0.988 0.832,0.988 0.818,0.988 L0.818,0.988 C0.57,0.988 0.325,1.089 0.137,1.301"></path>
        <path id="path-63" d="M0,0.963 L599.14,0.963 L599.14,313 L0,313 L0,0.963 Z"></path>
    </defs>
    <g id="Page-1" stroke="none" stroke-width="1" fill="none" fill-rule="evenodd" sketch:type="MSPage">
        <g id="Artboard-1" sketch:type="MSArtboardGroup" transform="translate(-376.000000, -280.000000)">
            <g id="Page-1" sketch:type="MSLayerGroup" transform="translate(375.000000, 279.000000)">
                <g id="Group-39" transform="translate(1.000000, 0.000000)">
                    <g id="Group-3">
                        <mask id="mask-2" sketch:name="Clip 2" fill="white">
                            <use xlink:href="#path-1"></use>
                        </mask>
                        <g id="Clip-2"></g>
                        <path d="M39.5889,204.3115 L40.8519,204.3115 C52.0309,204.3115 61.8729,212.1875 70.3629,227.9435 C74.7269,237.6345 76.9149,247.2135 76.9149,256.6685 L76.9149,260.2935 C76.9149,276.4745 71.6259,290.6545 61.0219,302.8215 C54.9319,309.6235 46.5289,313.0005 35.8129,313.0005 L0.4999,313.0005 L-0.0001,312.2865 L-0.0001,302.4705 L0.4999,301.7455 L37.0749,301.7455 C52.5819,301.7335 62.8359,291.4425 67.8369,270.8465 C68.6739,267.3215 69.0989,263.5695 69.0989,259.5675 L69.0989,257.3935 C69.0989,244.2995 64.9729,233.0215 56.7449,223.5815 C51.3559,218.2525 45.8909,215.5895 40.3519,215.5895 L39.5889,215.5895 L39.0889,214.8525 L39.0889,205.0375 L39.5889,204.3115 Z" id="Fill-1" fill="#FF0030" sketch:type="MSShapeGroup" mask="url(#mask-2)"></path>
                    </g>
                    <path d="M151.8169,262.3193 L96.5849,262.3193 C92.5579,262.3193 90.5329,264.0823 90.5329,267.6083 C91.0329,270.6343 92.5579,272.1473 95.0719,272.1473 L156.6059,272.1473 L156.6059,261.3063 C155.1429,261.9823 153.5429,262.3193 151.8169,262.3193 L151.8169,262.3193 Z M83.7299,238.3603 L150.8039,238.3603 C156.9059,238.3603 161.0209,241.1363 163.1579,246.6753 L163.6709,249.7143 L163.6709,278.7133 L163.1579,279.2133 L94.8219,279.2133 C89.3939,279.2133 85.6179,275.9373 83.4669,269.3723 L83.2169,267.3593 C83.2169,261.5563 86.5059,257.6053 93.0589,255.5033 L96.8349,255.2553 L151.8169,255.2553 C155.0059,254.7543 156.6059,253.1523 156.6059,250.4653 C156.6059,247.1003 154.5929,245.4243 150.5539,245.4243 L83.7299,245.4243 L83.2169,244.9123 L83.2169,238.8613 L83.7299,238.3603 Z" id="Fill-4" fill="#FF0030" sketch:type="MSShapeGroup"></path>
                    <path d="M263.7817,245.4248 L263.7817,256.2668 C265.9327,255.5918 267.9457,255.2548 269.8467,255.2548 L324.5657,255.2548 C328.2677,255.2548 330.1177,253.4038 330.1177,249.7138 C330.1177,247.5258 328.4297,246.0888 325.0677,245.4248 L263.7817,245.4248 Z M257.2297,238.3608 L324.3177,238.3608 C330.4557,238.3608 334.5697,241.2118 336.6707,246.9388 L337.1837,249.9638 L337.1837,250.4658 C337.1837,256.2288 333.9827,260.0928 327.5917,262.0688 L325.3287,262.3198 L270.0967,262.3198 C266.0577,262.3198 264.0447,263.8318 264.0447,266.8588 L264.0447,267.6088 C264.0447,270.3838 265.7197,271.8978 269.0837,272.1478 L336.6707,272.1478 L337.1837,272.6598 L337.1837,278.7128 L336.6707,279.2128 L268.3337,279.2128 C263.3197,279.2128 259.7177,276.4368 257.4917,270.8978 C256.9797,270.0098 256.7297,267.9848 256.7297,264.8318 L256.7297,238.8608 L257.2297,238.3608 Z" id="Fill-6" fill="#FF0030" sketch:type="MSShapeGroup"></path>
                    <path d="M343.9863,238.3604 L411.0723,238.3604 C417.2873,238.3604 421.4893,241.3854 423.6773,247.4394 L423.9253,250.2144 L423.6773,250.4654 L417.3753,250.4654 C416.8623,250.3394 416.6113,249.6644 416.6113,248.4514 C415.3613,246.4244 413.7603,245.4244 411.8233,245.4244 L350.5383,245.4244 L350.5383,278.7124 L350.0383,279.2124 L343.9863,279.2124 L343.4843,278.7124 L343.4843,238.8614 L343.9863,238.3604 Z" id="Fill-8" fill="#FF0030" sketch:type="MSShapeGroup"></path>
                    <path d="M519.1992,238.3604 L586.0352,238.3604 C592.0882,238.3604 596.2022,241.0484 598.3902,246.4244 C598.8892,247.8644 599.1392,249.9644 599.1392,252.7274 L599.1392,278.7124 L598.6392,279.2124 L592.5872,279.2124 L592.0882,278.7124 L592.0882,251.9784 C592.0882,247.6014 590.1492,245.4244 586.2862,245.4244 L525.7512,245.4244 L525.7512,278.7124 L525.2502,279.2124 L519.1992,279.2124 L518.6982,278.7124 L518.6982,238.8614 L519.1992,238.3604 Z" id="Fill-10" fill="#00BAFF" sketch:type="MSShapeGroup"></path>
                    <path d="M172.3364,59.0088 C172.4234,58.9338 172.5484,58.9588 172.6244,59.0468 C186.4044,76.8898 210.0124,109.6518 227.1814,135.3728 L227.2064,135.4108 C227.4194,135.7358 227.5314,136.1238 227.5314,136.5238 C227.4314,144.3398 227.3194,152.1548 227.1304,159.9828 C226.1694,196.5698 222.5294,204.9238 199.5974,212.8628 C232.2214,213.2648 217.9784,213.0888 257.7054,213.6268 C257.8164,213.6268 257.9054,213.7138 257.9054,213.8258 C257.9174,213.9398 257.8164,214.0268 257.7054,214.0268 C217.8154,214.5768 233.9084,214.3638 193.2564,214.8638 C192.8184,214.8768 192.4064,214.6018 192.2564,214.1638 C192.0684,213.6138 192.3694,213.0268 192.9194,212.8388 L192.9444,212.8388 C219.6284,203.9608 223.4554,198.8198 223.6304,159.9318 C223.6684,152.3668 223.5434,144.7768 223.4424,137.1868 C205.6984,111.9528 183.8664,78.4278 172.2864,59.2838 C172.2364,59.1838 172.2494,59.0708 172.3364,59.0088 M274.7604,61.0968 C254.2664,90.4948 239.3354,114.3158 232.1084,126.8588 C241.6494,115.0418 259.4934,91.0958 280.1504,60.2838 L282.2634,57.1328 L278.5124,57.1708 C262.6944,57.3588 240.6484,57.9588 225.4804,59.1588 C239.6114,60.2838 260.1054,60.8978 274.7604,61.0968" id="Fill-12" fill="#FFFFFF" sketch:type="MSShapeGroup"></path>
                    <path d="M185.6538,69.2124 C190.4308,66.0984 195.6328,63.0104 204.9358,63.0104 C224.6308,63.0104 224.6308,75.4014 244.3378,75.4014 C254.5918,75.4014 259.2558,72.3134 264.3198,69.2124 C246.1888,95.7464 235.9468,112.2404 228.9818,124.0694 C228.5198,124.8324 227.7188,125.3074 226.8318,125.3444 C225.9558,125.3694 225.1178,124.9324 224.6178,124.2074 C211.6388,105.1004 197.0578,84.5554 185.6538,69.2124" id="Fill-14" fill="#00BAFF" sketch:type="MSShapeGroup"></path>
                    <path d="M226.6689,119.8804 C232.2829,113.5904 240.5859,100.5234 243.8499,92.4084 C237.5349,98.8604 229.6949,111.3274 226.6689,119.8804" id="Fill-16" fill="#FFFFFF" sketch:type="MSShapeGroup"></path>
                    <path d="M220.5537,103 L220.8047,103.35 L220.4537,103.6 L217.0527,105.926 L216.7647,106.126 L216.5767,105.838 C215.4897,104.237 212.7137,100.123 211.1877,97.722 C212.7137,99.611 215.3767,103.125 216.9277,105.163 L219.6167,103.162 C209.9377,90.007 202.1977,78.628 198.7587,73.238 C202.7357,78.203 211.0377,89.27 220.5537,103" id="Fill-18" fill="#FFFFFF" sketch:type="MSShapeGroup"></path>
                    <path d="M173.4868,41.4268 C174.4128,40.7648 175.6998,40.9768 176.3628,41.9028 L191.4688,63.0348 C190.1558,63.5978 188.9178,64.2228 187.7298,64.8988 L174.2128,45.9788 L153.7168,60.6338 L151.3168,57.2698 L173.4868,41.4268 Z" id="Fill-20" fill="#FFFFFF" sketch:type="MSShapeGroup"></path>
                    <path d="M370.7822,37.5264 C393.6172,35.9504 423.7402,35.6634 432.8302,35.5374 L434.7942,35.5124 L434.8052,37.5264 C434.9182,54.7824 420.5372,68.1874 403.0082,74.7264 C401.0552,88.5944 394.2422,104.0624 381.8242,110.0514 C393.1542,102.4114 398.7182,87.0314 399.7552,73.3134 L399.8312,72.2884 L400.8432,71.8754 C415.2372,66.0484 429.4292,54.9444 430.7422,39.4764 C423.8522,39.3884 393.4902,39.0894 370.7822,37.5264 M338.4212,74.7014 C340.4232,95.4844 352.2262,113.7284 368.7562,115.0534 C368.8562,123.9574 368.9712,132.8604 368.9952,141.7504 C369.1452,201.0464 365.6792,201.3464 339.4092,211.9384 L339.3852,211.9504 C338.9102,212.1384 338.6832,212.6894 338.8722,213.1644 C339.0222,213.5264 339.3722,213.7524 339.7472,213.7524 L401.7942,213.0134 C401.9192,213.0134 402.0072,212.9264 402.0072,212.8144 C402.0072,212.7014 401.9192,212.6144 401.7942,212.6144 L344.7352,211.9384 C369.1192,202.6484 371.3842,196.6584 372.4332,141.7884 L372.8202,113.0784 C372.8342,111.9654 371.9462,111.0524 370.8322,111.0394 L370.7822,111.0394 C358.8162,110.9524 344.9352,98.0474 341.8592,73.3014 L341.8592,73.2134 C341.7732,72.5514 341.3222,72.0254 340.7212,71.8134 C324.8792,66.1614 309.7722,54.3324 308.9352,37.5264 C308.9232,37.4004 308.8352,37.3134 308.7222,37.3254 C308.6102,37.3254 308.5222,37.4134 308.5222,37.5264 C307.6352,54.6194 322.3152,67.9374 338.4212,74.7014" id="Fill-22" fill="#FFFFFF" sketch:type="MSShapeGroup"></path>
                    <path d="M316.251,47.667 C322.666,44.528 329.943,41.44 342.411,41.44 C369.683,41.44 369.683,53.895 396.955,53.895 C411.147,53.895 417.538,50.794 424.59,47.667 C418.812,59.421 404.245,66.049 399.307,68.049 C397.142,68.925 396.33,69.025 396.004,69.525 C395.691,69.988 395.806,70.813 395.641,73.001 C393.88,96.397 383.337,107.189 372.371,107.126 C360.779,107.076 348.7,94.934 345.962,72.789 L345.95,72.713 C345.673,70.513 344.21,68.674 342.11,67.924 C331.419,64.11 321.553,57.92 316.251,47.667" id="Fill-24" fill="#FF0030" sketch:type="MSShapeGroup"></path>
                    <path d="M372.3838,103 C383.7128,105.038 392.9778,89.044 391.5288,72.689 C388.9018,83.442 385.2998,101.024 372.3838,103" id="Fill-26" fill="#FFFFFF" sketch:type="MSShapeGroup"></path>
                    <path d="M310.2109,32.0117 C310.2109,37.7007 314.8249,42.3277 320.5279,42.3277 C326.2169,42.3277 330.8439,37.7007 330.8439,32.0117 C330.8439,26.3087 326.2169,21.6957 320.5279,21.6957 C314.8249,21.6957 310.2109,26.3087 310.2109,32.0117" id="Fill-28" fill="#FF0030" sketch:type="MSShapeGroup"></path>
                    <path d="M320.5283,39.7393 C328.0423,42.4283 333.1563,29.9483 325.9923,26.5473 C328.6683,32.1993 326.4793,37.6263 320.5283,39.7393" id="Fill-30" fill="#FFFFFF" sketch:type="MSShapeGroup"></path>
                    <g id="Group-34">
                        <mask id="mask-4" sketch:name="Clip 33" fill="white">
                            <use xlink:href="#path-3"></use>
                        </mask>
                        <g id="Clip-33"></g>
                        <path d="M306.7852,8.0156 L336.9462,0.9626 C334.3332,2.9256 331.5692,5.4516 330.3312,8.8276 C326.5052,9.7906 324.2662,11.9296 323.0162,14.9306 C319.4272,15.5806 316.4012,17.5066 314.1252,20.7326 C310.1992,21.0826 307.0102,22.7456 304.6592,25.5336 C301.4462,25.0966 298.4702,25.9846 295.7062,28.8106 C292.1802,28.1856 288.6032,29.3236 285.6022,30.6106 L306.7852,8.0156 Z" id="Fill-32" fill="#FFBC00" sketch:type="MSShapeGroup" mask="url(#mask-4)"></path>
                    </g>
                    <path d="M305.3965,10.6162 C303.7835,15.1302 299.8705,22.4202 297.0935,26.2092 C298.6955,21.7582 302.5705,14.4672 305.3965,10.6162 M306.5225,10.2032 C306.7725,13.7922 306.0215,19.9322 304.9205,23.3332 C304.6705,19.7952 305.4105,13.6422 306.5225,10.2032 M307.7105,9.6032 C309.7725,11.8052 312.3375,16.2562 313.2115,19.1442 C311.1495,16.9432 308.5725,12.4912 307.7105,9.6032 M308.8105,8.8782 C312.3625,9.6402 318.0515,12.0792 320.9905,14.0672 C317.5025,13.3172 311.7985,10.9042 308.8105,8.8782 M327.3935,8.7162 C322.7285,7.8772 314.4755,7.5902 309.7365,8.1152 C314.4615,8.9662 322.7155,9.2412 327.3935,8.7162" id="Fill-35" fill="#FFFFFF" sketch:type="MSShapeGroup"></path>
                    <path d="M298.1938,203.7861 C311.4368,203.7861 322.1908,205.7111 322.1908,208.0751 C322.1908,210.4371 311.4368,212.3631 298.1938,212.3631 C284.9268,212.3631 274.1858,210.4371 274.1858,208.0751 C274.1858,205.7111 284.9268,203.7861 298.1938,203.7861" id="Fill-37" fill="#4A4A49" sketch:type="MSShapeGroup"></path>
                </g>
                <g id="Group-42" transform="translate(269.000000, 201.000000)">
                    <mask id="mask-6" sketch:name="Clip 41" fill="white">
                        <use xlink:href="#path-5"></use>
                    </mask>
                    <g id="Clip-41"></g>
                    <path d="M0.059,5.399 C0.059,7.963 12.889,10.062 28.607,10.062 L28.607,10.062 C44.338,10.062 57.155,7.963 57.155,5.399 L57.155,5.399 C57.155,2.822 44.338,0.735 28.607,0.735 L28.607,0.735 C12.889,0.735 0.059,2.822 0.059,5.399" id="Fill-40" sketch:type="MSShapeGroup" mask="url(#mask-6)"></path>
                </g>
                <path d="M297.9063,209.1133 C313.6253,209.1133 326.4553,207.1993 326.4553,204.8603 C326.4553,202.5093 313.6253,200.5973 297.9063,200.5973 C282.1763,200.5973 269.3583,202.5093 269.3583,204.8603 C269.3583,207.1993 282.1763,209.1133 297.9063,209.1133" id="Fill-43" fill="#000000" sketch:type="MSShapeGroup"></path>
                <g id="Group-47" transform="translate(307.000000, 151.000000)">
                    <mask id="mask-8" sketch:name="Clip 46" fill="white">
                        <use xlink:href="#path-7"></use>
                    </mask>
                    <g id="Clip-46"></g>
                    <path d="M1.098,3.355 C2.586,4.318 4.073,5.293 5.536,6.269 L5.536,6.269 C7.762,6.281 10.001,6.294 12.227,6.331 L12.227,6.331 C9.163,4.456 6.111,2.568 3.061,0.705 L3.061,0.705 C2.781,0.642 2.528,0.611 2.303,0.611 L2.303,0.611 C1.094,0.611 0.687,1.521 1.098,3.355" id="Fill-45" sketch:type="MSShapeGroup" mask="url(#mask-8)"></path>
                </g>
                <g id="Group-50" transform="translate(269.000000, 143.000000)">
                    <mask id="mask-10" sketch:name="Clip 49" fill="white">
                        <use xlink:href="#path-9"></use>
                    </mask>
                    <g id="Clip-49"></g>
                    <path d="M4.598,2.252 C5.623,3.403 6.661,4.54 7.674,5.678 L7.674,5.678 C7.236,8.13 5.211,9.617 1.659,10.205 L1.659,10.205 C0.608,11.855 0.284,13.18 0.697,14.194 L0.697,14.194 C0.885,12.731 1.397,11.492 2.259,10.467 L2.259,10.467 C6.098,9.605 8.237,8.041 8.675,5.754 L8.675,5.754 C7.5,3.94 6.986,2.128 7.137,0.301 L7.137,0.301 C5.286,0.839 4.448,1.489 4.598,2.252" id="Fill-48" sketch:type="MSShapeGroup" mask="url(#mask-10)"></path>
                </g>
                <g id="Group-53" transform="translate(279.000000, 141.000000)">
                    <mask id="mask-12" sketch:name="Clip 52" fill="white">
                        <use xlink:href="#path-11"></use>
                    </mask>
                    <g id="Clip-52"></g>
                    <path d="M2.588,5.127 C2.338,7.391 2.088,9.654 1.838,11.93 L1.838,11.93 C3.789,11.717 5.739,11.505 7.69,11.279 L7.69,11.279 C7.515,9.192 7.353,7.091 7.19,4.99 L7.19,4.99 C4.889,3.564 2.588,2.139 0.288,0.714 L0.288,0.714 C1.05,2.189 1.813,3.652 2.588,5.127" id="Fill-51" sketch:type="MSShapeGroup" mask="url(#mask-12)"></path>
                </g>
                <g id="Group-56" transform="translate(269.000000, 152.000000)">
                    <mask id="mask-14" sketch:name="Clip 55" fill="white">
                        <use xlink:href="#path-13"></use>
                    </mask>
                    <g id="Clip-55"></g>
                    <path d="M1.659,1.205 C0.608,2.855 0.284,4.18 0.697,5.194 L0.697,5.194 C0.885,3.731 1.397,2.492 2.259,1.467 L2.259,1.467 C2.935,1.33 3.548,1.155 4.109,0.955 L4.109,0.955 L4.085,0.567 C3.386,0.842 2.571,1.042 1.659,1.205" id="Fill-54" sketch:type="MSShapeGroup" mask="url(#mask-14)"></path>
                </g>
                <path d="M297.6943,137.3115 C318.2013,137.3115 334.9083,135.5115 334.9083,133.3355 C334.9083,131.1465 318.2013,129.3595 297.6943,129.3595 C277.1993,129.3595 260.4933,131.1465 260.4933,133.3355 C260.4933,135.5115 277.1993,137.3115 297.6943,137.3115 L297.6943,137.3115 Z" id="Stroke-57" stroke="#4A4A49" stroke-width="0.03" sketch:type="MSShapeGroup"></path>
                <g id="Group-61" transform="translate(265.000000, 186.000000)">
                    <mask id="mask-16" sketch:name="Clip 60" fill="white">
                        <use xlink:href="#path-15"></use>
                    </mask>
                    <g id="Clip-60"></g>
                    <path d="M0.157,0.454 C0.67,6.382 1.196,12.309 1.72,18.222 L1.72,18.222 C1.72,20.274 15.588,21.937 32.694,21.937 L32.694,21.937 C49.813,21.937 63.693,20.274 63.693,18.222 L63.693,18.222 C64.205,12.309 64.718,6.382 65.243,0.454 L65.243,0.454 C49.839,3.755 23.254,4.406 0.157,0.454" id="Fill-59" sketch:type="MSShapeGroup" mask="url(#mask-16)"></path>
                </g>
                <g id="Group-64" transform="translate(271.000000, 187.000000)">
                    <mask id="mask-18" sketch:name="Clip 63" fill="white">
                        <use xlink:href="#path-17"></use>
                    </mask>
                    <g id="Clip-63"></g>
                    <path d="M3.048,19.624 C13.627,21.125 25.268,21.475 35.96,20.7 L35.96,20.7 L38.374,1.93 C26.707,2.517 13.377,2.105 0.66,0.441 L0.66,0.441 L3.048,19.624 Z" id="Fill-62" sketch:type="MSShapeGroup" mask="url(#mask-18)"></path>
                </g>
                <g id="Group-67" transform="translate(315.000000, 186.000000)">
                    <mask id="mask-20" sketch:name="Clip 66" fill="white">
                        <use xlink:href="#path-19"></use>
                    </mask>
                    <g id="Clip-66"></g>
                    <path d="M3.327,0.454 L0.801,21.237 C8.603,20.561 13.693,19.473 13.693,18.235 L13.693,18.235 C14.205,12.321 14.718,6.382 15.243,0.454 L15.243,0.454 L3.327,0.454 Z" id="Fill-65" sketch:type="MSShapeGroup" mask="url(#mask-20)"></path>
                </g>
                <g id="Group-70" transform="translate(303.000000, 186.000000)">
                    <mask id="mask-22" sketch:name="Clip 69" fill="white">
                        <use xlink:href="#path-21"></use>
                    </mask>
                    <g id="Clip-69"></g>
                    <path d="M2.047,0.454 L0.684,21.9 C9.701,21.824 17.116,21.011 21.504,20.087 L21.504,20.087 L22.754,0.454 L2.047,0.454 Z" id="Fill-68" sketch:type="MSShapeGroup" mask="url(#mask-22)"></path>
                </g>
                <path d="M297.6943,157.669 C316.9763,157.669 332.5933,158.532 332.5933,159.582 L330.2433,186.454 L267.0463,186.454 L265.1573,186.454 L262.8063,159.62 C262.7943,159.608 262.7943,159.595 262.7943,159.582 C262.7943,158.532 278.4243,157.669 297.6943,157.669" id="Fill-71" fill="#F9B200" sketch:type="MSShapeGroup"></path>
                <g id="Group-75" transform="translate(266.000000, 157.000000)">
                    <mask id="mask-24" sketch:name="Clip 74" fill="white">
                        <use xlink:href="#path-23"></use>
                    </mask>
                    <g id="Clip-74"></g>
                    <path d="M0.171,1.757 L1.858,29.454 L23.216,29.454 L23.616,0.719 C13.238,0.856 4.659,1.244 0.171,1.757" id="Fill-73" sketch:type="MSShapeGroup" mask="url(#mask-24)"></path>
                </g>
                <g id="Group-78" transform="translate(262.000000, 158.000000)">
                    <mask id="mask-26" sketch:name="Clip 77" fill="white">
                        <use xlink:href="#path-25"></use>
                    </mask>
                    <g id="Clip-77"></g>
                    <path d="M0.794,1.582 C0.794,1.595 0.794,1.608 0.806,1.619 L0.806,1.619 L3.157,28.454 L5.046,28.454 L13.01,28.454 L11.411,0.207 C4.871,0.556 0.794,1.044 0.794,1.582" id="Fill-76" sketch:type="MSShapeGroup" mask="url(#mask-26)"></path>
                </g>
                <g id="Group-81" transform="translate(304.000000, 157.000000)">
                    <mask id="mask-28" sketch:name="Clip 80" fill="white">
                        <use xlink:href="#path-27"></use>
                    </mask>
                    <g id="Clip-80"></g>
                    <path d="M0.684,29.454 L26.243,29.454 L28.594,2.582 C28.594,1.682 17.503,0.944 2.473,0.732 L2.473,0.732 L0.684,29.454 Z" id="Fill-79" sketch:type="MSShapeGroup" mask="url(#mask-28)"></path>
                </g>
                <g id="Group-84" transform="translate(320.000000, 158.000000)">
                    <mask id="mask-30" sketch:name="Clip 83" fill="white">
                        <use xlink:href="#path-29"></use>
                    </mask>
                    <g id="Clip-83"></g>
                    <path d="M0.902,28.454 L10.243,28.454 L12.594,1.582 C12.594,1.069 8.906,0.607 2.879,0.257 L2.879,0.257 L0.902,28.454 Z" id="Fill-82" sketch:type="MSShapeGroup" mask="url(#mask-30)"></path>
                </g>
                <path d="M297.6943,185.8164 C315.6633,185.8164 330.2433,186.1044 330.2433,186.4544 C330.2433,186.8044 316.4013,189.2804 298.4313,189.2804 C280.4633,189.2804 265.1573,186.8044 265.1573,186.4544 C265.1573,186.1044 279.7253,185.8164 297.6943,185.8164" id="Fill-85" fill="#4A4A49" sketch:type="MSShapeGroup"></path>
                <g id="Group-89" transform="translate(270.000000, 185.000000)">
                    <mask id="mask-32" sketch:name="Clip 88" fill="white">
                        <use xlink:href="#path-31"></use>
                    </mask>
                    <g id="Clip-88"></g>
                    <path d="M2.585,1.042 C0.96,1.454 0.059,1.892 0.059,2.38 L0.059,2.38 L0.059,2.392 C5.973,3.218 16.628,4.281 28.432,4.281 L28.432,4.281 C33.322,4.281 37.897,4.081 41.974,3.817 L41.974,3.817 C43.875,3.392 44.963,2.905 44.963,2.38 L44.963,2.38 C44.963,1.816 43.75,1.303 41.674,0.879 L41.674,0.879 C37.435,0.829 32.696,0.816 27.694,0.816 L27.694,0.816 C17.59,0.816 8.55,0.905 2.585,1.042" id="Fill-87" sketch:type="MSShapeGroup" mask="url(#mask-32)"></path>
                </g>
                <g id="Group-92" transform="translate(262.000000, 157.000000)">
                    <mask id="mask-34" sketch:name="Clip 91" fill="white">
                        <use xlink:href="#path-33"></use>
                    </mask>
                    <g id="Clip-91"></g>
                    <path d="M0.794,2.557 C0.794,3.595 16.474,4.458 35.694,4.458 L35.694,4.458 C54.927,4.458 70.594,3.595 70.594,2.557 L70.594,2.557 C70.594,1.494 54.927,0.656 35.694,0.656 L35.694,0.656 C16.474,0.656 0.794,1.494 0.794,2.557" id="Fill-90" sketch:type="MSShapeGroup" mask="url(#mask-34)"></path>
                </g>
                <g id="Group-95" transform="translate(295.000000, 158.000000)">
                    <mask id="mask-36" sketch:name="Clip 94" fill="white">
                        <use xlink:href="#path-35"></use>
                    </mask>
                    <g id="Clip-94"></g>
                    <path d="M6.796,2.02 C2.407,2.083 0.38,2.257 0.718,2.558 L0.718,2.558 L8.022,2.558 C7.871,2.395 7.72,2.232 7.583,2.069 L7.583,2.069 C9.709,1.933 12.585,2.107 16.188,2.595 L16.188,2.595 C18.689,2.52 20.788,2.145 22.488,1.457 L22.488,1.457 C20.388,1.657 18.287,1.87 16.188,2.069 L16.188,2.069 C12.86,1.582 9.558,1.069 6.246,0.582 L6.246,0.582 C6.42,1.069 6.608,1.545 6.796,2.02" id="Fill-93" sketch:type="MSShapeGroup" mask="url(#mask-36)"></path>
                </g>
                <g id="Group-98" transform="translate(321.000000, 158.000000)">
                    <mask id="mask-38" sketch:name="Clip 97" fill="white">
                        <use xlink:href="#path-37"></use>
                    </mask>
                    <g id="Clip-97"></g>
                    <path d="M0.89,2.921 C7.479,2.582 11.594,2.094 11.594,1.557 L11.594,1.557 C11.594,1.02 7.479,0.532 0.89,0.182 L0.89,0.182 L0.89,2.921 Z" id="Fill-96" sketch:type="MSShapeGroup" mask="url(#mask-38)"></path>
                </g>
                <g id="Group-105" transform="translate(284.000000, 160.000000)" sketch:type="MSShapeGroup">
                    <path d="M19.709,26.4541 C29.338,26.2171 37.153,26.4921 37.165,27.0671 C37.177,27.6421 29.388,28.3061 19.759,28.5431 C10.13,28.7801 2.315,28.5051 2.303,27.9431 C2.278,27.3671 10.081,26.6911 19.709,26.4541" id="Fill-99" fill="#F9F4EF"></path>
                    <path d="M4.8291,1.395 C2.7901,3.396 1.4401,5.684 0.8021,8.273 C0.8151,9.26 1.9521,10.424 4.2161,11.736 C4.5411,12.462 5.1411,14.012 6.0041,16.375 C6.3291,18.827 9.7051,21.228 16.1201,23.565 C22.5471,24.353 29.5241,24.329 37.1031,23.49 C40.6161,21.365 42.9801,17.489 44.2171,11.874 C43.6551,8.311 41.8161,4.646 38.7041,0.883 C28.8991,1.383 17.6081,1.558 4.8291,1.395" id="Fill-101" fill="#FFD600"></path>
                    <path d="M4.8291,1.395 C2.7901,3.396 1.4401,5.684 0.8021,8.273 C0.8151,9.26 1.9521,10.424 4.2161,11.736 C4.5411,12.462 5.1411,14.012 6.0041,16.375 C6.3291,18.827 9.7051,21.228 16.1201,23.565 C22.5471,24.353 29.5241,24.329 37.1031,23.49 C40.6161,21.365 42.9801,17.489 44.2171,11.874 C43.6551,8.311 41.8161,4.646 38.7041,0.883 C28.8991,1.383 17.6081,1.558 4.8291,1.395 L4.8291,1.395 Z" id="Stroke-103" stroke="#FFCC00" stroke-width="0.03"></path>
                </g>
                <g id="Group-108" transform="translate(291.000000, 166.000000)">
                    <mask id="mask-40" sketch:name="Clip 107" fill="white">
                        <use xlink:href="#path-39"></use>
                    </mask>
                    <g id="Clip-107"></g>
                    <path d="M0.604,4.161 C4.469,7.212 9.095,8.276 14.509,7.35 L14.509,7.35 C13.334,5.799 12.158,4.248 10.983,2.699 L10.983,2.699 C8.864,1.432 7.014,0.799 5.437,0.799 L5.437,0.799 C3.339,0.799 1.726,1.919 0.604,4.161" id="Fill-106" sketch:type="MSShapeGroup" mask="url(#mask-40)"></path>
                </g>
                <g id="Group-111" transform="translate(300.000000, 181.000000)">
                    <mask id="mask-42" sketch:name="Clip 110" fill="white">
                        <use xlink:href="#path-41"></use>
                    </mask>
                    <g id="Clip-110"></g>
                    <path d="M5.447,0.164 C3.934,0.515 2.359,1.04 0.707,1.753 L0.707,1.753 C0.745,2.078 0.784,2.366 0.857,2.653 L0.857,2.653 C4.496,3.053 8.323,3.203 12.349,3.104 L12.349,3.104 C13.2,2.679 14.113,2.203 15.064,1.677 L15.064,1.677 C11.162,0.753 8.198,0.19 6.172,0.028 L6.172,0.028 C5.922,0.065 5.685,0.128 5.447,0.164" id="Fill-109" sketch:type="MSShapeGroup" mask="url(#mask-42)"></path>
                </g>
                <path d="M300.8574,183.6533 C304.4964,184.0533 308.3234,184.2033 312.3494,184.1033 C313.2004,183.6783 314.1134,183.2033 315.0634,182.6773 C311.1624,181.7533 308.1984,181.1893 306.1724,181.0273 C305.9224,181.0653 305.6844,181.1273 305.4464,181.1643 C303.9334,181.5153 302.3584,182.0403 300.7074,182.7533 C300.7454,183.0783 300.7834,183.3663 300.8574,183.6533 L300.8574,183.6533 Z" id="Stroke-112" stroke="#FFCC00" stroke-width="0.03" sketch:type="MSShapeGroup"></path>
                <g id="Group-116" transform="translate(300.000000, 181.000000)">
                    <mask id="mask-44" sketch:name="Clip 115" fill="white">
                        <use xlink:href="#path-43"></use>
                    </mask>
                    <g id="Clip-115"></g>
                    <path d="M0.946,1.802 C1.084,2.128 1.246,2.429 1.408,2.716 L1.408,2.716 C5.059,3.091 8.884,3.215 12.887,3.079 L12.887,3.079 C13.55,2.716 14.226,2.279 14.924,1.802 L14.924,1.802 C12.443,1.221 10.036,0.931 7.706,0.931 L7.706,0.931 C5.375,0.931 3.121,1.221 0.946,1.802" id="Fill-114" sketch:type="MSShapeGroup" mask="url(#mask-44)"></path>
                </g>
                <path d="M301.4082,183.7158 C305.0592,184.0908 308.8852,184.2158 312.8862,184.0788 C313.5502,183.7158 314.2252,183.2788 314.9252,182.8028 C309.9612,181.6398 305.2972,181.6398 300.9462,182.8028 C301.0842,183.1278 301.2462,183.4288 301.4082,183.7158 L301.4082,183.7158 Z" id="Stroke-117" stroke="#FFCC00" stroke-width="0.03" sketch:type="MSShapeGroup"></path>
                <g id="Group-121" transform="translate(309.000000, 169.000000)">
                    <mask id="mask-46" sketch:name="Clip 120" fill="white">
                        <use xlink:href="#path-45"></use>
                    </mask>
                    <g id="Clip-120"></g>
                    <path d="M2.3,2.349 C2.974,3.762 -0.489,7.063 3.75,8.939 L3.75,8.939 C5.825,10.227 12.353,9.789 11.465,10.939 L11.465,10.939 C10.052,12.477 6.275,13.59 0.124,14.303 L0.124,14.303 C9.127,15.392 14.153,13.878 15.179,9.764 L15.179,9.764 C11.078,3.661 7.746,0.612 5.193,0.612 L5.193,0.612 C4.08,0.612 3.116,1.191 2.3,2.349" id="Fill-119" sketch:type="MSShapeGroup" mask="url(#mask-46)"></path>
                </g>
                <g id="Group-124" transform="translate(300.000000, 169.000000)">
                    <mask id="mask-48" sketch:name="Clip 123" fill="white">
                        <use xlink:href="#path-47"></use>
                    </mask>
                    <g id="Clip-123"></g>
                    <path d="M11.111,0.686 C10.262,2.224 10.949,4.262 16.151,6.463 L16.151,6.463 C19.54,8.101 22.052,9.601 20.678,11.315 L20.678,11.315 C18.19,13.578 11.612,14.416 0.946,13.802 L0.946,13.802 C1.771,14.653 6.51,14.991 15.187,14.778 L15.187,14.778 C22.503,14.141 24.991,11.615 22.603,7.214 L22.603,7.214 C20.959,2.771 17.846,0.538 13.256,0.538 L13.256,0.538 C12.574,0.538 11.859,0.587 11.111,0.686" id="Fill-122" sketch:type="MSShapeGroup" mask="url(#mask-48)"></path>
                </g>
                <path d="M311.1113,169.686 C310.2613,171.224 310.9493,173.262 316.1513,175.463 C319.5403,177.101 322.0523,178.602 320.6773,180.315 C318.1893,182.578 311.6123,183.416 300.9463,182.803 C301.7703,183.653 306.5103,183.991 315.1873,183.778 C322.5033,183.141 324.9913,180.615 322.6033,176.213 C320.7143,171.111 316.8883,168.923 311.1113,169.686 L311.1113,169.686 Z" id="Stroke-125" stroke="#FFCC00" stroke-width="0.03" sketch:type="MSShapeGroup"></path>
                <g id="Group-129" transform="translate(284.000000, 160.000000)">
                    <mask id="mask-50" sketch:name="Clip 128" fill="white">
                        <use xlink:href="#path-49"></use>
                    </mask>
                    <g id="Clip-128"></g>
                    <path d="M4.829,1.395 C2.79,3.396 1.439,5.684 0.801,8.273 L0.801,8.273 C0.815,9.26 1.952,10.424 4.216,11.736 L4.216,11.736 C5.754,11.424 5.829,10.599 4.441,9.26 L4.441,9.26 C3.141,7.51 3.491,6.722 5.491,6.923 L5.491,6.923 C5.416,9.76 7.118,10.761 10.568,9.874 L10.568,9.874 C17.258,8.648 20.084,7.485 19.06,6.372 L19.06,6.372 C16.707,5.609 18.583,4.796 24.649,3.934 L24.649,3.934 C25.611,3.883 26.149,4.059 26.273,4.471 L26.273,4.471 C26.711,5.935 23.811,6.898 26.848,8.123 L26.848,8.123 C28.674,8.861 32.213,8.886 37.453,8.173 L37.453,8.173 C39.416,6.047 40.229,4.134 39.929,2.471 L39.929,2.471 C39.541,1.933 39.129,1.409 38.704,0.883 L38.704,0.883 C28.899,1.383 17.608,1.558 4.829,1.395 M10.393,14.351 C8.355,14.587 9.555,18.026 5.879,16.051 L5.879,16.051 C6.004,16.451 6.128,16.851 6.254,17.263 L6.254,17.263 C7.267,17.876 8.292,17.939 9.317,17.413 L9.317,17.413 C9.793,17.176 10.368,16.426 10.855,16.438 L10.855,16.438 C11.156,16.438 11.569,16.551 12.119,16.738 L12.119,16.738 C12.969,16.864 13.469,16.738 13.644,16.376 L13.644,16.376 C12.369,16.564 12.444,15.063 11.569,14.576 L11.569,14.576 C11.296,14.422 10.965,14.346 10.569,14.346 L10.569,14.346 C10.511,14.346 10.453,14.347 10.393,14.351 M15.157,15.863 C14.795,16.313 19.609,15.376 20.909,15.213 L20.909,15.213 C19.684,15.013 18.709,14.826 17.983,14.675 L17.983,14.675 C16.871,14.801 15.92,15.2 15.157,15.863" id="Fill-127" sketch:type="MSShapeGroup" mask="url(#mask-50)"></path>
                </g>
                <g id="Group-132" transform="translate(290.000000, 163.000000)">
                    <mask id="mask-52" sketch:name="Clip 131" fill="white">
                        <use xlink:href="#path-51"></use>
                    </mask>
                    <g id="Clip-131"></g>
                    <path d="M8.932,3.16 C8.307,4.823 5.581,6.048 0.804,6.849 L0.804,6.849 C1.642,7.299 2.905,7.299 4.568,6.874 L4.568,6.874 C11.258,5.648 14.084,4.485 13.06,3.372 L13.06,3.372 C10.707,2.609 12.583,1.796 18.649,0.934 L18.649,0.934 C18.773,0.934 18.877,0.924 18.979,0.931 L18.979,0.931 C17.336,0.781 15.894,0.706 14.653,0.706 L14.653,0.706 C10.563,0.706 8.654,1.521 8.932,3.16 M19.01,0.934 C19,0.933 18.99,0.932 18.979,0.931 L18.979,0.931 C18.989,0.932 19,0.933 19.01,0.934" id="Fill-130" sketch:type="MSShapeGroup" mask="url(#mask-52)"></path>
                </g>
                <path d="M323.9287,162.4707 L323.9287,162.4707 C323.7157,162.1587 323.4777,161.8457 323.2417,161.5457 L323.2287,161.5207 C323.0527,161.3077 322.8787,161.0957 322.7037,160.8827 C312.9627,161.3837 301.7327,161.5577 289.0417,161.3947 C286.7157,163.8467 285.4907,166.0967 285.3657,168.1597 C285.5027,167.5097 285.8277,167.5977 286.3277,168.4227 C287.1027,169.9107 287.5407,170.3607 287.6277,169.7857 C286.7277,167.7977 286.4147,166.6347 286.6657,166.2727 C286.8277,165.4217 287.8907,165.0347 289.8167,165.0837 C290.4917,165.3467 290.7797,165.8597 290.6917,166.5967 C291.0917,166.5347 291.1667,165.8847 290.9037,164.6467 C290.3667,163.1457 292.4927,162.3957 297.2437,162.3837 C298.0447,162.4957 298.8577,163.3087 299.7327,164.8337 C300.1817,165.4597 300.6707,165.5217 301.1837,165.0087 C299.8067,163.3467 299.4707,162.4087 300.1817,162.2207 C301.9087,161.5957 305.6217,161.7197 311.3357,162.6457 C312.0367,162.7587 312.1117,163.3707 311.5867,164.4337 C310.7987,165.6477 311.5867,166.5847 313.9517,167.2217 C305.7857,171.4987 317.1637,173.1617 320.7407,176.9137 C323.5287,179.8017 320.4397,181.4527 317.8767,182.1157 C315.1257,182.8157 311.0367,183.2657 305.6217,183.4657 C301.3587,183.1777 297.0567,182.0277 292.7667,180.0027 C294.4427,181.2027 296.8937,182.3897 300.1197,183.5657 C306.5467,184.3537 313.8507,184.5037 321.4277,183.6787 C324.9287,181.5527 327.2297,177.4637 328.4677,171.8367 C327.9677,168.7857 326.3047,165.6837 323.9287,162.4707" id="Fill-133" fill="#000000" sketch:type="MSShapeGroup"></path>
                <g id="Group-137" transform="translate(312.000000, 168.000000)">
                    <mask id="mask-54" sketch:name="Clip 136" fill="white">
                        <use xlink:href="#path-53"></use>
                    </mask>
                    <g id="Clip-136"></g>
                    <path d="M6.052,0.447 C4.063,0.498 2.488,0.811 1.312,1.41 L1.312,1.41 C-1.451,2.698 3.863,4.4 5.113,4.849 L5.113,4.849 C7.002,5.537 8.44,5.874 8.053,3.149 L8.053,3.149 C7.902,2.174 8.665,2.299 10.303,3.537 L10.303,3.537 C11.754,4.4 12.354,3.75 11.566,2.473 L11.566,2.473 C10.544,0.798 8.479,0.44 6.561,0.44 L6.561,0.44 C6.389,0.44 6.22,0.442 6.052,0.447" id="Fill-135" sketch:type="MSShapeGroup" mask="url(#mask-54)"></path>
                </g>
                <g id="Group-140" transform="translate(312.000000, 168.000000)">
                    <mask id="mask-56" sketch:name="Clip 139" fill="white">
                        <use xlink:href="#path-55"></use>
                    </mask>
                    <g id="Clip-139"></g>
                    <path d="M5.889,0.447 C3.951,0.485 2.426,0.798 1.287,1.386 L1.287,1.386 C-1.389,2.65 3.762,4.287 4.976,4.724 L4.976,4.724 C6.802,5.387 8.215,5.725 7.827,3.075 L7.827,3.075 C7.69,2.123 8.428,2.237 10.003,3.449 L10.003,3.449 C11.416,4.287 12.016,3.65 11.241,2.41 L11.241,2.41 C10.245,0.786 8.253,0.439 6.399,0.439 L6.399,0.439 C6.227,0.439 6.057,0.442 5.889,0.447" id="Fill-138" sketch:type="MSShapeGroup" mask="url(#mask-56)"></path>
                </g>
                <g id="Group-143" transform="translate(312.000000, 168.000000)">
                    <mask id="mask-58" sketch:name="Clip 142" fill="white">
                        <use xlink:href="#path-57"></use>
                    </mask>
                    <g id="Clip-142"></g>
                    <path d="M5.889,0.548 C4.051,0.585 2.588,0.886 1.5,1.448 L1.5,1.448 C-1.064,2.661 3.863,4.224 5.027,4.637 L5.027,4.637 C6.765,5.274 8.116,5.6 7.74,3.061 L7.74,3.061 C7.614,2.148 8.315,2.261 9.828,3.412 L9.828,3.412 C11.178,4.224 11.74,3.624 11.016,2.424 L11.016,2.424 C10.057,0.864 8.126,0.542 6.328,0.542 L6.328,0.542 C6.181,0.542 6.034,0.544 5.889,0.548" id="Fill-141" sketch:type="MSShapeGroup" mask="url(#mask-58)"></path>
                </g>
                <g id="Group-146" transform="translate(313.000000, 168.000000)">
                    <mask id="mask-60" sketch:name="Clip 145" fill="white">
                        <use xlink:href="#path-59"></use>
                    </mask>
                    <g id="Clip-145"></g>
                    <path d="M1.588,1.36 C1.45,1.686 1.075,1.874 0.488,1.986 L0.488,1.986 C-0.388,2.399 0.276,2.661 2.45,2.773 L2.45,2.773 C3.175,2.786 4.113,3.161 5.289,3.899 L5.289,3.899 C5.489,4.174 5.765,4.162 6.089,3.861 L6.089,3.861 C6.352,3.324 6.202,2.836 5.603,2.373 L5.603,2.373 C5.289,2.237 5.052,2.011 4.915,1.698 L4.915,1.698 C4.85,1.436 5.364,1.473 6.414,1.811 L6.414,1.811 C7.253,2.048 7.602,2.024 7.552,1.798 L7.552,1.798 C6.84,1.298 5.964,0.973 4.902,0.811 L4.902,0.811 C2.813,0.861 1.713,1.036 1.588,1.36" id="Fill-144" sketch:type="MSShapeGroup" mask="url(#mask-60)"></path>
                </g>
                <g id="Group-163" transform="translate(264.000000, 141.000000)" sketch:type="MSShapeGroup">
                    <path d="M25.5791,19.3569 C27.3291,17.3939 28.5301,15.7939 29.2051,14.5939 C30.5811,14.6439 31.4311,14.0809 31.7561,12.9299 C32.9561,11.9799 34.1941,11.1299 35.4701,10.3539 C37.1701,10.4919 38.8951,10.6299 40.6711,10.7669 C42.1721,10.4919 43.2851,10.2299 44.0611,9.9549 C44.6611,9.9419 45.3231,10.2049 46.0601,10.7049 C44.6981,10.1789 43.8601,10.0419 43.5851,10.2669 C42.7971,10.7169 41.9971,10.9919 41.1721,11.0799 C40.6591,11.1799 41.2101,11.5799 42.8591,12.2919 C43.3221,12.5929 43.7481,12.9429 44.0981,13.3549 C43.2601,12.7049 42.6841,12.3919 42.4101,12.4049 C41.9341,12.4799 42.4731,13.2929 44.0351,14.8429 C42.8591,14.2929 42.1721,13.4559 42.0101,12.3299 C41.0711,11.8419 40.5721,11.4289 40.5091,11.0799 C37.2961,10.6299 35.7951,10.7549 35.9951,11.4799 C36.0571,12.1049 36.2071,12.8299 36.4581,13.6679 C36.6331,14.8929 36.3071,14.0429 35.4941,11.0669 C33.4811,11.7919 32.3311,12.4799 32.0691,13.1429 C31.5811,13.9189 30.8301,14.5299 29.8051,14.9309 C29.0921,15.2059 28.6671,15.7059 28.5171,16.4199 C27.5541,17.6449 26.5791,18.6199 25.5791,19.3569" id="Fill-147" fill="#F9F9F9"></path>
                    <path d="M41.5098,32.3496 C41.1978,31.7236 40.8088,31.0866 40.3458,30.4486 C39.0458,29.1856 38.5208,28.1226 38.7708,27.2476 C38.9588,26.5356 39.4958,26.0726 40.3968,25.8726 C41.2468,25.6976 41.9718,25.3476 42.5848,24.8216 C43.5988,24.1716 44.1478,23.7216 44.2238,23.4716 C43.5728,23.8716 42.9228,24.2716 42.2598,24.6836 C41.7728,25.2226 41.0968,25.4476 40.2458,25.3966 C39.4208,25.2226 39.0218,25.2226 39.0598,25.3716 C39.5838,25.9846 39.0458,26.5846 37.4458,27.1846 C32.7438,28.6116 29.3808,29.2366 27.3918,29.0606 C29.0798,29.8366 32.2428,29.4236 36.8578,27.8476 C37.2958,27.7356 37.8828,28.1106 38.5968,28.9606 C38.8338,29.4606 39.3458,30.0236 40.1098,30.6366 C40.6848,31.4246 41.1478,31.9866 41.5098,32.3496" id="Fill-149" fill="#F9F9F9"></path>
                    <path d="M2.3081,8.166 C3.3581,6.916 4.3951,5.64 5.4471,4.377 C6.7851,3.877 8.1471,3.352 9.4981,2.852 C11.1991,2.176 12.9111,1.501 14.6131,0.826 C16.0381,0.438 15.2131,0.926 12.1371,2.302 C10.8111,4.265 9.8101,4.79 9.1351,3.865 C7.1601,4.052 5.9471,4.427 5.5221,4.965 C2.2461,8.917 1.1701,9.979 2.3081,8.166" id="Fill-151" fill="#F9F9F9"></path>
                    <path d="M18.5884,1.9761 C20.1014,2.9771 21.5894,3.9901 23.0904,5.0021 C24.5284,5.0521 25.9664,5.1021 27.4174,5.1521 C29.4674,6.7531 31.5304,8.3661 33.5824,9.9661 C31.6184,8.6161 29.6544,7.2661 27.7044,5.9151 C26.0164,6.4281 24.7914,6.5531 24.0154,6.3031 C24.0664,6.6531 24.4664,7.4031 25.2284,8.5161 C26.6294,10.9921 25.6164,9.8161 22.1904,4.9901 C20.9774,3.9771 19.8014,2.9771 18.5884,1.9761" id="Fill-153" fill="#F9F9F9"></path>
                    <path d="M18.5884,1.9761 C20.1014,2.9771 21.5894,3.9901 23.0904,5.0021 C24.5284,5.0521 25.9664,5.1021 27.4174,5.1521 C29.4674,6.7531 31.5304,8.3661 33.5824,9.9661 C31.6184,8.6161 29.6544,7.2661 27.7044,5.9151 C26.0164,6.4281 24.7914,6.5531 24.0154,6.3031 C24.0664,6.6531 24.4664,7.4031 25.2284,8.5161 C26.6294,10.9921 25.6164,9.8161 22.1904,4.9901 C20.9774,3.9771 19.8014,2.9771 18.5884,1.9761 L18.5884,1.9761 Z" id="Stroke-155" stroke="#000000" stroke-width="0.03"></path>
                    <path d="M0.77,20.6953 C1.782,22.4213 3.559,24.7843 6.072,27.7853 C9.11,29.6493 12.149,31.5113 15.188,33.3753 C18.551,33.3873 21.915,33.4003 25.292,33.4253 C25.117,32.9633 24.941,32.5113 24.766,32.0623 C21.715,32.3243 18.664,32.5873 15.613,32.8373 C10.911,26.0973 8.035,24.1843 6.997,27.0983 C2.195,20.8453 0.107,18.7193 0.77,20.6953" id="Fill-157" fill="#000000"></path>
                    <path d="M15.7251,18.9448 C17.8631,18.9198 19.9891,18.8948 22.1161,18.8568 C22.5271,18.3318 22.9401,17.8068 23.3661,17.2688 C19.1641,17.8188 16.6131,18.3948 15.7251,18.9448" id="Fill-159" fill="#000000"></path>
                    <path d="M15.6128,32.8374 C13.2618,29.6114 10.5108,26.3724 7.3478,23.0964 C8.6978,23.8214 10.6858,25.6594 13.3238,28.5854 C13.9998,28.0734 14.6748,27.5474 15.3498,27.0354 C14.8748,27.7234 14.4248,28.3984 13.9628,29.0854 C14.5748,30.1104 15.1998,31.1244 15.8378,32.1244 C18.6888,32.1244 21.5408,32.0994 24.3908,32.0994 C21.4768,32.3374 18.5388,32.6004 15.6128,32.8374" id="Fill-161" fill="#F9F9F9"></path>
                </g>
                <g id="Group-166" transform="translate(276.000000, 142.000000)">
                    <mask id="mask-62" sketch:name="Clip 165" fill="white">
                        <use xlink:href="#path-61"></use>
                    </mask>
                    <g id="Clip-165"></g>
                    <path d="M0.137,1.301 C-0.051,3.177 0.611,5.328 2.137,7.704 L2.137,7.704 C2.287,12.018 2.887,14.482 3.95,15.107 L3.95,15.107 C4.888,14.144 5.501,13.307 5.801,12.631 L5.801,12.631 C5.588,12.355 4.788,10.329 3.388,6.566 L3.388,6.566 C2.187,5.453 1.349,3.452 0.862,0.989 L0.862,0.989 C0.847,0.988 0.832,0.988 0.818,0.988 L0.818,0.988 C0.57,0.988 0.325,1.089 0.137,1.301" id="Fill-164" sketch:type="MSShapeGroup" mask="url(#mask-62)"></path>
                </g>
                <g id="Group-178">
                    <path d="M303.6338,127.2451 L334.9078,133.3351 L330.8308,179.7771 L338.2458,130.7471 C328.1168,128.1581 316.1018,127.4711 303.6338,127.2451" id="Fill-167" fill="#FFFFFF" sketch:type="MSShapeGroup"></path>
                    <path d="M259.6807,141.3125 L266.7197,207.0375 C277.3367,213.1755 293.9177,212.0135 314.8877,210.1135 C308.1727,214.0395 295.3187,218.3905 263.8067,211.7015 L259.6807,141.3125 Z" id="Fill-169" fill="#FFFFFF" sketch:type="MSShapeGroup"></path>
                    <g id="Group-173">
                        <mask id="mask-64" sketch:name="Clip 172" fill="white">
                            <use xlink:href="#path-63"></use>
                        </mask>
                        <g id="Clip-172"></g>
                        <path d="M494.9648,221.4424 C494.5768,217.2034 497.7028,213.4514 501.9438,213.0634 C506.1818,212.6894 509.9328,215.8154 510.3218,220.0424 C510.6968,224.2804 507.5818,228.0314 503.3438,228.4194 C499.1048,228.8064 495.3528,225.6804 494.9648,221.4424 L494.9648,221.4424 Z M470.3438,221.4424 C469.9678,217.2154 473.0948,213.4514 477.3198,213.0774 C481.5618,212.6894 485.3118,215.8154 485.6988,220.0534 C486.0858,224.2804 482.9598,228.0444 478.7218,228.4194 C474.4838,228.8064 470.7318,225.6804 470.3438,221.4424 L470.3438,221.4424 Z M443.1838,221.4424 C442.7968,217.2154 445.9228,213.4514 450.1608,213.0774 C454.4008,212.6894 458.1518,215.8154 458.5388,220.0534 C458.9148,224.2804 455.8008,228.0444 451.5628,228.4194 C447.3228,228.8064 443.5718,225.6804 443.1838,221.4424 L443.1838,221.4424 Z M470.4188,264.2074 C473.4948,259.5554 475.1328,254.5534 475.3448,250.1394 L475.3448,248.3644 C475.1708,244.3134 473.6698,240.9244 470.8438,239.0104 C464.6548,234.8214 454.4258,239.3114 447.9968,249.0264 C441.5698,258.7444 441.3828,270.0344 447.5728,274.2104 C453.7628,278.4004 463.9908,273.9224 470.4188,264.2074 L470.4188,264.2074 Z M173.2248,313.0004 L173.2248,306.0224 L475.3448,306.0224 L475.3448,269.4094 C475.1578,269.6344 474.9698,269.8724 474.7818,270.0964 C465.7668,280.7514 451.3118,283.2904 442.5218,275.7494 C433.7308,268.2204 433.9178,253.4414 442.9348,242.7874 C451.9488,232.1214 466.4048,229.5834 475.1828,237.1234 C475.2438,237.1724 475.2948,237.2104 475.3448,237.2594 L475.3448,237.0094 L482.0228,237.0094 L482.0228,306.0224 L482.0358,306.0224 L482.0358,313.0004 L173.2248,313.0004 Z" id="Fill-171" fill="#00BAFF" sketch:type="MSShapeGroup" mask="url(#mask-64)"></path>
                    </g>
                    <path d="M206.0864,223.1416 L217.9534,223.1416 C225.4554,223.1416 232.9584,226.1316 240.4604,232.1206 C246.2754,238.0726 249.5894,242.8996 250.3894,246.6136 L250.1524,246.8506 L242.8864,246.8506 C242.5994,246.8506 241.5494,245.2386 239.7354,242.0246 C236.3474,236.8716 230.4574,233.1216 222.0674,230.7336 C219.2034,230.2826 215.7274,230.0576 211.6504,230.0576 C196.9704,230.0576 187.1164,235.3476 182.1154,245.9266 C180.1904,249.1516 179.2144,253.0666 179.2144,257.6676 C179.2144,268.7846 185.2664,277.2116 197.3704,282.9776 C201.0464,284.2016 205.3984,284.8146 210.4504,284.8146 L213.5894,284.8146 C224.3184,284.8146 232.5584,281.4386 238.2854,274.6866 L215.2894,274.6866 L215.2894,278.1376 L214.8014,278.6006 L208.9874,278.6006 L208.5124,278.1376 L208.5124,268.7086 L208.9874,268.2466 L249.9024,268.2466 L250.1524,268.4706 L250.3894,268.4706 C246.8884,277.1496 241.2364,283.5146 233.4454,287.5776 C228.4814,290.4926 221.5424,291.9436 212.6264,291.9436 L211.1754,291.9436 C194.9194,291.9436 183.2914,285.9646 176.3134,273.9976 C173.2494,268.8596 171.7114,263.3316 171.7114,257.4286 C171.7114,245.5756 177.3634,235.9226 188.6554,228.4446 C194.7944,224.9056 200.5974,223.1416 206.0864,223.1416" id="Fill-174" fill="#FF0030" sketch:type="MSShapeGroup"></path>
                    <path d="M499.8418,238.8613 L505.8948,238.8613 L506.3938,239.3613 L506.3938,279.2133 L505.8948,279.7133 L499.8418,279.7133 L499.3418,279.2133 L499.3418,239.3613 L499.8418,238.8613 Z" id="Fill-176" fill="#00BAFF" sketch:type="MSShapeGroup"></path>
                </g>
            </g>
        </g>
    </g>
</svg>